G04 DipTrace 3.1.0.1*
G04 lt3757_nixie_power_supply_nosnub-route-5.TopMask.gbr*
%MOIN*%
G04 #@! TF.FileFunction,Soldermask,Top*
G04 #@! TF.Part,Single*
%ADD45O,0.078031X0.068031*%
%ADD47R,0.067087X0.086772*%
%ADD49R,0.06315X0.019843*%
%ADD51R,0.055276X0.071024*%
%ADD53C,0.204882*%
%ADD55R,0.26X0.236378*%
%ADD57R,0.094646X0.055276*%
%ADD59R,0.078898X0.145827*%
%ADD61O,0.068031X0.078031*%
%ADD63R,0.086772X0.06315*%
%ADD65R,0.047402X0.051339*%
%ADD67R,0.071024X0.055276*%
%ADD69R,0.071024X0.114331*%
%ADD71R,0.039528X0.039528*%
%FSLAX26Y26*%
G04*
G70*
G90*
G75*
G01*
G04 TopMask*
%LPD*%
D71*
X547559Y724724D3*
X606614D3*
D69*
X527874Y1331024D3*
X638110D3*
X527874Y1453071D3*
X638110D3*
X527874Y1575118D3*
X638110D3*
X527874Y1697165D3*
X638110D3*
D67*
X1338898Y1921575D3*
Y2031811D3*
X1256220Y1921575D3*
Y2031811D3*
D71*
X834961Y618425D3*
X894016D3*
X547559Y834961D3*
X606614D3*
X547559Y890079D3*
X606614D3*
D65*
X1008189Y834961D3*
Y768031D3*
D63*
X937323Y2035748D3*
Y1862520D3*
D61*
X1145984Y2039685D3*
X1045984D3*
D59*
X976339Y945079D3*
X1074764D3*
X1173189D3*
X1271614D3*
X1370039D3*
X1468465D3*
Y1744291D3*
X1370039D3*
X1271614D3*
X1173189D3*
X1070827D3*
X972402D3*
D57*
X1035748Y705039D3*
D55*
X1283780Y614488D3*
D57*
X1035748Y523937D3*
D53*
X520000Y2000315D3*
X1527874D3*
X520000Y520000D3*
X1527874D3*
D71*
X547559Y669606D3*
X606614D3*
D51*
X732598Y2027874D3*
X842835D3*
D71*
X547559Y779843D3*
X606614D3*
D51*
X834961Y464882D3*
X945197D3*
D71*
Y614488D3*
Y555433D3*
X669606Y831024D3*
Y890079D3*
X724724Y1901890D3*
Y1960945D3*
X878268Y894016D3*
X819213D3*
D49*
X736535Y764094D3*
Y744409D3*
Y724724D3*
Y705039D3*
Y685354D3*
X909764D3*
Y705039D3*
Y724724D3*
Y744409D3*
Y764094D3*
D47*
X823150Y724724D3*
D45*
X571181Y1094803D3*
Y994803D3*
Y1194803D3*
M02*
