G04 DipTrace 3.1.0.1*
G04 lt3757_nixie_power_supply_nosnub-route-5.TopDimension.gbr*
%MOIN*%
G04 #@! TF.FileFunction,Drawing,Top*
G04 #@! TF.Part,Single*
%ADD13C,0.001378*%
%ADD75C,0.006176*%
%FSLAX26Y26*%
G04*
G70*
G90*
G75*
G01*
G04 TopDimension*
%LPD*%
X520000Y520000D2*
D13*
X216850D1*
X1653858Y492441D2*
X216850D1*
X236535Y520000D2*
Y492441D1*
Y579055D2*
Y559370D1*
G36*
Y520000D2*
X228661Y559370D1*
X244409D1*
X236535Y520000D1*
G37*
Y433386D2*
D13*
Y453071D1*
G36*
Y492441D2*
X244409Y453071D1*
X228661D1*
X236535Y492441D1*
G37*
Y641509D2*
D13*
Y520000D1*
X1527874D2*
X1791654D1*
X1625030Y422844D2*
X1791654D1*
X1771969Y520000D2*
Y422844D1*
Y579055D2*
Y559370D1*
G36*
Y520000D2*
X1764094Y559370D1*
X1779843D1*
X1771969Y520000D1*
G37*
Y363789D2*
D13*
Y383474D1*
G36*
Y422844D2*
X1779843Y383474D1*
X1764094D1*
X1771969Y422844D1*
G37*
Y260288D2*
D13*
Y520000D1*
X184177Y580130D2*
D75*
X186078Y574382D1*
X191826Y570535D1*
X201377Y568634D1*
X207125D1*
X216675Y570535D1*
X222423Y574382D1*
X224325Y580130D1*
Y583932D1*
X222423Y589680D1*
X216675Y593483D1*
X207125Y595428D1*
X201377D1*
X191826Y593483D1*
X186078Y589680D1*
X184177Y583932D1*
Y580130D1*
X191826Y593483D2*
X216675Y570535D1*
X220478Y609681D2*
X222423Y607780D1*
X224325Y609681D1*
X222423Y611626D1*
X220478Y609681D1*
X224325Y631627D2*
X184177Y650773D1*
Y623978D1*
X1814776Y372265D2*
X1816678D1*
X1820525Y370363D1*
X1822426Y368462D1*
X1824327Y364615D1*
Y356966D1*
X1822426Y353164D1*
X1820525Y351262D1*
X1816678Y349317D1*
X1812875D1*
X1809028Y351262D1*
X1803325Y355065D1*
X1784179Y374210D1*
Y347416D1*
X1788026Y333163D2*
X1786081Y335064D1*
X1784179Y333163D1*
X1786081Y331217D1*
X1788026Y333163D1*
X1784179Y299721D2*
X1824327D1*
X1797577Y318866D1*
Y290170D1*
X1784179Y270169D2*
X1824327Y251024D1*
Y277819D1*
M02*
