G04 DipTrace 3.1.0.1*
G04 lt3757_nixie_power_supply_nosnub-route-5.TopPaste.gbr*
%MOIN*%
G04 #@! TF.FileFunction,Paste,Top*
G04 #@! TF.Part,Single*
%ADD46O,0.061969X0.051969*%
%ADD48R,0.051024X0.070709*%
%ADD50R,0.047087X0.00378*%
%ADD52R,0.039213X0.054961*%
%ADD54C,0.188819*%
%ADD56R,0.243937X0.220315*%
%ADD58R,0.078583X0.039213*%
%ADD60R,0.062835X0.129764*%
%ADD62O,0.051969X0.061969*%
%ADD64R,0.070709X0.047087*%
%ADD66R,0.031339X0.035276*%
%ADD68R,0.054961X0.039213*%
%ADD70R,0.054961X0.098268*%
%ADD72R,0.023465X0.023465*%
%FSLAX26Y26*%
G04*
G70*
G90*
G75*
G01*
G04 TopPaste*
%LPD*%
D72*
X547559Y724724D3*
X606614D3*
D70*
X527874Y1331024D3*
X638110D3*
X527874Y1453071D3*
X638110D3*
X527874Y1575118D3*
X638110D3*
X527874Y1697165D3*
X638110D3*
D68*
X1338898Y1921575D3*
Y2031811D3*
X1256220Y1921575D3*
Y2031811D3*
D72*
X834961Y618425D3*
X894016D3*
X547559Y834961D3*
X606614D3*
X547559Y890079D3*
X606614D3*
D66*
X1008189Y834961D3*
Y768031D3*
D64*
X937323Y2035748D3*
Y1862520D3*
D62*
X1145984Y2039685D3*
X1045984D3*
D60*
X976339Y945079D3*
X1074764D3*
X1173189D3*
X1271614D3*
X1370039D3*
X1468465D3*
Y1744291D3*
X1370039D3*
X1271614D3*
X1173189D3*
X1070827D3*
X972402D3*
D58*
X1035748Y705039D3*
D56*
X1283780Y614488D3*
D58*
X1035748Y523937D3*
D54*
X520000Y2000315D3*
X1527874D3*
X520000Y520000D3*
X1527874D3*
D72*
X547559Y669606D3*
X606614D3*
D52*
X732598Y2027874D3*
X842835D3*
D72*
X547559Y779843D3*
X606614D3*
D52*
X834961Y464882D3*
X945197D3*
D72*
Y614488D3*
Y555433D3*
X669606Y831024D3*
Y890079D3*
X724724Y1901890D3*
Y1960945D3*
X878268Y894016D3*
X819213D3*
D50*
X736535Y764094D3*
Y744409D3*
Y724724D3*
Y705039D3*
Y685354D3*
X909764D3*
Y705039D3*
Y724724D3*
Y744409D3*
Y764094D3*
D48*
X823150Y724724D3*
D46*
X571181Y1094803D3*
Y994803D3*
Y1194803D3*
M02*
