G04 DipTrace 3.1.0.1*
G04 lt3757_nixie_power_supply_nosnub-route-5.TopSilk.gbr*
%MOIN*%
G04 #@! TF.FileFunction,Legend,Top*
G04 #@! TF.Part,Single*
%ADD10C,0.009843*%
%ADD12C,0.002992*%
%ADD14C,0.011811*%
%ADD18C,0.003937*%
%ADD19C,0.001969*%
%ADD26C,0.035416*%
%ADD32C,0.01571*%
%ADD73C,0.004632*%
%ADD74C,0.00772*%
%FSLAX26Y26*%
G04*
G70*
G90*
G75*
G01*
G04 TopSilk*
%LPD*%
X565269Y750315D2*
D10*
X521969D1*
Y699134D1*
X565269D1*
X632194Y750315D2*
X588893D1*
X632205D2*
Y699134D1*
X588893D2*
X632194D1*
X606614Y1392047D2*
X677480D1*
X488504Y1270000D2*
X559370D1*
X677480Y1392047D2*
Y1270000D1*
X488504Y1392047D2*
X559370D1*
X488504D2*
Y1270000D1*
X604649D2*
X677480D1*
X606614Y1514094D2*
X677480D1*
X488504Y1392047D2*
X559370D1*
X677480Y1514094D2*
Y1392047D1*
X488504Y1514094D2*
X559370D1*
X488504D2*
Y1392047D1*
X604649D2*
X677480D1*
X606614Y1636142D2*
X677480D1*
X488504Y1514094D2*
X559370D1*
X677480Y1636142D2*
Y1514094D1*
X488504Y1636142D2*
X559370D1*
X488504D2*
Y1514094D1*
X604649D2*
X677480D1*
X606614Y1758189D2*
X677480D1*
X488504Y1636142D2*
X559370D1*
X677480Y1758189D2*
Y1636142D1*
X488504Y1758189D2*
X559370D1*
X488504D2*
Y1636142D1*
X604649D2*
X677480D1*
X1297559Y1888110D2*
Y1941260D1*
X1380236Y1888110D2*
Y1941260D1*
X1297559Y2012126D2*
Y2065276D1*
X1380236Y1888110D2*
X1297559D1*
X1380236Y2012126D2*
Y2065276D1*
X1297559D1*
X1214882Y1888110D2*
Y1941260D1*
X1297559Y1888110D2*
Y1941260D1*
X1214882Y2012126D2*
Y2065276D1*
X1297559Y1888110D2*
X1214882D1*
X1297559Y2012126D2*
Y2065276D1*
X1214882D1*
X852671Y644016D2*
X809370D1*
Y592835D1*
X852671D1*
X919595Y644016D2*
X876294D1*
X919606D2*
Y592835D1*
X876294D2*
X919595D1*
X565269Y860551D2*
X521969D1*
Y809370D1*
X565269D1*
X632194Y860551D2*
X588893D1*
X632205D2*
Y809370D1*
X588893D2*
X632194D1*
X565269Y915669D2*
X521969D1*
Y864488D1*
X565269D1*
X632194Y915669D2*
X588893D1*
X632205D2*
Y864488D1*
X588893D2*
X632194D1*
X1035748Y813313D2*
Y864488D1*
X980630D1*
Y813313D1*
X1035748Y789679D2*
Y738504D1*
X980630D1*
Y789679D1*
X984567Y1996366D2*
X890079D1*
X984567Y2071181D2*
X890079D1*
Y1827087D1*
X984567D1*
Y2071181D1*
Y1980622D2*
X894019D1*
X1021038Y1989685D2*
X1070986D1*
X1021038D2*
X995984Y2014685D1*
Y2064685D1*
X1021038Y2089685D1*
X1070986Y1989685D2*
X1096039Y2014685D1*
X1120933Y1989685D1*
X1195934Y2064685D2*
X1171041Y2089685D1*
X1120933D1*
X1096039Y2064685D1*
X1070986Y2089685D1*
X1045932D1*
X1021038D1*
X1120933Y1989685D2*
X1171041D1*
X1195934Y2014685D1*
Y2064685D1*
D26*
X925160Y1090756D3*
X883819Y1049434D2*
D10*
X1560984D1*
Y1639936D1*
X883819D1*
Y1049434D1*
X1102698Y744409D2*
Y484567D1*
X1338902Y744409D2*
X1102698D1*
X1338902Y484567D2*
X1102698D1*
X1338902Y744409D2*
Y736536D1*
Y484567D2*
Y492440D1*
X565269Y695197D2*
X521969D1*
Y644016D1*
X565269D1*
X632194Y695197D2*
X588893D1*
X632205D2*
Y644016D1*
X588893D2*
X632194D1*
X699134Y2069213D2*
X752283D1*
X699134Y1986535D2*
X752283D1*
X823150Y2069213D2*
X876299D1*
X699134Y1986535D2*
Y2069213D1*
X823150Y1986535D2*
X876299D1*
Y2069213D1*
X565269Y805433D2*
X521969D1*
Y754252D1*
X565269D1*
X632194Y805433D2*
X588893D1*
X632205D2*
Y754252D1*
X588893D2*
X632194D1*
X801496Y506220D2*
X854646D1*
X801496Y423543D2*
X854646D1*
X925512Y506220D2*
X978661D1*
X801496Y423543D2*
Y506220D1*
X925512Y423543D2*
X978661D1*
Y506220D1*
X970787Y596778D2*
Y640079D1*
X919606D1*
Y596778D1*
X970787Y529854D2*
Y573154D1*
Y529843D2*
X919606D1*
Y573154D2*
Y529854D1*
X644016Y848734D2*
Y805433D1*
X695197D1*
Y848734D1*
X644016Y915658D2*
Y872357D1*
Y915669D2*
X695197D1*
Y872357D2*
Y915658D1*
X699134Y1919600D2*
Y1876299D1*
X750315D1*
Y1919600D1*
X699134Y1986524D2*
Y1943224D1*
Y1986535D2*
X750315D1*
Y1943224D2*
Y1986524D1*
X860557Y868425D2*
X903858D1*
Y919606D1*
X860557D1*
X793633Y868425D2*
X836934D1*
X793622D2*
Y919606D1*
X836934D2*
X793633D1*
X764099Y783782D2*
Y775908D1*
X882200Y783782D2*
Y775908D1*
Y665669D2*
X764099D1*
D32*
X724732Y783776D3*
X764099Y783782D2*
D10*
X807394D1*
X882200Y673543D2*
Y665669D1*
X764099Y673543D2*
Y665669D1*
X807394Y783782D2*
G03X838906Y783782I15756J4595D01*
G01*
X882200D1*
X521181Y1219753D2*
Y1169803D1*
Y1219753D2*
X546181Y1244803D1*
X596181D1*
X621181Y1219753D1*
X521181Y1169803D2*
X546181Y1144753D1*
X521181Y1119853D1*
X596181Y944803D2*
X621181Y969853D1*
Y1019803D1*
X596181Y1044853D1*
X621181Y1069753D1*
Y1119853D1*
X596181Y1144753D1*
X621181Y1169803D1*
Y1194853D1*
Y1219753D1*
X521181Y1119853D2*
Y1069753D1*
X546181Y1044853D1*
X521181Y1019803D1*
Y969853D1*
X546181Y944803D1*
X596181D2*
X546181D1*
X412130Y1968031D2*
D18*
X413331D1*
X626673D2*
X627870D1*
X412130Y1964224D2*
X414622D1*
X625382D2*
X627866D1*
X412130Y1960421D2*
X416110D1*
X623890D2*
X627870D1*
X412130Y1956614D2*
X417902D1*
X622098D2*
X627870D1*
X412130Y1952807D2*
X419780D1*
X620220D2*
X627870D1*
X412130Y1949004D2*
X421724D1*
X618276D2*
X627870D1*
X412130Y1945197D2*
X424024D1*
X615976D2*
X627870D1*
X412130Y1941390D2*
X426567D1*
X613433D2*
X627870D1*
X412130Y1937587D2*
X429138D1*
X610862D2*
X627870D1*
X412130Y1933780D2*
X432083D1*
X607917D2*
X627870D1*
X412130Y1929972D2*
X435402D1*
X604598D2*
X627870D1*
X412130Y1926169D2*
X438780D1*
X601220D2*
X627870D1*
X412130Y1922362D2*
X442693D1*
X597307D2*
X627870D1*
X412130Y1918555D2*
X447028D1*
X592972D2*
X627870D1*
X412130Y1914752D2*
X451610D1*
X588390D2*
X627870D1*
X412130Y1910945D2*
X457150D1*
X582850D2*
X627870D1*
X412130Y1907138D2*
X463008D1*
X576992D2*
X627870D1*
X412130Y1903335D2*
X470382D1*
X569618D2*
X627870D1*
X412130Y1899528D2*
X478846D1*
X561154D2*
X627870D1*
X412130Y1895720D2*
X490358D1*
X549642D2*
X627870D1*
X412130Y1891917D2*
X516866D1*
X523134D2*
X627870D1*
X412130Y1888110D2*
X627870D1*
X412130Y1884303D2*
X441539D1*
X446224D2*
X495094D1*
X499760D2*
X516713D1*
X521374D2*
X538327D1*
X542988D2*
X585209D1*
X589886D2*
X627870D1*
X412130Y1880500D2*
X436787D1*
X450984D2*
X490327D1*
X504528D2*
X511945D1*
X526142D2*
X533559D1*
X547811D2*
X580449D1*
X594646D2*
X627870D1*
X412130Y1876693D2*
X435925D1*
X452492D2*
X488823D1*
X505386D2*
X511083D1*
X527004D2*
X532697D1*
X550346D2*
X579587D1*
X595516D2*
X627870D1*
X412130Y1872886D2*
X436957D1*
X453937D2*
X487374D1*
X504358D2*
X511083D1*
X527004D2*
X532697D1*
X552886D2*
X579587D1*
X595516D2*
X627870D1*
X412130Y1869083D2*
X438402D1*
X455390D2*
X485929D1*
X502913D2*
X511083D1*
X527004D2*
X532697D1*
X555421D2*
X579587D1*
X595516D2*
X627870D1*
X412130Y1865276D2*
X439854D1*
X456835D2*
X484476D1*
X501465D2*
X511083D1*
X527004D2*
X532697D1*
X557961D2*
X579587D1*
X595516D2*
X627870D1*
X412130Y1861469D2*
X441299D1*
X458283D2*
X483031D1*
X500012D2*
X511083D1*
X527004D2*
X532697D1*
X560500D2*
X579587D1*
X595516D2*
X627870D1*
X412130Y1857665D2*
X442748D1*
X459736D2*
X481579D1*
X498567D2*
X511083D1*
X527004D2*
X532697D1*
X563035D2*
X579587D1*
X595516D2*
X627870D1*
X412130Y1853858D2*
X444201D1*
X461181D2*
X480134D1*
X497114D2*
X511083D1*
X527004D2*
X532697D1*
X565575D2*
X579587D1*
X595516D2*
X627870D1*
X412130Y1850051D2*
X445646D1*
X462634D2*
X478685D1*
X495669D2*
X511083D1*
X527004D2*
X532697D1*
X568102D2*
X579587D1*
X595516D2*
X627870D1*
X412130Y1846248D2*
X447098D1*
X464079D2*
X477232D1*
X494224D2*
X511083D1*
X527004D2*
X532697D1*
X548618D2*
X551661D1*
X570642D2*
X579587D1*
X595516D2*
X627870D1*
X412130Y1842441D2*
X448543D1*
X465524D2*
X475787D1*
X492768D2*
X511083D1*
X527004D2*
X532697D1*
X548618D2*
X554197D1*
X573177D2*
X579587D1*
X595516D2*
X627870D1*
X412130Y1838634D2*
X449988D1*
X466980D2*
X474335D1*
X491323D2*
X511083D1*
X527004D2*
X532697D1*
X548618D2*
X556736D1*
X575717D2*
X579587D1*
X595516D2*
X627870D1*
X412130Y1834831D2*
X451445D1*
X468425D2*
X472890D1*
X489878D2*
X511083D1*
X527004D2*
X532697D1*
X548618D2*
X559272D1*
X578252D2*
X579587D1*
X595516D2*
X627870D1*
X412130Y1831024D2*
X452890D1*
X469870D2*
X471445D1*
X488425D2*
X511083D1*
X527004D2*
X532697D1*
X548618D2*
X561811D1*
X595516D2*
X627870D1*
X412130Y1827217D2*
X454335D1*
X486980D2*
X511083D1*
X527004D2*
X532697D1*
X548618D2*
X564346D1*
X595516D2*
X627870D1*
X412130Y1823413D2*
X455787D1*
X485528D2*
X511083D1*
X527004D2*
X532697D1*
X548618D2*
X566886D1*
X595516D2*
X627870D1*
X412130Y1819606D2*
X457232D1*
X484079D2*
X511083D1*
X527004D2*
X532697D1*
X548618D2*
X569421D1*
X595516D2*
X627870D1*
X412130Y1815799D2*
X458685D1*
X482634D2*
X511083D1*
X527004D2*
X532697D1*
X548618D2*
X571961D1*
X595516D2*
X627870D1*
X412130Y1811996D2*
X460134D1*
X481181D2*
X511083D1*
X527004D2*
X532697D1*
X548618D2*
X574496D1*
X595516D2*
X627870D1*
X412130Y1808189D2*
X461579D1*
X479736D2*
X511083D1*
X527004D2*
X532697D1*
X548618D2*
X577035D1*
X595516D2*
X627870D1*
X412130Y1804382D2*
X463031D1*
X478283D2*
X511429D1*
X526657D2*
X533043D1*
X548272D2*
X579571D1*
X595161D2*
X627870D1*
X412130Y1800579D2*
X465752D1*
X475567D2*
X514134D1*
X523949D2*
X535752D1*
X545567D2*
X582642D1*
X592457D2*
X627870D1*
X412130Y1796772D2*
X627870D1*
X412130Y1792965D2*
X627870D1*
X504866Y1875618D2*
X504504Y1874295D1*
X503882Y1875618D2*
D19*
G03X505850Y1875618I984J0D01*
G01*
G03X503882Y1875618I-984J0D01*
G01*
X503520Y1874295D2*
G03X505488Y1874295I984J0D01*
G01*
G03X503520Y1874295I-984J0D01*
G01*
X504504D2*
D18*
X477500Y1803413D1*
X476516D2*
D19*
G03X478484Y1803413I984J0D01*
G01*
G03X476516Y1803413I-984J0D01*
G01*
X477500D2*
D18*
X476906Y1802386D1*
X475921D2*
D19*
G03X477890Y1802386I984J0D01*
G01*
G03X475921Y1802386I-984J0D01*
G01*
X476906D2*
D18*
X476161Y1801461D1*
X475177D2*
D19*
G03X477146Y1801461I984J0D01*
G01*
G03X475177Y1801461I-984J0D01*
G01*
X476161D2*
D18*
X475283Y1800661D1*
X474299D2*
D19*
G03X476268Y1800661I984J0D01*
G01*
G03X474299Y1800661I-984J0D01*
G01*
X475283D2*
D18*
X474287Y1800012D1*
X473303D2*
D19*
G03X475272Y1800012I984J0D01*
G01*
G03X473303Y1800012I-984J0D01*
G01*
X474287D2*
D18*
X473205Y1799528D1*
X472220D2*
D19*
G03X474189Y1799528I984J0D01*
G01*
G03X472220Y1799528I-984J0D01*
G01*
X473205D2*
D18*
X472059Y1799217D1*
X471075D2*
D19*
G03X473043Y1799217I984J0D01*
G01*
G03X471075Y1799217I-984J0D01*
G01*
X472059D2*
D18*
X470878Y1799087D1*
X469894D2*
D19*
G03X471862Y1799087I984J0D01*
G01*
G03X469894Y1799087I-984J0D01*
G01*
X470878D2*
D18*
X469689Y1799146D1*
X468705D2*
D19*
G03X470673Y1799146I984J0D01*
G01*
G03X468705Y1799146I-984J0D01*
G01*
X469689D2*
D18*
X468528Y1799390D1*
X467543D2*
D19*
G03X469512Y1799390I984J0D01*
G01*
G03X467543Y1799390I-984J0D01*
G01*
X468528D2*
D18*
X467417Y1799811D1*
X466433D2*
D19*
G03X468402Y1799811I984J0D01*
G01*
G03X466433Y1799811I-984J0D01*
G01*
X467417D2*
D18*
X466390Y1800406D1*
X465406D2*
D19*
G03X467374Y1800406I984J0D01*
G01*
G03X465406Y1800406I-984J0D01*
G01*
X466390D2*
D18*
X465465Y1801150D1*
X464480D2*
D19*
G03X466449Y1801150I984J0D01*
G01*
G03X464480Y1801150I-984J0D01*
G01*
X465465D2*
D18*
X464665Y1802028D1*
X463681D2*
D19*
G03X465650Y1802028I984J0D01*
G01*
G03X463681Y1802028I-984J0D01*
G01*
X464665D2*
D18*
X464016Y1803024D1*
X463031D2*
D19*
G03X465000Y1803024I984J0D01*
G01*
G03X463031Y1803024I-984J0D01*
G01*
X464016D2*
D18*
X463583Y1803969D1*
X462598D2*
D19*
G03X464567Y1803969I984J0D01*
G01*
G03X462598Y1803969I-984J0D01*
G01*
X463583D2*
D18*
X436555Y1875091D1*
X435571D2*
D19*
G03X437539Y1875091I984J0D01*
G01*
G03X435571Y1875091I-984J0D01*
G01*
X436555D2*
D18*
X436370Y1876063D1*
X435386D2*
D19*
G03X437354Y1876063I984J0D01*
G01*
G03X435386Y1876063I-984J0D01*
G01*
X436370D2*
D18*
X436323Y1877307D1*
X435339D2*
D19*
G03X437307Y1877307I984J0D01*
G01*
G03X435339Y1877307I-984J0D01*
G01*
X436323D2*
D18*
X436500Y1878638D1*
X435516D2*
D19*
G03X437484Y1878638I984J0D01*
G01*
G03X435516Y1878638I-984J0D01*
G01*
X436500D2*
D18*
X436913Y1879945D1*
X435929D2*
D19*
G03X437898Y1879945I984J0D01*
G01*
G03X435929Y1879945I-984J0D01*
G01*
X436913D2*
D18*
X437587Y1881181D1*
X436602D2*
D19*
G03X438571Y1881181I984J0D01*
G01*
G03X436602Y1881181I-984J0D01*
G01*
X437587D2*
D18*
X438291Y1882087D1*
X437307D2*
D19*
G03X439276Y1882087I984J0D01*
G01*
G03X437307Y1882087I-984J0D01*
G01*
X438291D2*
D18*
X439327Y1883035D1*
X438343D2*
D19*
G03X440311Y1883035I984J0D01*
G01*
G03X438343Y1883035I-984J0D01*
G01*
X439327D2*
D18*
X440154Y1883579D1*
X439169D2*
D19*
G03X441138Y1883579I984J0D01*
G01*
G03X439169Y1883579I-984J0D01*
G01*
X440154D2*
D18*
X440933Y1883961D1*
X439949D2*
D19*
G03X441917Y1883961I984J0D01*
G01*
G03X439949Y1883961I-984J0D01*
G01*
X440933D2*
D18*
X442433Y1884413D1*
X441449D2*
D19*
G03X443417Y1884413I984J0D01*
G01*
G03X441449Y1884413I-984J0D01*
G01*
X442433D2*
D18*
X443559Y1884547D1*
X442575D2*
D19*
G03X444543Y1884547I984J0D01*
G01*
G03X442575Y1884547I-984J0D01*
G01*
X443559D2*
D18*
X444937Y1884484D1*
X443953D2*
D19*
G03X445921Y1884484I984J0D01*
G01*
G03X443953Y1884484I-984J0D01*
G01*
X444937D2*
D18*
X445906Y1884283D1*
X444921D2*
D19*
G03X446890Y1884283I984J0D01*
G01*
G03X444921Y1884283I-984J0D01*
G01*
X445906D2*
D18*
X446843Y1883957D1*
X445858D2*
D19*
G03X447827Y1883957I984J0D01*
G01*
G03X445858Y1883957I-984J0D01*
G01*
X446843D2*
D18*
X448150Y1883236D1*
X447165D2*
D19*
G03X449134Y1883236I984J0D01*
G01*
G03X447165Y1883236I-984J0D01*
G01*
X448150D2*
D18*
X448965Y1882598D1*
X447980D2*
D19*
G03X449949Y1882598I984J0D01*
G01*
G03X447980Y1882598I-984J0D01*
G01*
X448965D2*
D18*
X449780Y1881736D1*
X448795D2*
D19*
G03X450764Y1881736I984J0D01*
G01*
G03X448795Y1881736I-984J0D01*
G01*
X449780D2*
D18*
X450472Y1880717D1*
X449488D2*
D19*
G03X451457Y1880717I984J0D01*
G01*
G03X449488Y1880717I-984J0D01*
G01*
X450472D2*
D18*
X450961Y1879681D1*
X449976D2*
D19*
G03X451945Y1879681I984J0D01*
G01*
G03X449976Y1879681I-984J0D01*
G01*
X450961D2*
D18*
X470657Y1827929D1*
X469673D2*
D19*
G03X471642Y1827929I984J0D01*
G01*
G03X469673Y1827929I-984J0D01*
G01*
X470657D2*
D18*
X490681Y1880406D1*
X489697D2*
D19*
G03X491665Y1880406I984J0D01*
G01*
G03X489697Y1880406I-984J0D01*
G01*
X490681D2*
D18*
X491535Y1881736D1*
X490551D2*
D19*
G03X492520Y1881736I984J0D01*
G01*
G03X490551Y1881736I-984J0D01*
G01*
X491535D2*
D18*
X492508Y1882732D1*
X491524D2*
D19*
G03X493492Y1882732I984J0D01*
G01*
G03X491524Y1882732I-984J0D01*
G01*
X492508D2*
D18*
X493799Y1883630D1*
X492815D2*
D19*
G03X494783Y1883630I984J0D01*
G01*
G03X492815Y1883630I-984J0D01*
G01*
X493799D2*
D18*
X495079Y1884177D1*
X494094D2*
D19*
G03X496063Y1884177I984J0D01*
G01*
G03X494094Y1884177I-984J0D01*
G01*
X495079D2*
D18*
X496618Y1884512D1*
X495634D2*
D19*
G03X497602Y1884512I984J0D01*
G01*
G03X495634Y1884512I-984J0D01*
G01*
X496618D2*
D18*
X497803Y1884547D1*
X496819D2*
D19*
G03X498787Y1884547I984J0D01*
G01*
G03X496819Y1884547I-984J0D01*
G01*
X497803D2*
D18*
X498980Y1884398D1*
X497996D2*
D19*
G03X499965Y1884398I984J0D01*
G01*
G03X497996Y1884398I-984J0D01*
G01*
X498980D2*
D18*
X500122Y1884063D1*
X499138D2*
D19*
G03X501106Y1884063I984J0D01*
G01*
G03X499138Y1884063I-984J0D01*
G01*
X500122D2*
D18*
X500846Y1883736D1*
X499862D2*
D19*
G03X501831Y1883736I984J0D01*
G01*
G03X499862Y1883736I-984J0D01*
G01*
X500846D2*
D18*
X502177Y1882882D1*
X501193D2*
D19*
G03X503161Y1882882I984J0D01*
G01*
G03X501193Y1882882I-984J0D01*
G01*
X502177D2*
D18*
X503169Y1881913D1*
X502185D2*
D19*
G03X504154Y1881913I984J0D01*
G01*
G03X502185Y1881913I-984J0D01*
G01*
X503169D2*
D18*
X504071Y1880618D1*
X503087D2*
D19*
G03X505055Y1880618I984J0D01*
G01*
G03X503087Y1880618I-984J0D01*
G01*
X504071D2*
D18*
X504618Y1879343D1*
X503634D2*
D19*
G03X505602Y1879343I984J0D01*
G01*
G03X503634Y1879343I-984J0D01*
G01*
X504618D2*
D18*
X504953Y1877799D1*
X503969D2*
D19*
G03X505937Y1877799I984J0D01*
G01*
G03X503969Y1877799I-984J0D01*
G01*
X504953D2*
D18*
X504972Y1876413D1*
X503988D2*
D19*
G03X505957Y1876413I984J0D01*
G01*
G03X503988Y1876413I-984J0D01*
G01*
X513984Y1882610D2*
D18*
X515087Y1883441D1*
X513000Y1882610D2*
D19*
G03X514969Y1882610I984J0D01*
G01*
G03X513000Y1882610I-984J0D01*
G01*
X514102Y1883441D2*
G03X516071Y1883441I984J0D01*
G01*
G03X514102Y1883441I-984J0D01*
G01*
X515087D2*
D18*
X516146Y1883980D1*
X515161D2*
D19*
G03X517130Y1883980I984J0D01*
G01*
G03X515161Y1883980I-984J0D01*
G01*
X516146D2*
D18*
X517276Y1884346D1*
X516291D2*
D19*
G03X518260Y1884346I984J0D01*
G01*
G03X516291Y1884346I-984J0D01*
G01*
X517276D2*
D18*
X518449Y1884535D1*
X517465D2*
D19*
G03X519433Y1884535I984J0D01*
G01*
G03X517465Y1884535I-984J0D01*
G01*
X518449D2*
D18*
X519638D1*
X518654D2*
D19*
G03X520622Y1884535I984J0D01*
G01*
G03X518654Y1884535I-984J0D01*
G01*
X519638D2*
D18*
X520811Y1884346D1*
X519827D2*
D19*
G03X521795Y1884346I984J0D01*
G01*
G03X519827Y1884346I-984J0D01*
G01*
X520811D2*
D18*
X521941Y1883980D1*
X520957D2*
D19*
G03X522925Y1883980I984J0D01*
G01*
G03X520957Y1883980I-984J0D01*
G01*
X521941D2*
D18*
X523000Y1883441D1*
X522016D2*
D19*
G03X523984Y1883441I984J0D01*
G01*
G03X522016Y1883441I-984J0D01*
G01*
X523000D2*
D18*
X523961Y1882744D1*
X522976D2*
D19*
G03X524945Y1882744I984J0D01*
G01*
G03X522976Y1882744I-984J0D01*
G01*
X523961D2*
D18*
X524799Y1881906D1*
X523815D2*
D19*
G03X525783Y1881906I984J0D01*
G01*
G03X523815Y1881906I-984J0D01*
G01*
X524799D2*
D18*
X525496Y1880945D1*
X524512D2*
D19*
G03X526480Y1880945I984J0D01*
G01*
G03X524512Y1880945I-984J0D01*
G01*
X525496D2*
D18*
X526035Y1879886D1*
X525051D2*
D19*
G03X527020Y1879886I984J0D01*
G01*
G03X525051Y1879886I-984J0D01*
G01*
X526035D2*
D18*
X526402Y1878756D1*
X525417D2*
D19*
G03X527386Y1878756I984J0D01*
G01*
G03X525417Y1878756I-984J0D01*
G01*
X526402D2*
D18*
X526598Y1877390D1*
X525614D2*
D19*
G03X527583Y1877390I984J0D01*
G01*
G03X525614Y1877390I-984J0D01*
G01*
X526598D2*
D18*
X526614Y1845492D1*
X525630D2*
D19*
G03X527598Y1845492I984J0D01*
G01*
G03X525630Y1845492I-984J0D01*
G01*
X526614D2*
D18*
X526591Y1806059D1*
X525606D2*
D19*
G03X527575Y1806059I984J0D01*
G01*
G03X525606Y1806059I-984J0D01*
G01*
X526591D2*
D18*
X526402Y1804886D1*
X525417D2*
D19*
G03X527386Y1804886I984J0D01*
G01*
G03X525417Y1804886I-984J0D01*
G01*
X526402D2*
D18*
X526035Y1803756D1*
X525051D2*
D19*
G03X527020Y1803756I984J0D01*
G01*
G03X525051Y1803756I-984J0D01*
G01*
X526035D2*
D18*
X525496Y1802697D1*
X524512D2*
D19*
G03X526480Y1802697I984J0D01*
G01*
G03X524512Y1802697I-984J0D01*
G01*
X525496D2*
D18*
X524669Y1801594D1*
X523685D2*
D19*
G03X525654Y1801594I984J0D01*
G01*
G03X523685Y1801594I-984J0D01*
G01*
X524669D2*
D18*
X523492Y1800531D1*
X522508D2*
D19*
G03X524476Y1800531I984J0D01*
G01*
G03X522508Y1800531I-984J0D01*
G01*
X523492D2*
D18*
X522299Y1799827D1*
X521315D2*
D19*
G03X523283Y1799827I984J0D01*
G01*
G03X521315Y1799827I-984J0D01*
G01*
X522299D2*
D18*
X520811Y1799295D1*
X519827D2*
D19*
G03X521795Y1799295I984J0D01*
G01*
G03X519827Y1799295I-984J0D01*
G01*
X520811D2*
D18*
X519638Y1799106D1*
X518654D2*
D19*
G03X520622Y1799106I984J0D01*
G01*
G03X518654Y1799106I-984J0D01*
G01*
X519638D2*
D18*
X518449D1*
X517465D2*
D19*
G03X519433Y1799106I984J0D01*
G01*
G03X517465Y1799106I-984J0D01*
G01*
X518449D2*
D18*
X517276Y1799295D1*
X516291D2*
D19*
G03X518260Y1799295I984J0D01*
G01*
G03X516291Y1799295I-984J0D01*
G01*
X517276D2*
D18*
X516146Y1799661D1*
X515161D2*
D19*
G03X517130Y1799661I984J0D01*
G01*
G03X515161Y1799661I-984J0D01*
G01*
X516146D2*
D18*
X515087Y1800201D1*
X514102D2*
D19*
G03X516071Y1800201I984J0D01*
G01*
G03X514102Y1800201I-984J0D01*
G01*
X515087D2*
D18*
X514126Y1800898D1*
X513142D2*
D19*
G03X515110Y1800898I984J0D01*
G01*
G03X513142Y1800898I-984J0D01*
G01*
X514126D2*
D18*
X513287Y1801736D1*
X512303D2*
D19*
G03X514272Y1801736I984J0D01*
G01*
G03X512303Y1801736I-984J0D01*
G01*
X513287D2*
D18*
X512591Y1802697D1*
X511606D2*
D19*
G03X513575Y1802697I984J0D01*
G01*
G03X511606Y1802697I-984J0D01*
G01*
X512591D2*
D18*
X512051Y1803756D1*
X511067D2*
D19*
G03X513035Y1803756I984J0D01*
G01*
G03X511067Y1803756I-984J0D01*
G01*
X512051D2*
D18*
X511685Y1804886D1*
X510701D2*
D19*
G03X512669Y1804886I984J0D01*
G01*
G03X510701Y1804886I-984J0D01*
G01*
X511685D2*
D18*
X511496Y1806059D1*
X510512D2*
D19*
G03X512480Y1806059I984J0D01*
G01*
G03X510512Y1806059I-984J0D01*
G01*
X511496D2*
D18*
X511472Y1818465D1*
X510488D2*
D19*
G03X512457Y1818465I984J0D01*
G01*
G03X510488Y1818465I-984J0D01*
G01*
X511472D2*
D18*
X511496Y1877583D1*
X510512D2*
D19*
G03X512480Y1877583I984J0D01*
G01*
G03X510512Y1877583I-984J0D01*
G01*
X511496D2*
D18*
X511685Y1878756D1*
X510701D2*
D19*
G03X512669Y1878756I984J0D01*
G01*
G03X510701Y1878756I-984J0D01*
G01*
X511685D2*
D18*
X511913Y1879508D1*
X510929D2*
D19*
G03X512898Y1879508I984J0D01*
G01*
G03X510929Y1879508I-984J0D01*
G01*
X511913D2*
D18*
X512591Y1880945D1*
X511606D2*
D19*
G03X513575Y1880945I984J0D01*
G01*
G03X511606Y1880945I-984J0D01*
G01*
X512591D2*
D18*
X513421Y1882047D1*
X512437D2*
D19*
G03X514406Y1882047I984J0D01*
G01*
G03X512437Y1882047I-984J0D01*
G01*
X546961Y1881181D2*
D18*
X579980Y1831654D1*
X545976Y1881181D2*
D19*
G03X547945Y1881181I984J0D01*
G01*
G03X545976Y1881181I-984J0D01*
G01*
X578996Y1831654D2*
G03X580965Y1831654I984J0D01*
G01*
G03X578996Y1831654I-984J0D01*
G01*
X579980D2*
D18*
X580012Y1877657D1*
X579028D2*
D19*
G03X580996Y1877657I984J0D01*
G01*
G03X579028Y1877657I-984J0D01*
G01*
X580012D2*
D18*
X580252Y1879012D1*
X579268D2*
D19*
G03X581236Y1879012I984J0D01*
G01*
G03X579268Y1879012I-984J0D01*
G01*
X580252D2*
D18*
X580579Y1879945D1*
X579594D2*
D19*
G03X581563Y1879945I984J0D01*
G01*
G03X579594Y1879945I-984J0D01*
G01*
X580579D2*
D18*
X581028Y1880831D1*
X580043D2*
D19*
G03X582012Y1880831I984J0D01*
G01*
G03X580043Y1880831I-984J0D01*
G01*
X581028D2*
D18*
X581839Y1881949D1*
X580854D2*
D19*
G03X582823Y1881949I984J0D01*
G01*
G03X580854Y1881949I-984J0D01*
G01*
X581839D2*
D18*
X582661Y1882764D1*
X581677D2*
D19*
G03X583646Y1882764I984J0D01*
G01*
G03X581677Y1882764I-984J0D01*
G01*
X582661D2*
D18*
X583819Y1883579D1*
X582835D2*
D19*
G03X584803Y1883579I984J0D01*
G01*
G03X582835Y1883579I-984J0D01*
G01*
X583819D2*
D18*
X584713Y1884008D1*
X583728D2*
D19*
G03X585697Y1884008I984J0D01*
G01*
G03X583728Y1884008I-984J0D01*
G01*
X584713D2*
D18*
X585654Y1884319D1*
X584669D2*
D19*
G03X586638Y1884319I984J0D01*
G01*
G03X584669Y1884319I-984J0D01*
G01*
X585654D2*
D18*
X587075Y1884539D1*
X586091D2*
D19*
G03X588059Y1884539I984J0D01*
G01*
G03X586091Y1884539I-984J0D01*
G01*
X587075D2*
D18*
X588209Y1884528D1*
X587224D2*
D19*
G03X589193Y1884528I984J0D01*
G01*
G03X587224Y1884528I-984J0D01*
G01*
X588209D2*
D18*
X589571Y1884283D1*
X588587D2*
D19*
G03X590555Y1884283I984J0D01*
G01*
G03X588587Y1884283I-984J0D01*
G01*
X589571D2*
D18*
X590508Y1883957D1*
X589524D2*
D19*
G03X591492Y1883957I984J0D01*
G01*
G03X589524Y1883957I-984J0D01*
G01*
X590508D2*
D18*
X591508Y1883441D1*
X590524D2*
D19*
G03X592492Y1883441I984J0D01*
G01*
G03X590524Y1883441I-984J0D01*
G01*
X591508D2*
D18*
X592587Y1882630D1*
X591602D2*
D19*
G03X593571Y1882630I984J0D01*
G01*
G03X591602Y1882630I-984J0D01*
G01*
X592587D2*
D18*
X593307Y1881906D1*
X592323D2*
D19*
G03X594291Y1881906I984J0D01*
G01*
G03X592323Y1881906I-984J0D01*
G01*
X593307D2*
D18*
X594004Y1880945D1*
X593020D2*
D19*
G03X594988Y1880945I984J0D01*
G01*
G03X593020Y1880945I-984J0D01*
G01*
X594004D2*
D18*
X594567Y1879827D1*
X593583D2*
D19*
G03X595551Y1879827I984J0D01*
G01*
G03X593583Y1879827I-984J0D01*
G01*
X594567D2*
D18*
X594909Y1878756D1*
X593925D2*
D19*
G03X595894Y1878756I984J0D01*
G01*
G03X593925Y1878756I-984J0D01*
G01*
X594909D2*
D18*
X595106Y1877390D1*
X594122D2*
D19*
G03X596091Y1877390I984J0D01*
G01*
G03X594122Y1877390I-984J0D01*
G01*
X595106D2*
D18*
X595122Y1845492D1*
X594138D2*
D19*
G03X596106Y1845492I984J0D01*
G01*
G03X594138Y1845492I-984J0D01*
G01*
X595122D2*
D18*
X595114Y1806350D1*
X594130D2*
D19*
G03X596098Y1806350I984J0D01*
G01*
G03X594130Y1806350I-984J0D01*
G01*
X595114D2*
D18*
X594972Y1805169D1*
X593988D2*
D19*
G03X595957Y1805169I984J0D01*
G01*
G03X593988Y1805169I-984J0D01*
G01*
X594972D2*
D18*
X594650Y1804028D1*
X593665D2*
D19*
G03X595634Y1804028I984J0D01*
G01*
G03X593665Y1804028I-984J0D01*
G01*
X594650D2*
D18*
X594150Y1802949D1*
X593165D2*
D19*
G03X595134Y1802949I984J0D01*
G01*
G03X593165Y1802949I-984J0D01*
G01*
X594150D2*
D18*
X593492Y1801961D1*
X592508D2*
D19*
G03X594476Y1801961I984J0D01*
G01*
G03X592508Y1801961I-984J0D01*
G01*
X593492D2*
D18*
X592685Y1801091D1*
X591701D2*
D19*
G03X593669Y1801091I984J0D01*
G01*
G03X591701Y1801091I-984J0D01*
G01*
X592685D2*
D18*
X591748Y1800354D1*
X590764D2*
D19*
G03X592732Y1800354I984J0D01*
G01*
G03X590764Y1800354I-984J0D01*
G01*
X591748D2*
D18*
X590713Y1799776D1*
X589728D2*
D19*
G03X591697Y1799776I984J0D01*
G01*
G03X589728Y1799776I-984J0D01*
G01*
X590713D2*
D18*
X589598Y1799366D1*
X588614D2*
D19*
G03X590583Y1799366I984J0D01*
G01*
G03X588614Y1799366I-984J0D01*
G01*
X589598D2*
D18*
X588433Y1799138D1*
X587449D2*
D19*
G03X589417Y1799138I984J0D01*
G01*
G03X587449Y1799138I-984J0D01*
G01*
X588433D2*
D18*
X587248Y1799091D1*
X586264D2*
D19*
G03X588232Y1799091I984J0D01*
G01*
G03X586264Y1799091I-984J0D01*
G01*
X587248D2*
D18*
X586067Y1799232D1*
X585083D2*
D19*
G03X587051Y1799232I984J0D01*
G01*
G03X585083Y1799232I-984J0D01*
G01*
X586067D2*
D18*
X584925Y1799555D1*
X583941D2*
D19*
G03X585909Y1799555I984J0D01*
G01*
G03X583941Y1799555I-984J0D01*
G01*
X584925D2*
D18*
X583846Y1800055D1*
X582862D2*
D19*
G03X584831Y1800055I984J0D01*
G01*
G03X582862Y1800055I-984J0D01*
G01*
X583846D2*
D18*
X582858Y1800713D1*
X581874D2*
D19*
G03X583843Y1800713I984J0D01*
G01*
G03X581874Y1800713I-984J0D01*
G01*
X582858D2*
D18*
X581988Y1801520D1*
X581004D2*
D19*
G03X582972Y1801520I984J0D01*
G01*
G03X581004Y1801520I-984J0D01*
G01*
X581988D2*
D18*
X581252Y1802457D1*
X580268D2*
D19*
G03X582236Y1802457I984J0D01*
G01*
G03X580268Y1802457I-984J0D01*
G01*
X581252D2*
D18*
X548224Y1851992D1*
X547240D2*
D19*
G03X549209Y1851992I984J0D01*
G01*
G03X547240Y1851992I-984J0D01*
G01*
X548224D2*
D18*
X548197Y1805984D1*
X547213D2*
D19*
G03X549181Y1805984I984J0D01*
G01*
G03X547213Y1805984I-984J0D01*
G01*
X548197D2*
D18*
X547957Y1804630D1*
X546972D2*
D19*
G03X548941Y1804630I984J0D01*
G01*
G03X546972Y1804630I-984J0D01*
G01*
X547957D2*
D18*
X547630Y1803697D1*
X546646D2*
D19*
G03X548614Y1803697I984J0D01*
G01*
G03X546646Y1803697I-984J0D01*
G01*
X547630D2*
D18*
X547185Y1802811D1*
X546201D2*
D19*
G03X548169Y1802811I984J0D01*
G01*
G03X546201Y1802811I-984J0D01*
G01*
X547185D2*
D18*
X546370Y1801693D1*
X545386D2*
D19*
G03X547354Y1801693I984J0D01*
G01*
G03X545386Y1801693I-984J0D01*
G01*
X546370D2*
D18*
X545547Y1800878D1*
X544563D2*
D19*
G03X546531Y1800878I984J0D01*
G01*
G03X544563Y1800878I-984J0D01*
G01*
X545547D2*
D18*
X544390Y1800063D1*
X543406D2*
D19*
G03X545374Y1800063I984J0D01*
G01*
G03X543406Y1800063I-984J0D01*
G01*
X544390D2*
D18*
X543496Y1799634D1*
X542512D2*
D19*
G03X544480Y1799634I984J0D01*
G01*
G03X542512Y1799634I-984J0D01*
G01*
X543496D2*
D18*
X542555Y1799323D1*
X541571D2*
D19*
G03X543539Y1799323I984J0D01*
G01*
G03X541571Y1799323I-984J0D01*
G01*
X542555D2*
D18*
X541134Y1799102D1*
X540150D2*
D19*
G03X542118Y1799102I984J0D01*
G01*
G03X540150Y1799102I-984J0D01*
G01*
X541134D2*
D18*
X540000Y1799114D1*
X539016D2*
D19*
G03X540984Y1799114I984J0D01*
G01*
G03X539016Y1799114I-984J0D01*
G01*
X540000D2*
D18*
X538638Y1799358D1*
X537654D2*
D19*
G03X539622Y1799358I984J0D01*
G01*
G03X537654Y1799358I-984J0D01*
G01*
X538638D2*
D18*
X537701Y1799685D1*
X536717D2*
D19*
G03X538685Y1799685I984J0D01*
G01*
G03X536717Y1799685I-984J0D01*
G01*
X537701D2*
D18*
X536701Y1800201D1*
X535717D2*
D19*
G03X537685Y1800201I984J0D01*
G01*
G03X535717Y1800201I-984J0D01*
G01*
X536701D2*
D18*
X535614Y1801016D1*
X534630D2*
D19*
G03X536598Y1801016I984J0D01*
G01*
G03X534630Y1801016I-984J0D01*
G01*
X535614D2*
D18*
X534902Y1801736D1*
X533917D2*
D19*
G03X535886Y1801736I984J0D01*
G01*
G03X533917Y1801736I-984J0D01*
G01*
X534902D2*
D18*
X534205Y1802697D1*
X533220D2*
D19*
G03X535189Y1802697I984J0D01*
G01*
G03X533220Y1802697I-984J0D01*
G01*
X534205D2*
D18*
X533642Y1803815D1*
X532657D2*
D19*
G03X534626Y1803815I984J0D01*
G01*
G03X532657Y1803815I-984J0D01*
G01*
X533642D2*
D18*
X533299Y1804886D1*
X532315D2*
D19*
G03X534283Y1804886I984J0D01*
G01*
G03X532315Y1804886I-984J0D01*
G01*
X533299D2*
D18*
X533102Y1806252D1*
X532118D2*
D19*
G03X534087Y1806252I984J0D01*
G01*
G03X532118Y1806252I-984J0D01*
G01*
X533102D2*
D18*
X533087Y1838150D1*
X532102D2*
D19*
G03X534071Y1838150I984J0D01*
G01*
G03X532102Y1838150I-984J0D01*
G01*
X533087D2*
D18*
X533110Y1877583D1*
X532126D2*
D19*
G03X534094Y1877583I984J0D01*
G01*
G03X532126Y1877583I-984J0D01*
G01*
X533110D2*
D18*
X533299Y1878756D1*
X532315D2*
D19*
G03X534283Y1878756I984J0D01*
G01*
G03X532315Y1878756I-984J0D01*
G01*
X533299D2*
D18*
X533665Y1879886D1*
X532681D2*
D19*
G03X534650Y1879886I984J0D01*
G01*
G03X532681Y1879886I-984J0D01*
G01*
X533665D2*
D18*
X534205Y1880945D1*
X533220D2*
D19*
G03X535189Y1880945I984J0D01*
G01*
G03X533220Y1880945I-984J0D01*
G01*
X534205D2*
D18*
X534902Y1881906D1*
X533917D2*
D19*
G03X535886Y1881906I984J0D01*
G01*
G03X533917Y1881906I-984J0D01*
G01*
X534902D2*
D18*
X535740Y1882744D1*
X534756D2*
D19*
G03X536724Y1882744I984J0D01*
G01*
G03X534756Y1882744I-984J0D01*
G01*
X535740D2*
D18*
X536701Y1883441D1*
X535717D2*
D19*
G03X537685Y1883441I984J0D01*
G01*
G03X535717Y1883441I-984J0D01*
G01*
X536701D2*
D18*
X537760Y1883980D1*
X536776D2*
D19*
G03X538744Y1883980I984J0D01*
G01*
G03X536776Y1883980I-984J0D01*
G01*
X537760D2*
D18*
X538890Y1884346D1*
X537906D2*
D19*
G03X539874Y1884346I984J0D01*
G01*
G03X537906Y1884346I-984J0D01*
G01*
X538890D2*
D18*
X540063Y1884535D1*
X539079D2*
D19*
G03X541047Y1884535I984J0D01*
G01*
G03X539079Y1884535I-984J0D01*
G01*
X540063D2*
D18*
X541252D1*
X540268D2*
D19*
G03X542236Y1884535I984J0D01*
G01*
G03X540268Y1884535I-984J0D01*
G01*
X541252D2*
D18*
X542425Y1884346D1*
X541441D2*
D19*
G03X543409Y1884346I984J0D01*
G01*
G03X541441Y1884346I-984J0D01*
G01*
X542425D2*
D18*
X543555Y1883980D1*
X542571D2*
D19*
G03X544539Y1883980I984J0D01*
G01*
G03X542571Y1883980I-984J0D01*
G01*
X543555D2*
D18*
X544614Y1883441D1*
X543630D2*
D19*
G03X545598Y1883441I984J0D01*
G01*
G03X543630Y1883441I-984J0D01*
G01*
X544614D2*
D18*
X545575Y1882744D1*
X544591D2*
D19*
G03X546559Y1882744I984J0D01*
G01*
G03X544591Y1882744I-984J0D01*
G01*
X545575D2*
D18*
X546413Y1881906D1*
X545429D2*
D19*
G03X547398Y1881906I984J0D01*
G01*
G03X545429Y1881906I-984J0D01*
G01*
X546413D2*
D18*
X546783Y1881437D1*
X545799D2*
D19*
G03X547768Y1881437I984J0D01*
G01*
G03X545799Y1881437I-984J0D01*
G01*
X622287Y1957803D2*
D18*
X618209Y1949606D1*
X621303Y1957803D2*
D19*
G03X623272Y1957803I984J0D01*
G01*
G03X621303Y1957803I-984J0D01*
G01*
X617224Y1949606D2*
G03X619193Y1949606I984J0D01*
G01*
G03X617224Y1949606I-984J0D01*
G01*
X618209D2*
D18*
X616224Y1946197D1*
X615240D2*
D19*
G03X617209Y1946197I984J0D01*
G01*
G03X615240Y1946197I-984J0D01*
G01*
X616224D2*
D18*
X611358Y1938874D1*
X610374D2*
D19*
G03X612343Y1938874I984J0D01*
G01*
G03X610374Y1938874I-984J0D01*
G01*
X611358D2*
D18*
X609059Y1935677D1*
X608075D2*
D19*
G03X610043Y1935677I984J0D01*
G01*
G03X608075Y1935677I-984J0D01*
G01*
X609059D2*
D18*
X606780Y1932909D1*
X605795D2*
D19*
G03X607764Y1932909I984J0D01*
G01*
G03X605795Y1932909I-984J0D01*
G01*
X606780D2*
D18*
X600720Y1926051D1*
X599736D2*
D19*
G03X601705Y1926051I984J0D01*
G01*
G03X599736Y1926051I-984J0D01*
G01*
X600720D2*
D18*
X597921Y1923272D1*
X596937D2*
D19*
G03X598906Y1923272I984J0D01*
G01*
G03X596937Y1923272I-984J0D01*
G01*
X597921D2*
D18*
X590744Y1916957D1*
X589760D2*
D19*
G03X591728Y1916957I984J0D01*
G01*
G03X589760Y1916957I-984J0D01*
G01*
X590744D2*
D18*
X587665Y1914504D1*
X586681D2*
D19*
G03X588650Y1914504I984J0D01*
G01*
G03X586681Y1914504I-984J0D01*
G01*
X587665D2*
D18*
X583740Y1911799D1*
X582756D2*
D19*
G03X584724Y1911799I984J0D01*
G01*
G03X582756Y1911799I-984J0D01*
G01*
X583740D2*
D18*
X577728Y1907823D1*
X576744D2*
D19*
G03X578713Y1907823I984J0D01*
G01*
G03X576744Y1907823I-984J0D01*
G01*
X577728D2*
D18*
X574307Y1905862D1*
X573323D2*
D19*
G03X575291Y1905862I984J0D01*
G01*
G03X573323Y1905862I-984J0D01*
G01*
X574307D2*
D18*
X566429Y1901953D1*
X565445D2*
D19*
G03X567413Y1901953I984J0D01*
G01*
G03X565445Y1901953I-984J0D01*
G01*
X566429D2*
D18*
X562843Y1900335D1*
X561858D2*
D19*
G03X563827Y1900335I984J0D01*
G01*
G03X561858Y1900335I-984J0D01*
G01*
X562843D2*
D18*
X559484Y1899079D1*
X558500D2*
D19*
G03X560469Y1899079I984J0D01*
G01*
G03X558500Y1899079I-984J0D01*
G01*
X559484D2*
D18*
X550803Y1896169D1*
X549819D2*
D19*
G03X551787Y1896169I984J0D01*
G01*
G03X549819Y1896169I-984J0D01*
G01*
X550803D2*
D18*
X546992Y1895161D1*
X546008D2*
D19*
G03X547976Y1895161I984J0D01*
G01*
G03X546008Y1895161I-984J0D01*
G01*
X546992D2*
D18*
X538370Y1893421D1*
X537386D2*
D19*
G03X539354Y1893421I984J0D01*
G01*
G03X537386Y1893421I-984J0D01*
G01*
X538370D2*
D18*
X534484Y1892787D1*
X533500D2*
D19*
G03X535469Y1892787I984J0D01*
G01*
G03X533500Y1892787I-984J0D01*
G01*
X534484D2*
D18*
X530917Y1892445D1*
X529933D2*
D19*
G03X531902Y1892445I984J0D01*
G01*
G03X529933Y1892445I-984J0D01*
G01*
X530917D2*
D18*
X521780Y1891878D1*
X520795D2*
D19*
G03X522764Y1891878I984J0D01*
G01*
G03X520795Y1891878I-984J0D01*
G01*
X521780D2*
D18*
X517835Y1891890D1*
X516850D2*
D19*
G03X518819Y1891890I984J0D01*
G01*
G03X516850Y1891890I-984J0D01*
G01*
X517835D2*
D18*
X509059Y1892445D1*
X508075D2*
D19*
G03X510043Y1892445I984J0D01*
G01*
G03X508075Y1892445I-984J0D01*
G01*
X509059D2*
D18*
X505142Y1892839D1*
X504157D2*
D19*
G03X506126Y1892839I984J0D01*
G01*
G03X504157Y1892839I-984J0D01*
G01*
X505142D2*
D18*
X501606Y1893425D1*
X500622D2*
D19*
G03X502591Y1893425I984J0D01*
G01*
G03X500622Y1893425I-984J0D01*
G01*
X501606D2*
D18*
X492634Y1895248D1*
X491650D2*
D19*
G03X493618Y1895248I984J0D01*
G01*
G03X491650Y1895248I-984J0D01*
G01*
X492634D2*
D18*
X488831Y1896280D1*
X487846D2*
D19*
G03X489815Y1896280I984J0D01*
G01*
G03X487846Y1896280I-984J0D01*
G01*
X488831D2*
D18*
X480492Y1899087D1*
X479508D2*
D19*
G03X481476Y1899087I984J0D01*
G01*
G03X479508Y1899087I-984J0D01*
G01*
X480492D2*
D18*
X476811Y1900480D1*
X475827D2*
D19*
G03X477795Y1900480I984J0D01*
G01*
G03X475827Y1900480I-984J0D01*
G01*
X476811D2*
D18*
X473551Y1901965D1*
X472567D2*
D19*
G03X474535Y1901965I984J0D01*
G01*
G03X472567Y1901965I-984J0D01*
G01*
X473551D2*
D18*
X465354Y1906043D1*
X464370D2*
D19*
G03X466339Y1906043I984J0D01*
G01*
G03X464370Y1906043I-984J0D01*
G01*
X465354D2*
D18*
X461945Y1908028D1*
X460961D2*
D19*
G03X462929Y1908028I984J0D01*
G01*
G03X460961Y1908028I-984J0D01*
G01*
X461945D2*
D18*
X454622Y1912894D1*
X453638D2*
D19*
G03X455606Y1912894I984J0D01*
G01*
G03X453638Y1912894I-984J0D01*
G01*
X454622D2*
D18*
X451425Y1915193D1*
X450441D2*
D19*
G03X452409Y1915193I984J0D01*
G01*
X1413701Y520000D2*
D14*
G02X1413701Y520000I114173J0D01*
G01*
X452409Y1915193D2*
D19*
G03X450441Y1915193I-984J0D01*
G01*
X451425D2*
D18*
X448657Y1917472D1*
X447673D2*
D19*
G03X449642Y1917472I984J0D01*
G01*
G03X447673Y1917472I-984J0D01*
G01*
X448657D2*
D18*
X441799Y1923531D1*
X440815D2*
D19*
G03X442783Y1923531I984J0D01*
G01*
G03X440815Y1923531I-984J0D01*
G01*
X441799D2*
D18*
X439020Y1926331D1*
X438035D2*
D19*
G03X440004Y1926331I984J0D01*
G01*
G03X438035Y1926331I-984J0D01*
G01*
X439020D2*
D18*
X433205Y1932929D1*
X432220D2*
D19*
G03X434189Y1932929I984J0D01*
G01*
G03X432220Y1932929I-984J0D01*
G01*
X433205D2*
D18*
X430713Y1935976D1*
X429728D2*
D19*
G03X431697Y1935976I984J0D01*
G01*
G03X429728Y1935976I-984J0D01*
G01*
X430713D2*
D18*
X428630Y1938894D1*
X427646D2*
D19*
G03X429614Y1938894I984J0D01*
G01*
G03X427646Y1938894I-984J0D01*
G01*
X428630D2*
D18*
X423571Y1946524D1*
X422587D2*
D19*
G03X424555Y1946524I984J0D01*
G01*
G03X422587Y1946524I-984J0D01*
G01*
X423571D2*
D18*
X421610Y1949945D1*
X420626D2*
D19*
G03X422594Y1949945I984J0D01*
G01*
G03X420626Y1949945I-984J0D01*
G01*
X421610D2*
D18*
X417701Y1957823D1*
X416717D2*
D19*
G03X418685Y1957823I984J0D01*
G01*
G03X416717Y1957823I-984J0D01*
G01*
X417701D2*
D18*
X416083Y1961409D1*
X415098D2*
D19*
G03X417067Y1961409I984J0D01*
G01*
G03X415098Y1961409I-984J0D01*
G01*
X416083D2*
D18*
X414827Y1964768D1*
X413843D2*
D19*
G03X415811Y1964768I984J0D01*
G01*
G03X413843Y1964768I-984J0D01*
G01*
X414827D2*
D18*
X411913Y1973457D1*
X410929D2*
D19*
G03X412898Y1973457I984J0D01*
G01*
G03X410929Y1973457I-984J0D01*
G01*
X411913D2*
D18*
X411732Y1972756D1*
X410748D2*
D19*
G03X412717Y1972756I984J0D01*
G01*
G03X410748Y1972756I-984J0D01*
G01*
X411732D2*
D18*
Y1789693D1*
X410748D2*
D19*
G03X412717Y1789693I984J0D01*
G01*
G03X410748Y1789693I-984J0D01*
G01*
X411732D2*
D18*
X628260Y1789685D1*
X627276D2*
D19*
G03X629244Y1789685I984J0D01*
G01*
G03X627276Y1789685I-984J0D01*
G01*
X628260D2*
D18*
X628268Y1974071D1*
X627283D2*
D19*
G03X629252Y1974071I984J0D01*
G01*
G03X627283Y1974071I-984J0D01*
G01*
X628268D2*
D18*
X626850Y1969709D1*
X625866D2*
D19*
G03X627835Y1969709I984J0D01*
G01*
G03X625866Y1969709I-984J0D01*
G01*
X626850D2*
D18*
X624500Y1962894D1*
X623516D2*
D19*
G03X625484Y1962894I984J0D01*
G01*
G03X623516Y1962894I-984J0D01*
G01*
X624500D2*
D18*
X622980Y1959256D1*
X621996D2*
D19*
G03X623965Y1959256I984J0D01*
G01*
G03X621996Y1959256I-984J0D01*
G01*
X1420004Y1964094D2*
D18*
X1421205D1*
X1634547D2*
X1635744D1*
X1420004Y1960287D2*
X1422496D1*
X1633256D2*
X1635740D1*
X1420004Y1956484D2*
X1423984D1*
X1631764D2*
X1635744D1*
X1420004Y1952677D2*
X1425776D1*
X1629972D2*
X1635744D1*
X1420004Y1948870D2*
X1427654D1*
X1628094D2*
X1635744D1*
X1420004Y1945067D2*
X1429598D1*
X1626150D2*
X1635744D1*
X1420004Y1941260D2*
X1431898D1*
X1623850D2*
X1635744D1*
X1420004Y1937453D2*
X1434441D1*
X1621307D2*
X1635744D1*
X1420004Y1933650D2*
X1437012D1*
X1618736D2*
X1635744D1*
X1420004Y1929843D2*
X1439957D1*
X1615791D2*
X1635744D1*
X1420004Y1926035D2*
X1443276D1*
X1612472D2*
X1635744D1*
X1420004Y1922232D2*
X1446654D1*
X1609094D2*
X1635744D1*
X1420004Y1918425D2*
X1450567D1*
X1605181D2*
X1635744D1*
X1420004Y1914618D2*
X1454902D1*
X1600846D2*
X1635744D1*
X1420004Y1910815D2*
X1459484D1*
X1596264D2*
X1635744D1*
X1420004Y1907008D2*
X1465024D1*
X1590724D2*
X1635744D1*
X1420004Y1903201D2*
X1470882D1*
X1584866D2*
X1635744D1*
X1420004Y1899398D2*
X1478256D1*
X1577492D2*
X1635744D1*
X1420004Y1895591D2*
X1486720D1*
X1569028D2*
X1635744D1*
X1420004Y1891783D2*
X1498232D1*
X1557516D2*
X1635744D1*
X1420004Y1887980D2*
X1524740D1*
X1531008D2*
X1635744D1*
X1420004Y1884173D2*
X1635744D1*
X1420004Y1880366D2*
X1635744D1*
X1420004Y1876563D2*
X1534720D1*
X1547571D2*
X1635744D1*
X1420004Y1872756D2*
X1532551D1*
X1557567D2*
X1635744D1*
X1420004Y1868949D2*
X1532665D1*
X1567571D2*
X1635744D1*
X1420004Y1865146D2*
X1535228D1*
X1577567D2*
X1635744D1*
X1420004Y1861339D2*
X1544224D1*
X1587571D2*
X1635744D1*
X1420004Y1857531D2*
X1554220D1*
X1597571D2*
X1635744D1*
X1420004Y1853728D2*
X1564224D1*
X1607567D2*
X1635744D1*
X1420004Y1849921D2*
X1574220D1*
X1616122D2*
X1635744D1*
X1420004Y1846114D2*
X1584224D1*
X1618409D2*
X1635744D1*
X1420004Y1842311D2*
X1583764D1*
X1618362D2*
X1635744D1*
X1518421Y1838504D2*
X1573768D1*
X1615933D2*
X1635744D1*
X1518421Y1834697D2*
X1563772D1*
X1607110D2*
X1635744D1*
X1518421Y1830894D2*
X1553768D1*
X1597114D2*
X1635744D1*
X1518421Y1827087D2*
X1543772D1*
X1587110D2*
X1635744D1*
X1518421Y1823280D2*
X1535012D1*
X1577114D2*
X1635744D1*
X1518421Y1819476D2*
X1532622D1*
X1567118D2*
X1635744D1*
X1518421Y1815669D2*
X1532598D1*
X1557114D2*
X1635744D1*
X1518421Y1811862D2*
X1534913D1*
X1547118D2*
X1635744D1*
X1518421Y1808059D2*
X1635744D1*
X1518421Y1804252D2*
X1635744D1*
X1518421Y1800445D2*
X1533874D1*
X1617114D2*
X1635744D1*
X1518421Y1796642D2*
X1532398D1*
X1618591D2*
X1635744D1*
X1518421Y1792835D2*
X1533020D1*
X1617976D2*
X1635744D1*
X1518421Y1789028D2*
X1536780D1*
X1614217D2*
X1635744D1*
X1518421Y1785224D2*
X1565870D1*
X1581791D2*
X1635744D1*
X1518421Y1781417D2*
X1565870D1*
X1581791D2*
X1635744D1*
X1518421Y1777610D2*
X1565870D1*
X1581791D2*
X1635744D1*
X1518421Y1773807D2*
X1565870D1*
X1581791D2*
X1635744D1*
X1518421Y1770000D2*
X1565870D1*
X1581791D2*
X1635744D1*
X1518421Y1766193D2*
X1565870D1*
X1581791D2*
X1635744D1*
X1518421Y1762390D2*
X1565870D1*
X1581791D2*
X1635744D1*
X1518421Y1758583D2*
X1565870D1*
X1581791D2*
X1635744D1*
X1518421Y1754776D2*
X1535020D1*
X1615969D2*
X1635744D1*
X1518421Y1750972D2*
X1532622D1*
X1618370D2*
X1635744D1*
X1518421Y1747165D2*
X1532598D1*
X1618402D2*
X1635744D1*
X1518421Y1743358D2*
X1534906D1*
X1616087D2*
X1635744D1*
X1518421Y1739555D2*
X1635744D1*
X1518421Y1735748D2*
X1635744D1*
X1518421Y1731941D2*
X1635744D1*
X1518421Y1728138D2*
X1635744D1*
X1518421Y1724331D2*
X1635744D1*
X1518421Y1720524D2*
X1635744D1*
X1533500Y1752276D2*
X1534205Y1753469D1*
X1532516Y1752276D2*
D19*
G03X1534484Y1752276I984J0D01*
G01*
G03X1532516Y1752276I-984J0D01*
G01*
X1533220Y1753469D2*
G03X1535189Y1753469I984J0D01*
G01*
G03X1533220Y1753469I-984J0D01*
G01*
X1534205D2*
D18*
X1534705Y1754079D1*
X1533720D2*
D19*
G03X1535689Y1754079I984J0D01*
G01*
G03X1533720Y1754079I-984J0D01*
G01*
X1534705D2*
D18*
X1536370Y1755472D1*
X1535386D2*
D19*
G03X1537354Y1755472I984J0D01*
G01*
G03X1535386Y1755472I-984J0D01*
G01*
X1536370D2*
D18*
X1537492Y1756035D1*
X1536508D2*
D19*
G03X1538476Y1756035I984J0D01*
G01*
G03X1536508Y1756035I-984J0D01*
G01*
X1537492D2*
D18*
X1538559Y1756378D1*
X1537575D2*
D19*
G03X1539543Y1756378I984J0D01*
G01*
G03X1537575Y1756378I-984J0D01*
G01*
X1538559D2*
D18*
X1539925Y1756571D1*
X1538941D2*
D19*
G03X1540909Y1756571I984J0D01*
G01*
G03X1538941Y1756571I-984J0D01*
G01*
X1539925D2*
D18*
X1566264Y1756591D1*
X1565280D2*
D19*
G03X1567248Y1756591I984J0D01*
G01*
G03X1565280Y1756591I-984J0D01*
G01*
X1566264D2*
D18*
X1566260Y1788335D1*
X1565276D2*
D19*
G03X1567244Y1788335I984J0D01*
G01*
G03X1565276Y1788335I-984J0D01*
G01*
X1566260D2*
D18*
X1539732Y1788362D1*
X1538748D2*
D19*
G03X1540717Y1788362I984J0D01*
G01*
G03X1538748Y1788362I-984J0D01*
G01*
X1539732D2*
D18*
X1538559Y1788551D1*
X1537575D2*
D19*
G03X1539543Y1788551I984J0D01*
G01*
G03X1537575Y1788551I-984J0D01*
G01*
X1538559D2*
D18*
X1537429Y1788917D1*
X1536445D2*
D19*
G03X1538413Y1788917I984J0D01*
G01*
G03X1536445Y1788917I-984J0D01*
G01*
X1537429D2*
D18*
X1536370Y1789457D1*
X1535386D2*
D19*
G03X1537354Y1789457I984J0D01*
G01*
G03X1535386Y1789457I-984J0D01*
G01*
X1536370D2*
D18*
X1535264Y1790291D1*
X1534280D2*
D19*
G03X1536248Y1790291I984J0D01*
G01*
G03X1534280Y1790291I-984J0D01*
G01*
X1535264D2*
D18*
X1534205Y1791461D1*
X1533220D2*
D19*
G03X1535189Y1791461I984J0D01*
G01*
G03X1533220Y1791461I-984J0D01*
G01*
X1534205D2*
D18*
X1533504Y1792650D1*
X1532520D2*
D19*
G03X1534488Y1792650I984J0D01*
G01*
G03X1532520Y1792650I-984J0D01*
G01*
X1533504D2*
D18*
X1532969Y1794142D1*
X1531984D2*
D19*
G03X1533953Y1794142I984J0D01*
G01*
G03X1531984Y1794142I-984J0D01*
G01*
X1532969D2*
D18*
X1532772Y1795512D1*
X1531787D2*
D19*
G03X1533756Y1795512I984J0D01*
G01*
G03X1531787Y1795512I-984J0D01*
G01*
X1532772D2*
D18*
X1532850Y1797094D1*
X1531866D2*
D19*
G03X1533835Y1797094I984J0D01*
G01*
G03X1531866Y1797094I-984J0D01*
G01*
X1532850D2*
D18*
X1533197Y1798429D1*
X1532213D2*
D19*
G03X1534181Y1798429I984J0D01*
G01*
G03X1532213Y1798429I-984J0D01*
G01*
X1533197D2*
D18*
X1533874Y1799866D1*
X1532890D2*
D19*
G03X1534858Y1799866I984J0D01*
G01*
G03X1532890Y1799866I-984J0D01*
G01*
X1533874D2*
D18*
X1534705Y1800969D1*
X1533720D2*
D19*
G03X1535689Y1800969I984J0D01*
G01*
G03X1533720Y1800969I-984J0D01*
G01*
X1534705D2*
D18*
X1535878Y1802031D1*
X1534894D2*
D19*
G03X1536862Y1802031I984J0D01*
G01*
G03X1534894Y1802031I-984J0D01*
G01*
X1535878D2*
D18*
X1536890Y1802654D1*
X1535906D2*
D19*
G03X1537874Y1802654I984J0D01*
G01*
G03X1535906Y1802654I-984J0D01*
G01*
X1536890D2*
D18*
X1537988Y1803106D1*
X1537004D2*
D19*
G03X1538972Y1803106I984J0D01*
G01*
G03X1537004Y1803106I-984J0D01*
G01*
X1537988D2*
D18*
X1539142Y1803386D1*
X1538157D2*
D19*
G03X1540126Y1803386I984J0D01*
G01*
G03X1538157Y1803386I-984J0D01*
G01*
X1539142D2*
D18*
X1540327Y1803480D1*
X1539343D2*
D19*
G03X1541311Y1803480I984J0D01*
G01*
G03X1539343Y1803480I-984J0D01*
G01*
X1540327D2*
D18*
X1611323Y1803449D1*
X1610339D2*
D19*
G03X1612307Y1803449I984J0D01*
G01*
G03X1610339Y1803449I-984J0D01*
G01*
X1611323D2*
D18*
X1612685Y1803205D1*
X1611701D2*
D19*
G03X1613669Y1803205I984J0D01*
G01*
G03X1611701Y1803205I-984J0D01*
G01*
X1612685D2*
D18*
X1613622Y1802878D1*
X1612638D2*
D19*
G03X1614606Y1802878I984J0D01*
G01*
G03X1612638Y1802878I-984J0D01*
G01*
X1613622D2*
D18*
X1614622Y1802362D1*
X1613638D2*
D19*
G03X1615606Y1802362I984J0D01*
G01*
G03X1613638Y1802362I-984J0D01*
G01*
X1614622D2*
D18*
X1615709Y1801547D1*
X1614724D2*
D19*
G03X1616693Y1801547I984J0D01*
G01*
G03X1614724Y1801547I-984J0D01*
G01*
X1615709D2*
D18*
X1616421Y1800827D1*
X1615437D2*
D19*
G03X1617406Y1800827I984J0D01*
G01*
G03X1615437Y1800827I-984J0D01*
G01*
X1616421D2*
D18*
X1617118Y1799866D1*
X1616134D2*
D19*
G03X1618102Y1799866I984J0D01*
G01*
G03X1616134Y1799866I-984J0D01*
G01*
X1617118D2*
D18*
X1617252Y1799638D1*
X1616268D2*
D19*
G03X1618236Y1799638I984J0D01*
G01*
G03X1616268Y1799638I-984J0D01*
G01*
X1617252D2*
D18*
X1617862Y1798248D1*
X1616878D2*
D19*
G03X1618846Y1798248I984J0D01*
G01*
G03X1616878Y1798248I-984J0D01*
G01*
X1617862D2*
D18*
X1618142Y1797094D1*
X1617157D2*
D19*
G03X1619126Y1797094I984J0D01*
G01*
G03X1617157Y1797094I-984J0D01*
G01*
X1618142D2*
D18*
X1618236Y1795909D1*
X1617252D2*
D19*
G03X1619220Y1795909I984J0D01*
G01*
G03X1617252Y1795909I-984J0D01*
G01*
X1618236D2*
D18*
X1618142Y1794724D1*
X1617157D2*
D19*
G03X1619126Y1794724I984J0D01*
G01*
G03X1617157Y1794724I-984J0D01*
G01*
X1618142D2*
D18*
X1617795Y1793386D1*
X1616811D2*
D19*
G03X1618780Y1793386I984J0D01*
G01*
G03X1616811Y1793386I-984J0D01*
G01*
X1617795D2*
D18*
X1617409Y1792472D1*
X1616425D2*
D19*
G03X1618394Y1792472I984J0D01*
G01*
G03X1616425Y1792472I-984J0D01*
G01*
X1617409D2*
D18*
X1616787Y1791461D1*
X1615803D2*
D19*
G03X1617772Y1791461I984J0D01*
G01*
G03X1615803Y1791461I-984J0D01*
G01*
X1616787D2*
D18*
X1615969Y1790512D1*
X1614984D2*
D19*
G03X1616953Y1790512I984J0D01*
G01*
G03X1614984Y1790512I-984J0D01*
G01*
X1615969D2*
D18*
X1615114Y1789787D1*
X1614130D2*
D19*
G03X1616098Y1789787I984J0D01*
G01*
G03X1614130Y1789787I-984J0D01*
G01*
X1615114D2*
D18*
X1613961Y1789098D1*
X1612976D2*
D19*
G03X1614945Y1789098I984J0D01*
G01*
G03X1612976Y1789098I-984J0D01*
G01*
X1613961D2*
D18*
X1612937Y1788693D1*
X1611953D2*
D19*
G03X1613921Y1788693I984J0D01*
G01*
G03X1611953Y1788693I-984J0D01*
G01*
X1612937D2*
D18*
X1611587Y1788394D1*
X1610602D2*
D19*
G03X1612571Y1788394I984J0D01*
G01*
G03X1610602Y1788394I-984J0D01*
G01*
X1611587D2*
D18*
X1610598Y1788339D1*
X1609614D2*
D19*
G03X1611583Y1788339I984J0D01*
G01*
G03X1609614Y1788339I-984J0D01*
G01*
X1610598D2*
D18*
X1581406D1*
X1580421D2*
D19*
G03X1582390Y1788339I984J0D01*
G01*
G03X1580421Y1788339I-984J0D01*
G01*
X1581406D2*
D18*
X1581398Y1756591D1*
X1580413D2*
D19*
G03X1582382Y1756591I984J0D01*
G01*
G03X1580413Y1756591I-984J0D01*
G01*
X1581398D2*
D18*
X1611323Y1756559D1*
X1610339D2*
D19*
G03X1612307Y1756559I984J0D01*
G01*
G03X1610339Y1756559I-984J0D01*
G01*
X1611323D2*
D18*
X1613004Y1756217D1*
X1612020D2*
D19*
G03X1613988Y1756217I984J0D01*
G01*
G03X1612020Y1756217I-984J0D01*
G01*
X1613004D2*
D18*
X1614102Y1755764D1*
X1613118D2*
D19*
G03X1615087Y1755764I984J0D01*
G01*
G03X1613118Y1755764I-984J0D01*
G01*
X1614102D2*
D18*
X1615114Y1755142D1*
X1614130D2*
D19*
G03X1616098Y1755142I984J0D01*
G01*
G03X1614130Y1755142I-984J0D01*
G01*
X1615114D2*
D18*
X1616063Y1754327D1*
X1615079D2*
D19*
G03X1617047Y1754327I984J0D01*
G01*
G03X1615079Y1754327I-984J0D01*
G01*
X1616063D2*
D18*
X1616787Y1753469D1*
X1615803D2*
D19*
G03X1617772Y1753469I984J0D01*
G01*
G03X1615803Y1753469I-984J0D01*
G01*
X1616787D2*
D18*
X1617484Y1752287D1*
X1616500D2*
D19*
G03X1618469Y1752287I984J0D01*
G01*
G03X1616500Y1752287I-984J0D01*
G01*
X1617484D2*
D18*
X1617862Y1751358D1*
X1616878D2*
D19*
G03X1618846Y1751358I984J0D01*
G01*
G03X1616878Y1751358I-984J0D01*
G01*
X1617862D2*
D18*
X1618142Y1750205D1*
X1617157D2*
D19*
G03X1619126Y1750205I984J0D01*
G01*
G03X1617157Y1750205I-984J0D01*
G01*
X1618142D2*
D18*
X1618217Y1749421D1*
X1617232D2*
D19*
G03X1619201Y1749421I984J0D01*
G01*
G03X1617232Y1749421I-984J0D01*
G01*
X1618217D2*
D18*
X1617992Y1750917D1*
X1617008D2*
D19*
G03X1618976Y1750917I984J0D01*
G01*
G03X1617008Y1750917I-984J0D01*
G01*
X1617992D2*
D18*
X1618213Y1748425D1*
X1617228D2*
D19*
G03X1619197Y1748425I984J0D01*
G01*
G03X1617228Y1748425I-984J0D01*
G01*
X1618213D2*
D18*
X1618024Y1747252D1*
X1617039D2*
D19*
G03X1619008Y1747252I984J0D01*
G01*
G03X1617039Y1747252I-984J0D01*
G01*
X1618024D2*
D18*
X1617634Y1746063D1*
X1616650D2*
D19*
G03X1618618Y1746063I984J0D01*
G01*
G03X1616650Y1746063I-984J0D01*
G01*
X1617634D2*
D18*
X1617118Y1745063D1*
X1616134D2*
D19*
G03X1618102Y1745063I984J0D01*
G01*
G03X1616134Y1745063I-984J0D01*
G01*
X1617118D2*
D18*
X1616299Y1743972D1*
X1615315D2*
D19*
G03X1617283Y1743972I984J0D01*
G01*
G03X1615315Y1743972I-984J0D01*
G01*
X1616299D2*
D18*
X1615583Y1743264D1*
X1614598D2*
D19*
G03X1616567Y1743264I984J0D01*
G01*
G03X1614598Y1743264I-984J0D01*
G01*
X1615583D2*
D18*
X1614622Y1742567D1*
X1613638D2*
D19*
G03X1615606Y1742567I984J0D01*
G01*
G03X1613638Y1742567I-984J0D01*
G01*
X1614622D2*
D18*
X1613500Y1742000D1*
X1612516D2*
D19*
G03X1614484Y1742000I984J0D01*
G01*
G03X1612516Y1742000I-984J0D01*
G01*
X1613500D2*
D18*
X1612559Y1741689D1*
X1611575D2*
D19*
G03X1613543Y1741689I984J0D01*
G01*
G03X1611575Y1741689I-984J0D01*
G01*
X1612559D2*
D18*
X1611142Y1741469D1*
X1610157D2*
D19*
G03X1612126Y1741469I984J0D01*
G01*
G03X1610157Y1741469I-984J0D01*
G01*
X1611142D2*
D18*
X1592949Y1741449D1*
X1591965D2*
D19*
G03X1593933Y1741449I984J0D01*
G01*
G03X1591965Y1741449I-984J0D01*
G01*
X1592949D2*
D18*
X1539732Y1741472D1*
X1538748D2*
D19*
G03X1540717Y1741472I984J0D01*
G01*
G03X1538748Y1741472I-984J0D01*
G01*
X1539732D2*
D18*
X1538559Y1741661D1*
X1537575D2*
D19*
G03X1539543Y1741661I984J0D01*
G01*
G03X1537575Y1741661I-984J0D01*
G01*
X1538559D2*
D18*
X1537807Y1741890D1*
X1536823D2*
D19*
G03X1538791Y1741890I984J0D01*
G01*
G03X1536823Y1741890I-984J0D01*
G01*
X1537807D2*
D18*
X1536370Y1742567D1*
X1535386D2*
D19*
G03X1537354Y1742567I984J0D01*
G01*
G03X1535386Y1742567I-984J0D01*
G01*
X1536370D2*
D18*
X1535268Y1743394D1*
X1534283D2*
D19*
G03X1536252Y1743394I984J0D01*
G01*
G03X1534283Y1743394I-984J0D01*
G01*
X1535268D2*
D18*
X1534205Y1744571D1*
X1533220D2*
D19*
G03X1535189Y1744571I984J0D01*
G01*
G03X1533220Y1744571I-984J0D01*
G01*
X1534205D2*
D18*
X1533504Y1745760D1*
X1532520D2*
D19*
G03X1534488Y1745760I984J0D01*
G01*
G03X1532520Y1745760I-984J0D01*
G01*
X1533504D2*
D18*
X1532969Y1747252D1*
X1531984D2*
D19*
G03X1533953Y1747252I984J0D01*
G01*
G03X1531984Y1747252I-984J0D01*
G01*
X1532969D2*
D18*
X1532772Y1748622D1*
X1531787D2*
D19*
G03X1533756Y1748622I984J0D01*
G01*
G03X1531787Y1748622I-984J0D01*
G01*
X1532772D2*
D18*
X1532850Y1750205D1*
X1531866D2*
D19*
G03X1533835Y1750205I984J0D01*
G01*
G03X1531866Y1750205I-984J0D01*
G01*
X1532850D2*
D18*
X1533197Y1751539D1*
X1532213D2*
D19*
G03X1534181Y1751539I984J0D01*
G01*
G03X1532213Y1751539I-984J0D01*
G01*
X1611720Y1741524D2*
D18*
X1615220Y1742972D1*
X1610736Y1741524D2*
D19*
G03X1612705Y1741524I984J0D01*
G01*
G03X1610736Y1741524I-984J0D01*
G01*
X1614236Y1742972D2*
G03X1616205Y1742972I984J0D01*
G01*
G03X1614236Y1742972I-984J0D01*
G01*
X1615220D2*
D18*
X1614394Y1742429D1*
X1613409D2*
D19*
G03X1615378Y1742429I984J0D01*
G01*
G03X1613409Y1742429I-984J0D01*
G01*
X1614394D2*
D18*
X1616630Y1744358D1*
X1615646D2*
D19*
G03X1617614Y1744358I984J0D01*
G01*
G03X1615646Y1744358I-984J0D01*
G01*
X1616630D2*
D18*
X1617185Y1745177D1*
X1616201D2*
D19*
G03X1618169Y1745177I984J0D01*
G01*
G03X1616201Y1745177I-984J0D01*
G01*
X1617252Y1752752D2*
D18*
X1616709Y1753575D1*
X1616268Y1752752D2*
D19*
G03X1618236Y1752752I984J0D01*
G01*
G03X1616268Y1752752I-984J0D01*
G01*
X1615724Y1753575D2*
G03X1617693Y1753575I984J0D01*
G01*
G03X1615724Y1753575I-984J0D01*
G01*
X1616709D2*
D18*
X1614504Y1755543D1*
X1613520D2*
D19*
G03X1615488Y1755543I984J0D01*
G01*
G03X1613520Y1755543I-984J0D01*
G01*
X1614504D2*
D18*
X1615323Y1754984D1*
X1614339D2*
D19*
G03X1616307Y1754984I984J0D01*
G01*
G03X1614339Y1754984I-984J0D01*
G01*
X1615323D2*
D18*
X1612555Y1756350D1*
X1611571D2*
D19*
G03X1613539Y1756350I984J0D01*
G01*
G03X1611571Y1756350I-984J0D01*
G01*
X1539472Y1825303D2*
D18*
X1589386Y1844299D1*
X1538488Y1825303D2*
D19*
G03X1540457Y1825303I984J0D01*
G01*
G03X1538488Y1825303I-984J0D01*
G01*
X1588402Y1844299D2*
G03X1590370Y1844299I984J0D01*
G01*
G03X1588402Y1844299I-984J0D01*
G01*
X1589386D2*
D18*
X1537087Y1864228D1*
X1536102D2*
D19*
G03X1538071Y1864228I984J0D01*
G01*
G03X1536102Y1864228I-984J0D01*
G01*
X1537087D2*
D18*
X1536059Y1864823D1*
X1535075D2*
D19*
G03X1537043Y1864823I984J0D01*
G01*
G03X1535075Y1864823I-984J0D01*
G01*
X1536059D2*
D18*
X1535134Y1865567D1*
X1534150D2*
D19*
G03X1536118Y1865567I984J0D01*
G01*
G03X1534150Y1865567I-984J0D01*
G01*
X1535134D2*
D18*
X1534335Y1866445D1*
X1533350D2*
D19*
G03X1535319Y1866445I984J0D01*
G01*
G03X1533350Y1866445I-984J0D01*
G01*
X1534335D2*
D18*
X1533685Y1867441D1*
X1532701D2*
D19*
G03X1534669Y1867441I984J0D01*
G01*
G03X1532701Y1867441I-984J0D01*
G01*
X1533685D2*
D18*
X1533201Y1868524D1*
X1532217D2*
D19*
G03X1534185Y1868524I984J0D01*
G01*
G03X1532217Y1868524I-984J0D01*
G01*
X1533201D2*
D18*
X1532890Y1869669D1*
X1531906D2*
D19*
G03X1533874Y1869669I984J0D01*
G01*
G03X1531906Y1869669I-984J0D01*
G01*
X1532890D2*
D18*
X1532760Y1870850D1*
X1531776D2*
D19*
G03X1533744Y1870850I984J0D01*
G01*
G03X1531776Y1870850I-984J0D01*
G01*
X1532760D2*
D18*
X1532819Y1872039D1*
X1531835D2*
D19*
G03X1533803Y1872039I984J0D01*
G01*
G03X1531835Y1872039I-984J0D01*
G01*
X1532819D2*
D18*
X1533063Y1873201D1*
X1532079D2*
D19*
G03X1534047Y1873201I984J0D01*
G01*
G03X1532079Y1873201I-984J0D01*
G01*
X1533063D2*
D18*
X1533484Y1874311D1*
X1532500D2*
D19*
G03X1534469Y1874311I984J0D01*
G01*
G03X1532500Y1874311I-984J0D01*
G01*
X1533484D2*
D18*
X1534079Y1875339D1*
X1533094D2*
D19*
G03X1535063Y1875339I984J0D01*
G01*
G03X1533094Y1875339I-984J0D01*
G01*
X1534079D2*
D18*
X1534823Y1876264D1*
X1533839D2*
D19*
G03X1535807Y1876264I984J0D01*
G01*
G03X1533839Y1876264I-984J0D01*
G01*
X1534823D2*
D18*
X1535701Y1877063D1*
X1534717D2*
D19*
G03X1536685Y1877063I984J0D01*
G01*
G03X1534717Y1877063I-984J0D01*
G01*
X1535701D2*
D18*
X1536697Y1877713D1*
X1535713D2*
D19*
G03X1537681Y1877713I984J0D01*
G01*
G03X1535713Y1877713I-984J0D01*
G01*
X1536697D2*
D18*
X1537780Y1878197D1*
X1536795D2*
D19*
G03X1538764Y1878197I984J0D01*
G01*
G03X1536795Y1878197I-984J0D01*
G01*
X1537780D2*
D18*
X1538925Y1878508D1*
X1537941D2*
D19*
G03X1539909Y1878508I984J0D01*
G01*
G03X1537941Y1878508I-984J0D01*
G01*
X1538925D2*
D18*
X1540106Y1878638D1*
X1539122D2*
D19*
G03X1541091Y1878638I984J0D01*
G01*
G03X1539122Y1878638I-984J0D01*
G01*
X1540106D2*
D18*
X1541295Y1878579D1*
X1540311D2*
D19*
G03X1542280Y1878579I984J0D01*
G01*
G03X1540311Y1878579I-984J0D01*
G01*
X1541295D2*
D18*
X1542457Y1878335D1*
X1541472D2*
D19*
G03X1543441Y1878335I984J0D01*
G01*
G03X1541472Y1878335I-984J0D01*
G01*
X1542457D2*
D18*
X1554059Y1873945D1*
X1553075D2*
D19*
G03X1555043Y1873945I984J0D01*
G01*
G03X1553075Y1873945I-984J0D01*
G01*
X1554059D2*
D18*
X1613906Y1851142D1*
X1612921D2*
D19*
G03X1614890Y1851142I984J0D01*
G01*
G03X1612921Y1851142I-984J0D01*
G01*
X1613906D2*
D18*
X1614933Y1850547D1*
X1613949D2*
D19*
G03X1615917Y1850547I984J0D01*
G01*
G03X1613949Y1850547I-984J0D01*
G01*
X1614933D2*
D18*
X1615858Y1849803D1*
X1614874D2*
D19*
G03X1616843Y1849803I984J0D01*
G01*
G03X1614874Y1849803I-984J0D01*
G01*
X1615858D2*
D18*
X1616657Y1848925D1*
X1615673D2*
D19*
G03X1617642Y1848925I984J0D01*
G01*
G03X1615673Y1848925I-984J0D01*
G01*
X1616657D2*
D18*
X1617307Y1847929D1*
X1616323D2*
D19*
G03X1618291Y1847929I984J0D01*
G01*
G03X1616323Y1847929I-984J0D01*
G01*
X1617307D2*
D18*
X1617791Y1846846D1*
X1616807D2*
D19*
G03X1618776Y1846846I984J0D01*
G01*
G03X1616807Y1846846I-984J0D01*
G01*
X1617791D2*
D18*
X1618102Y1845701D1*
X1617118D2*
D19*
G03X1619087Y1845701I984J0D01*
G01*
G03X1617118Y1845701I-984J0D01*
G01*
X1618102D2*
D18*
X1618232Y1844520D1*
X1617248D2*
D19*
G03X1619217Y1844520I984J0D01*
G01*
G03X1617248Y1844520I-984J0D01*
G01*
X1618232D2*
D18*
X1618173Y1843331D1*
X1617189D2*
D19*
G03X1619157Y1843331I984J0D01*
G01*
G03X1617189Y1843331I-984J0D01*
G01*
X1618173D2*
D18*
X1617929Y1842169D1*
X1616945D2*
D19*
G03X1618913Y1842169I984J0D01*
G01*
G03X1616945Y1842169I-984J0D01*
G01*
X1617929D2*
D18*
X1617508Y1841059D1*
X1616524D2*
D19*
G03X1618492Y1841059I984J0D01*
G01*
G03X1616524Y1841059I-984J0D01*
G01*
X1617508D2*
D18*
X1616913Y1840031D1*
X1615929D2*
D19*
G03X1617898Y1840031I984J0D01*
G01*
G03X1615929Y1840031I-984J0D01*
G01*
X1616913D2*
D18*
X1616169Y1839106D1*
X1615185D2*
D19*
G03X1617154Y1839106I984J0D01*
G01*
G03X1615185Y1839106I-984J0D01*
G01*
X1616169D2*
D18*
X1615291Y1838307D1*
X1614307D2*
D19*
G03X1616276Y1838307I984J0D01*
G01*
G03X1614307Y1838307I-984J0D01*
G01*
X1615291D2*
D18*
X1614295Y1837657D1*
X1613311D2*
D19*
G03X1615280Y1837657I984J0D01*
G01*
G03X1613311Y1837657I-984J0D01*
G01*
X1614295D2*
D18*
X1611520Y1836524D1*
X1610535D2*
D19*
G03X1612504Y1836524I984J0D01*
G01*
G03X1610535Y1836524I-984J0D01*
G01*
X1611520D2*
D18*
X1542457Y1810264D1*
X1541472D2*
D19*
G03X1543441Y1810264I984J0D01*
G01*
G03X1541472Y1810264I-984J0D01*
G01*
X1542457D2*
D18*
X1541295Y1810020D1*
X1540311D2*
D19*
G03X1542280Y1810020I984J0D01*
G01*
G03X1540311Y1810020I-984J0D01*
G01*
X1541295D2*
D18*
X1540106Y1809961D1*
X1539122D2*
D19*
G03X1541091Y1809961I984J0D01*
G01*
G03X1539122Y1809961I-984J0D01*
G01*
X1540106D2*
D18*
X1538925Y1810091D1*
X1537941D2*
D19*
G03X1539909Y1810091I984J0D01*
G01*
G03X1537941Y1810091I-984J0D01*
G01*
X1538925D2*
D18*
X1537780Y1810402D1*
X1536795D2*
D19*
G03X1538764Y1810402I984J0D01*
G01*
G03X1536795Y1810402I-984J0D01*
G01*
X1537780D2*
D18*
X1536697Y1810886D1*
X1535713D2*
D19*
G03X1537681Y1810886I984J0D01*
G01*
G03X1535713Y1810886I-984J0D01*
G01*
X1536697D2*
D18*
X1535701Y1811535D1*
X1534717D2*
D19*
G03X1536685Y1811535I984J0D01*
G01*
G03X1534717Y1811535I-984J0D01*
G01*
X1535701D2*
D18*
X1534823Y1812335D1*
X1533839D2*
D19*
G03X1535807Y1812335I984J0D01*
G01*
G03X1533839Y1812335I-984J0D01*
G01*
X1534823D2*
D18*
X1534079Y1813260D1*
X1533094D2*
D19*
G03X1535063Y1813260I984J0D01*
G01*
G03X1533094Y1813260I-984J0D01*
G01*
X1534079D2*
D18*
X1533484Y1814287D1*
X1532500D2*
D19*
G03X1534469Y1814287I984J0D01*
G01*
G03X1532500Y1814287I-984J0D01*
G01*
X1533484D2*
D18*
X1533063Y1815398D1*
X1532079D2*
D19*
G03X1534047Y1815398I984J0D01*
G01*
G03X1532079Y1815398I-984J0D01*
G01*
X1533063D2*
D18*
X1532819Y1816559D1*
X1531835D2*
D19*
G03X1533803Y1816559I984J0D01*
G01*
G03X1531835Y1816559I-984J0D01*
G01*
X1532819D2*
D18*
X1532760Y1817748D1*
X1531776D2*
D19*
G03X1533744Y1817748I984J0D01*
G01*
G03X1531776Y1817748I-984J0D01*
G01*
X1532760D2*
D18*
X1532890Y1818929D1*
X1531906D2*
D19*
G03X1533874Y1818929I984J0D01*
G01*
G03X1531906Y1818929I-984J0D01*
G01*
X1532890D2*
D18*
X1533201Y1820075D1*
X1532217D2*
D19*
G03X1534185Y1820075I984J0D01*
G01*
G03X1532217Y1820075I-984J0D01*
G01*
X1533201D2*
D18*
X1533685Y1821157D1*
X1532701D2*
D19*
G03X1534669Y1821157I984J0D01*
G01*
G03X1532701Y1821157I-984J0D01*
G01*
X1533685D2*
D18*
X1534335Y1822154D1*
X1533350D2*
D19*
G03X1535319Y1822154I984J0D01*
G01*
G03X1533350Y1822154I-984J0D01*
G01*
X1534335D2*
D18*
X1535134Y1823031D1*
X1534150D2*
D19*
G03X1536118Y1823031I984J0D01*
G01*
G03X1534150Y1823031I-984J0D01*
G01*
X1535134D2*
D18*
X1536059Y1823776D1*
X1535075D2*
D19*
G03X1537043Y1823776I984J0D01*
G01*
G03X1535075Y1823776I-984J0D01*
G01*
X1536059D2*
D18*
X1537087Y1824370D1*
X1536102D2*
D19*
G03X1538071Y1824370I984J0D01*
G01*
G03X1536102Y1824370I-984J0D01*
G01*
X1537087D2*
D18*
X1539472Y1825303D1*
X1630161Y1953866D2*
X1626083Y1945669D1*
X1629177Y1953866D2*
D19*
G03X1631146Y1953866I984J0D01*
G01*
G03X1629177Y1953866I-984J0D01*
G01*
X1625098Y1945669D2*
G03X1627067Y1945669I984J0D01*
G01*
G03X1625098Y1945669I-984J0D01*
G01*
X1626083D2*
D18*
X1624098Y1942260D1*
X1623114D2*
D19*
G03X1625083Y1942260I984J0D01*
G01*
G03X1623114Y1942260I-984J0D01*
G01*
X1624098D2*
D18*
X1619232Y1934937D1*
X1618248D2*
D19*
G03X1620217Y1934937I984J0D01*
G01*
G03X1618248Y1934937I-984J0D01*
G01*
X1619232D2*
D18*
X1616933Y1931740D1*
X1615949D2*
D19*
G03X1617917Y1931740I984J0D01*
G01*
G03X1615949Y1931740I-984J0D01*
G01*
X1616933D2*
D18*
X1614654Y1928972D1*
X1613669D2*
D19*
G03X1615638Y1928972I984J0D01*
G01*
G03X1613669Y1928972I-984J0D01*
G01*
X1614654D2*
D18*
X1608594Y1922114D1*
X1607610D2*
D19*
G03X1609579Y1922114I984J0D01*
G01*
G03X1607610Y1922114I-984J0D01*
G01*
X1608594D2*
D18*
X1605795Y1919335D1*
X1604811D2*
D19*
G03X1606780Y1919335I984J0D01*
G01*
G03X1604811Y1919335I-984J0D01*
G01*
X1605795D2*
D18*
X1599197Y1913520D1*
X1598213D2*
D19*
G03X1600181Y1913520I984J0D01*
G01*
G03X1598213Y1913520I-984J0D01*
G01*
X1599197D2*
D18*
X1596150Y1911028D1*
X1595165D2*
D19*
G03X1597134Y1911028I984J0D01*
G01*
G03X1595165Y1911028I-984J0D01*
G01*
X1596150D2*
D18*
X1593232Y1908945D1*
X1592248D2*
D19*
G03X1594217Y1908945I984J0D01*
G01*
G03X1592248Y1908945I-984J0D01*
G01*
X1593232D2*
D18*
X1585602Y1903886D1*
X1584618D2*
D19*
G03X1586587Y1903886I984J0D01*
G01*
G03X1584618Y1903886I-984J0D01*
G01*
X1585602D2*
D18*
X1582181Y1901925D1*
X1581197D2*
D19*
G03X1583165Y1901925I984J0D01*
G01*
G03X1581197Y1901925I-984J0D01*
G01*
X1582181D2*
D18*
X1574303Y1898016D1*
X1573319D2*
D19*
G03X1575287Y1898016I984J0D01*
G01*
G03X1573319Y1898016I-984J0D01*
G01*
X1574303D2*
D18*
X1570717Y1896398D1*
X1569732D2*
D19*
G03X1571701Y1896398I984J0D01*
G01*
G03X1569732Y1896398I-984J0D01*
G01*
X1570717D2*
D18*
X1567358Y1895142D1*
X1566374D2*
D19*
G03X1568343Y1895142I984J0D01*
G01*
G03X1566374Y1895142I-984J0D01*
G01*
X1567358D2*
D18*
X1558677Y1892232D1*
X1557693D2*
D19*
G03X1559661Y1892232I984J0D01*
G01*
G03X1557693Y1892232I-984J0D01*
G01*
X1558677D2*
D18*
X1554866Y1891224D1*
X1553882D2*
D19*
G03X1555850Y1891224I984J0D01*
G01*
G03X1553882Y1891224I-984J0D01*
G01*
X1554866D2*
D18*
X1546244Y1889484D1*
X1545260D2*
D19*
G03X1547228Y1889484I984J0D01*
G01*
G03X1545260Y1889484I-984J0D01*
G01*
X1546244D2*
D18*
X1542358Y1888850D1*
X1541374D2*
D19*
G03X1543343Y1888850I984J0D01*
G01*
G03X1541374Y1888850I-984J0D01*
G01*
X1542358D2*
D18*
X1538791Y1888508D1*
X1537807D2*
D19*
G03X1539776Y1888508I984J0D01*
G01*
G03X1537807Y1888508I-984J0D01*
G01*
X1538791D2*
D18*
X1529654Y1887941D1*
X1528669D2*
D19*
G03X1530638Y1887941I984J0D01*
G01*
G03X1528669Y1887941I-984J0D01*
G01*
X1529654D2*
D18*
X1525709Y1887953D1*
X1524724D2*
D19*
G03X1526693Y1887953I984J0D01*
G01*
G03X1524724Y1887953I-984J0D01*
G01*
X1525709D2*
D18*
X1516933Y1888508D1*
X1515949D2*
D19*
G03X1517917Y1888508I984J0D01*
G01*
G03X1515949Y1888508I-984J0D01*
G01*
X1516933D2*
D18*
X1513016Y1888902D1*
X1512031D2*
D19*
G03X1514000Y1888902I984J0D01*
G01*
G03X1512031Y1888902I-984J0D01*
G01*
X1513016D2*
D18*
X1509480Y1889488D1*
X1508496D2*
D19*
G03X1510465Y1889488I984J0D01*
G01*
G03X1508496Y1889488I-984J0D01*
G01*
X1509480D2*
D18*
X1500508Y1891311D1*
X1499524D2*
D19*
G03X1501492Y1891311I984J0D01*
G01*
G03X1499524Y1891311I-984J0D01*
G01*
X1500508D2*
D18*
X1496705Y1892343D1*
X1495720D2*
D19*
G03X1497689Y1892343I984J0D01*
G01*
G03X1495720Y1892343I-984J0D01*
G01*
X1496705D2*
D18*
X1488366Y1895150D1*
X1487382D2*
D19*
G03X1489350Y1895150I984J0D01*
G01*
G03X1487382Y1895150I-984J0D01*
G01*
X1488366D2*
D18*
X1484685Y1896543D1*
X1483701D2*
D19*
G03X1485669Y1896543I984J0D01*
G01*
G03X1483701Y1896543I-984J0D01*
G01*
X1484685D2*
D18*
X1481425Y1898028D1*
X1480441D2*
D19*
G03X1482409Y1898028I984J0D01*
G01*
G03X1480441Y1898028I-984J0D01*
G01*
X1481425D2*
D18*
X1473228Y1902106D1*
X1472244D2*
D19*
G03X1474213Y1902106I984J0D01*
G01*
G03X1472244Y1902106I-984J0D01*
G01*
X1473228D2*
D18*
X1469819Y1904091D1*
X1468835D2*
D19*
G03X1470803Y1904091I984J0D01*
G01*
G03X1468835Y1904091I-984J0D01*
G01*
X1469819D2*
D18*
X1462496Y1908957D1*
X1461512D2*
D19*
G03X1463480Y1908957I984J0D01*
G01*
G03X1461512Y1908957I-984J0D01*
G01*
X1462496D2*
D18*
X1459299Y1911256D1*
X1458315D2*
D19*
G03X1460283Y1911256I984J0D01*
G01*
G03X1458315Y1911256I-984J0D01*
G01*
X1459299D2*
D18*
X1456531Y1913535D1*
X1455547D2*
D19*
G03X1457516Y1913535I984J0D01*
G01*
G03X1455547Y1913535I-984J0D01*
G01*
X1456531D2*
D18*
X1450559Y1918780D1*
X1449575D2*
D19*
G03X1451543Y1918780I984J0D01*
G01*
G03X1449575Y1918780I-984J0D01*
G01*
X1450559D2*
D18*
X1447724Y1921516D1*
X1446740D2*
D19*
G03X1448709Y1921516I984J0D01*
G01*
G03X1446740Y1921516I-984J0D01*
G01*
X1447724D2*
D18*
X1444535Y1925051D1*
X1443551D2*
D19*
G03X1445520Y1925051I984J0D01*
G01*
G03X1443551Y1925051I-984J0D01*
G01*
X1444535D2*
D18*
X1439807Y1930492D1*
X1438823D2*
D19*
G03X1440791Y1930492I984J0D01*
G01*
G03X1438823Y1930492I-984J0D01*
G01*
X1439807D2*
D18*
X1437413Y1933630D1*
X1436429D2*
D19*
G03X1438398Y1933630I984J0D01*
G01*
G03X1436429Y1933630I-984J0D01*
G01*
X1437413D2*
D18*
X1432512Y1940929D1*
X1431528D2*
D19*
G03X1433496Y1940929I984J0D01*
G01*
G03X1431528Y1940929I-984J0D01*
G01*
X1432512D2*
D18*
X1430437Y1944276D1*
X1429453D2*
D19*
G03X1431421Y1944276I984J0D01*
G01*
G03X1429453Y1944276I-984J0D01*
G01*
X1430437D2*
D18*
X1428756Y1947441D1*
X1427772D2*
D19*
G03X1429740Y1947441I984J0D01*
G01*
G03X1427772Y1947441I-984J0D01*
G01*
X1428756D2*
D18*
X1424736Y1955665D1*
X1423752D2*
D19*
G03X1425720Y1955665I984J0D01*
G01*
G03X1423752Y1955665I-984J0D01*
G01*
X1424736D2*
D18*
X1423240Y1959315D1*
X1422256D2*
D19*
G03X1424224Y1959315I984J0D01*
G01*
G03X1422256Y1959315I-984J0D01*
G01*
X1423240D2*
D18*
X1420390Y1967638D1*
X1419406D2*
D19*
G03X1421374Y1967638I984J0D01*
G01*
G03X1419406Y1967638I-984J0D01*
G01*
X1420390D2*
D18*
X1419787Y1969520D1*
X1418803D2*
D19*
G03X1420772Y1969520I984J0D01*
G01*
G03X1418803Y1969520I-984J0D01*
G01*
X1419787D2*
D18*
X1419606Y1968819D1*
X1418622D2*
D19*
G03X1420591Y1968819I984J0D01*
G01*
G03X1418622Y1968819I-984J0D01*
G01*
X1419606D2*
D18*
Y1840874D1*
X1418622D2*
D19*
G03X1420591Y1840874I984J0D01*
G01*
G03X1418622Y1840874I-984J0D01*
G01*
X1419606D2*
D18*
X1516217Y1840858D1*
X1515232D2*
D19*
G03X1517201Y1840858I984J0D01*
G01*
G03X1515232Y1840858I-984J0D01*
G01*
X1516217D2*
D18*
X1516815Y1840717D1*
X1515831D2*
D19*
G03X1517799Y1840717I984J0D01*
G01*
G03X1515831Y1840717I-984J0D01*
G01*
X1516815D2*
D18*
X1517343Y1840394D1*
X1516358D2*
D19*
G03X1518327Y1840394I984J0D01*
G01*
G03X1516358Y1840394I-984J0D01*
G01*
X1517343D2*
D18*
X1517740Y1839925D1*
X1516756D2*
D19*
G03X1518724Y1839925I984J0D01*
G01*
G03X1516756Y1839925I-984J0D01*
G01*
X1517740D2*
D18*
X1517976Y1839358D1*
X1516992D2*
D19*
G03X1518961Y1839358I984J0D01*
G01*
G03X1516992Y1839358I-984J0D01*
G01*
X1517976D2*
D18*
X1518031Y1838898D1*
X1517047D2*
D19*
G03X1519016Y1838898I984J0D01*
G01*
G03X1517047Y1838898I-984J0D01*
G01*
X1518031D2*
D18*
Y1718819D1*
X1517047D2*
D19*
G03X1519016Y1718819I984J0D01*
G01*
G03X1517047Y1718819I-984J0D01*
G01*
X1518031D2*
D18*
X1636134D1*
X1635150D2*
D19*
G03X1637118Y1718819I984J0D01*
G01*
G03X1635150Y1718819I-984J0D01*
G01*
X1636134D2*
D18*
X1636142Y1970134D1*
X1635157D2*
D19*
G03X1637126Y1970134I984J0D01*
G01*
G03X1635157Y1970134I-984J0D01*
G01*
X1636142D2*
D18*
X1634724Y1965772D1*
X1633740D2*
D19*
G03X1635709Y1965772I984J0D01*
G01*
G03X1633740Y1965772I-984J0D01*
G01*
X1634724D2*
D18*
X1632374Y1958957D1*
X1631390D2*
D19*
G03X1633358Y1958957I984J0D01*
G01*
G03X1631390Y1958957I-984J0D01*
G01*
X1632374D2*
D18*
X1630854Y1955319D1*
X1629870D2*
D19*
G03X1631839Y1955319I984J0D01*
G01*
G03X1629870Y1955319I-984J0D01*
G01*
X561858Y624461D2*
D18*
X745980D1*
X570157Y620657D2*
X745980D1*
X577429Y616850D2*
X675035D1*
X702276D2*
X745980D1*
X583252Y613043D2*
X664673D1*
X712602D2*
X745980D1*
X588732Y609240D2*
X657866D1*
X719461D2*
X745980D1*
X593272Y605433D2*
X654059D1*
X723224D2*
X745980D1*
X597606Y601626D2*
X650370D1*
X678000D2*
X699291D1*
X726882D2*
X745980D1*
X601469Y597823D2*
X648701D1*
X668866D2*
X708449D1*
X728567D2*
X745980D1*
X604827Y594016D2*
X647441D1*
X664843D2*
X712437D1*
X729858D2*
X745980D1*
X608142Y590209D2*
X646177D1*
X662913D2*
X714378D1*
X731142D2*
X745980D1*
X611047Y586406D2*
X645531D1*
X661654D2*
X715661D1*
X731795D2*
X745980D1*
X613610Y582598D2*
X645531D1*
X661461D2*
X715870D1*
X731795D2*
X745980D1*
X616146Y578791D2*
X645531D1*
X661461D2*
X715870D1*
X731795D2*
X745980D1*
X618413Y574988D2*
X645531D1*
X661461D2*
X715870D1*
X731795D2*
X745980D1*
X620346Y571181D2*
X645531D1*
X661461D2*
X715870D1*
X731795D2*
X745980D1*
X622228Y567374D2*
X645531D1*
X731795D2*
X745980D1*
X624004Y563571D2*
X645531D1*
X731795D2*
X745980D1*
X625472Y559764D2*
X646571D1*
X730760D2*
X745980D1*
X626768Y555957D2*
X745980D1*
X628051Y552154D2*
X745980D1*
X629157Y548346D2*
X649016D1*
X728315D2*
X745980D1*
X629996Y544539D2*
X645980D1*
X731350D2*
X745980D1*
X630748Y540736D2*
X645634D1*
X731697D2*
X745980D1*
X631488Y536929D2*
X647465D1*
X729866D2*
X745980D1*
X632020Y533122D2*
X696516D1*
X724591D2*
X745980D1*
X632311Y529319D2*
X690807D1*
X718886D2*
X745980D1*
X632555Y525512D2*
X685094D1*
X713173D2*
X745980D1*
X632772Y521705D2*
X679390D1*
X707469D2*
X745980D1*
X632756Y517902D2*
X673677D1*
X701760D2*
X745980D1*
X632531Y514094D2*
X667972D1*
X696047D2*
X745980D1*
X632280Y510287D2*
X662256D1*
X690343D2*
X745980D1*
X631972Y506484D2*
X656551D1*
X684630D2*
X745980D1*
X631417Y502677D2*
X650846D1*
X678925D2*
X745980D1*
X630673Y498870D2*
X646547D1*
X730780D2*
X745980D1*
X629917Y495067D2*
X645531D1*
X731795D2*
X745980D1*
X629059Y491260D2*
X646571D1*
X730760D2*
X745980D1*
X627921Y487453D2*
X745980D1*
X626626Y483650D2*
X745980D1*
X625335Y479843D2*
X665642D1*
X674685D2*
X692587D1*
X711626D2*
X745980D1*
X623835Y476035D2*
X658413D1*
X677724D2*
X689547D1*
X718917D2*
X745980D1*
X622028Y472232D2*
X654543D1*
X678071D2*
X689094D1*
X722744D2*
X745980D1*
X620154Y468425D2*
X650760D1*
X676248D2*
X689094D1*
X726492D2*
X745980D1*
X618201Y464618D2*
X648571D1*
X669827D2*
X689094D1*
X705024D2*
X707472D1*
X728705D2*
X745980D1*
X615886Y460815D2*
X646669D1*
X665323D2*
X689094D1*
X705024D2*
X711961D1*
X730650D2*
X745980D1*
X613346Y457008D2*
X645539D1*
X662476D2*
X689094D1*
X705024D2*
X714807D1*
X731795D2*
X745980D1*
X610772Y453201D2*
X645531D1*
X661461D2*
X689984D1*
X704138D2*
X715870D1*
X731795D2*
X745980D1*
X607811Y449398D2*
X645531D1*
X661461D2*
X694898D1*
X699220D2*
X715870D1*
X731795D2*
X745980D1*
X604480Y445591D2*
X645531D1*
X661461D2*
X715870D1*
X731795D2*
X745980D1*
X601098Y441783D2*
X645701D1*
X663114D2*
X714154D1*
X731626D2*
X745980D1*
X597161Y437980D2*
X647323D1*
X666630D2*
X710669D1*
X729980D2*
X745980D1*
X592823Y434173D2*
X649201D1*
X672378D2*
X704894D1*
X728059D2*
X745980D1*
X588213Y430366D2*
X652008D1*
X725260D2*
X745980D1*
X582657Y426563D2*
X655858D1*
X721453D2*
X745980D1*
X576760Y422756D2*
X660673D1*
X716650D2*
X745980D1*
X569358Y418949D2*
X668780D1*
X708488D2*
X745980D1*
X560791Y415146D2*
X745980D1*
X671835Y465819D2*
X668039Y463921D1*
X670850Y465819D2*
D19*
G03X672819Y465819I984J0D01*
G01*
G03X670850Y465819I-984J0D01*
G01*
X667055Y463921D2*
G03X669024Y463921I984J0D01*
G01*
G03X667055Y463921I-984J0D01*
G01*
X668039D2*
D18*
X663043Y458925D1*
X662059D2*
D19*
G03X664028Y458925I984J0D01*
G01*
G03X662059Y458925I-984J0D01*
G01*
X663043D2*
D18*
X661067Y454969D1*
X660083D2*
D19*
G03X662051Y454969I984J0D01*
G01*
G03X660083Y454969I-984J0D01*
G01*
X661067D2*
D18*
Y445138D1*
X660083D2*
D19*
G03X662051Y445138I984J0D01*
G01*
G03X660083Y445138I-984J0D01*
G01*
X661067D2*
D18*
X663043Y441130D1*
X662059D2*
D19*
G03X664028Y441130I984J0D01*
G01*
G03X662059Y441130I-984J0D01*
G01*
X663043D2*
D18*
X668039Y436193D1*
X667055D2*
D19*
G03X669024Y436193I984J0D01*
G01*
G03X667055Y436193I-984J0D01*
G01*
X668039D2*
D18*
X673142Y433583D1*
X672157D2*
D19*
G03X674126Y433583I984J0D01*
G01*
G03X672157Y433583I-984J0D01*
G01*
X673142D2*
D18*
X681488Y430823D1*
X680504D2*
D19*
G03X682472Y430823I984J0D01*
G01*
G03X680504Y430823I-984J0D01*
G01*
X681488D2*
D18*
X695827D1*
X694843D2*
D19*
G03X696811Y430823I984J0D01*
G01*
G03X694843Y430823I-984J0D01*
G01*
X695827D2*
D18*
X704122Y433583D1*
X703138D2*
D19*
G03X705106Y433583I984J0D01*
G01*
G03X703138Y433583I-984J0D01*
G01*
X704122D2*
D18*
X709280Y436193D1*
X708295D2*
D19*
G03X710264Y436193I984J0D01*
G01*
G03X708295Y436193I-984J0D01*
G01*
X709280D2*
D18*
X714224Y441138D1*
X713240D2*
D19*
G03X715209Y441138I984J0D01*
G01*
G03X713240Y441138I-984J0D01*
G01*
X714224D2*
D18*
X716268Y445181D1*
X715283D2*
D19*
G03X717252Y445181I984J0D01*
G01*
G03X715283Y445181I-984J0D01*
G01*
X716268D2*
D18*
X716264Y454929D1*
X715280D2*
D19*
G03X717248Y454929I984J0D01*
G01*
G03X715280Y454929I-984J0D01*
G01*
X716264D2*
D18*
X714224Y458917D1*
X713240D2*
D19*
G03X715209Y458917I984J0D01*
G01*
G03X713240Y458917I-984J0D01*
G01*
X714224D2*
D18*
X709287Y463913D1*
X708303D2*
D19*
G03X710272Y463913I984J0D01*
G01*
G03X708303Y463913I-984J0D01*
G01*
X709287D2*
D18*
X705272Y465902D1*
X704287D2*
D19*
G03X706256Y465902I984J0D01*
G01*
G03X704287Y465902I-984J0D01*
G01*
X705272D2*
D18*
X704622Y465898D1*
X703638D2*
D19*
G03X705606Y465898I984J0D01*
G01*
G03X703638Y465898I-984J0D01*
G01*
X704622D2*
D18*
X704598Y456087D1*
X703614D2*
D19*
G03X705583Y456087I984J0D01*
G01*
G03X703614Y456087I-984J0D01*
G01*
X704598D2*
D18*
X704358Y454732D1*
X703374D2*
D19*
G03X705343Y454732I984J0D01*
G01*
G03X703374Y454732I-984J0D01*
G01*
X704358D2*
D18*
X704031Y453799D1*
X703047D2*
D19*
G03X705016Y453799I984J0D01*
G01*
G03X703047Y453799I-984J0D01*
G01*
X704031D2*
D18*
X703583Y452913D1*
X702598D2*
D19*
G03X704567Y452913I984J0D01*
G01*
G03X702598Y452913I-984J0D01*
G01*
X703583D2*
D18*
X702768Y451787D1*
X701783D2*
D19*
G03X703752Y451787I984J0D01*
G01*
G03X701783Y451787I-984J0D01*
G01*
X702768D2*
D18*
X701945Y450976D1*
X700961D2*
D19*
G03X702929Y450976I984J0D01*
G01*
G03X700961Y450976I-984J0D01*
G01*
X701945D2*
D18*
X700496Y450012D1*
X699512D2*
D19*
G03X701480Y450012I984J0D01*
G01*
G03X699512Y450012I-984J0D01*
G01*
X700496D2*
D18*
X699350Y449543D1*
X698366D2*
D19*
G03X700335Y449543I984J0D01*
G01*
G03X698366Y449543I-984J0D01*
G01*
X699350D2*
D18*
X697984Y449240D1*
X697000D2*
D19*
G03X698969Y449240I984J0D01*
G01*
G03X697000Y449240I-984J0D01*
G01*
X697984D2*
D18*
X696996Y449185D1*
X696012D2*
D19*
G03X697980Y449185I984J0D01*
G01*
G03X696012Y449185I-984J0D01*
G01*
X696996D2*
D18*
X696008Y449260D1*
X695024D2*
D19*
G03X696992Y449260I984J0D01*
G01*
G03X695024Y449260I-984J0D01*
G01*
X696008D2*
D18*
X694583Y449606D1*
X693598D2*
D19*
G03X695567Y449606I984J0D01*
G01*
G03X693598Y449606I-984J0D01*
G01*
X694583D2*
D18*
X693622Y450012D1*
X692638D2*
D19*
G03X694606Y450012I984J0D01*
G01*
G03X692638Y450012I-984J0D01*
G01*
X693622D2*
D18*
X692610Y450634D1*
X691626D2*
D19*
G03X693594Y450634I984J0D01*
G01*
G03X691626Y450634I-984J0D01*
G01*
X692610D2*
D18*
X691661Y451449D1*
X690677D2*
D19*
G03X692646Y451449I984J0D01*
G01*
G03X690677Y451449I-984J0D01*
G01*
X691661D2*
D18*
X690937Y452307D1*
X689953D2*
D19*
G03X691921Y452307I984J0D01*
G01*
G03X689953Y452307I-984J0D01*
G01*
X690937D2*
D18*
X690236Y453496D1*
X689252D2*
D19*
G03X691220Y453496I984J0D01*
G01*
G03X689252Y453496I-984J0D01*
G01*
X690236D2*
D18*
X689862Y454417D1*
X688878D2*
D19*
G03X690846Y454417I984J0D01*
G01*
G03X688878Y454417I-984J0D01*
G01*
X689862D2*
D18*
X689583Y455571D1*
X688598D2*
D19*
G03X690567Y455571I984J0D01*
G01*
G03X688598Y455571I-984J0D01*
G01*
X689583D2*
D18*
X689488Y456756D1*
X688504D2*
D19*
G03X690472Y456756I984J0D01*
G01*
G03X688504Y456756I-984J0D01*
G01*
X689488D2*
D18*
X689512Y474063D1*
X688528D2*
D19*
G03X690496Y474063I984J0D01*
G01*
G03X688528Y474063I-984J0D01*
G01*
X689512D2*
D18*
X689701Y475236D1*
X688717D2*
D19*
G03X690685Y475236I984J0D01*
G01*
G03X688717Y475236I-984J0D01*
G01*
X689701D2*
D18*
X690067Y476366D1*
X689083D2*
D19*
G03X691051Y476366I984J0D01*
G01*
G03X689083Y476366I-984J0D01*
G01*
X690067D2*
D18*
X690606Y477425D1*
X689622D2*
D19*
G03X691591Y477425I984J0D01*
G01*
G03X689622Y477425I-984J0D01*
G01*
X690606D2*
D18*
X691303Y478386D1*
X690319D2*
D19*
G03X692287Y478386I984J0D01*
G01*
G03X690319Y478386I-984J0D01*
G01*
X691303D2*
D18*
X692142Y479224D1*
X691157D2*
D19*
G03X693126Y479224I984J0D01*
G01*
G03X691157Y479224I-984J0D01*
G01*
X692142D2*
D18*
X693102Y479921D1*
X692118D2*
D19*
G03X694087Y479921I984J0D01*
G01*
G03X692118Y479921I-984J0D01*
G01*
X693102D2*
D18*
X694161Y480461D1*
X693177D2*
D19*
G03X695146Y480461I984J0D01*
G01*
G03X693177Y480461I-984J0D01*
G01*
X694161D2*
D18*
X695291Y480827D1*
X694307D2*
D19*
G03X696276Y480827I984J0D01*
G01*
G03X694307Y480827I-984J0D01*
G01*
X695291D2*
D18*
X696465Y481016D1*
X695480D2*
D19*
G03X697449Y481016I984J0D01*
G01*
G03X695480Y481016I-984J0D01*
G01*
X696465D2*
D18*
X707043Y481039D1*
X706059D2*
D19*
G03X708028Y481039I984J0D01*
G01*
G03X706059Y481039I-984J0D01*
G01*
X707043D2*
D18*
X708228Y480945D1*
X707244D2*
D19*
G03X709213Y480945I984J0D01*
G01*
G03X707244Y480945I-984J0D01*
G01*
X708228D2*
D18*
X709382Y480665D1*
X708398D2*
D19*
G03X710366Y480665I984J0D01*
G01*
G03X708398Y480665I-984J0D01*
G01*
X709382D2*
D18*
X712161Y479382D1*
X711177D2*
D19*
G03X713146Y479382I984J0D01*
G01*
G03X711177Y479382I-984J0D01*
G01*
X712161D2*
D18*
X717650Y476642D1*
X716665D2*
D19*
G03X718634Y476642I984J0D01*
G01*
G03X716665Y476642I-984J0D01*
G01*
X717650D2*
D18*
X718622Y475957D1*
X717638D2*
D19*
G03X719606Y475957I984J0D01*
G01*
G03X717638Y475957I-984J0D01*
G01*
X718622D2*
D18*
X721925Y472661D1*
X720941D2*
D19*
G03X722909Y472661I984J0D01*
G01*
G03X720941Y472661I-984J0D01*
G01*
X721925D2*
D18*
X726213Y468291D1*
X725228D2*
D19*
G03X727197Y468291I984J0D01*
G01*
G03X725228Y468291I-984J0D01*
G01*
X726213D2*
D18*
X726906Y467323D1*
X725921D2*
D19*
G03X727890Y467323I984J0D01*
G01*
G03X725921Y467323I-984J0D01*
G01*
X726906D2*
D18*
X730823Y459665D1*
X729839D2*
D19*
G03X731807Y459665I984J0D01*
G01*
G03X729839Y459665I-984J0D01*
G01*
X730823D2*
D18*
X731193Y458535D1*
X730209D2*
D19*
G03X732177Y458535I984J0D01*
G01*
G03X730209Y458535I-984J0D01*
G01*
X731193D2*
D18*
X731378Y457362D1*
X730394D2*
D19*
G03X732362Y457362I984J0D01*
G01*
G03X730394Y457362I-984J0D01*
G01*
X731378D2*
D18*
X731406Y446913D1*
X730421D2*
D19*
G03X732390Y446913I984J0D01*
G01*
G03X730421Y446913I-984J0D01*
G01*
X731406D2*
D18*
X731382Y442776D1*
X730398D2*
D19*
G03X732366Y442776I984J0D01*
G01*
G03X730398Y442776I-984J0D01*
G01*
X731382D2*
D18*
X731193Y441602D1*
X730209D2*
D19*
G03X732177Y441602I984J0D01*
G01*
G03X730209Y441602I-984J0D01*
G01*
X731193D2*
D18*
X730827Y440472D1*
X729843D2*
D19*
G03X731811Y440472I984J0D01*
G01*
G03X729843Y440472I-984J0D01*
G01*
X730827D2*
D18*
X726894Y432701D1*
X725909D2*
D19*
G03X727878Y432701I984J0D01*
G01*
G03X725909Y432701I-984J0D01*
G01*
X726894D2*
D18*
X726201Y431740D1*
X725217D2*
D19*
G03X727185Y431740I984J0D01*
G01*
G03X725217Y431740I-984J0D01*
G01*
X726201D2*
D18*
X719126Y424634D1*
X718142D2*
D19*
G03X720110Y424634I984J0D01*
G01*
G03X718142Y424634I-984J0D01*
G01*
X719126D2*
D18*
X718224Y423862D1*
X717240D2*
D19*
G03X719209Y423862I984J0D01*
G01*
G03X717240Y423862I-984J0D01*
G01*
X718224D2*
D18*
X717209Y423240D1*
X716224D2*
D19*
G03X718193Y423240I984J0D01*
G01*
G03X716224Y423240I-984J0D01*
G01*
X717209D2*
D18*
X709917Y419575D1*
X708933D2*
D19*
G03X710902Y419575I984J0D01*
G01*
G03X708933Y419575I-984J0D01*
G01*
X709917D2*
D18*
X698882Y415906D1*
X697898D2*
D19*
G03X699866Y415906I984J0D01*
G01*
G03X697898Y415906I-984J0D01*
G01*
X698882D2*
D18*
X697709Y415713D1*
X696724D2*
D19*
G03X698693Y415713I984J0D01*
G01*
G03X696724Y415713I-984J0D01*
G01*
X697709D2*
D18*
X689185Y415681D1*
X688201D2*
D19*
G03X690169Y415681I984J0D01*
G01*
G03X688201Y415681I-984J0D01*
G01*
X689185D2*
D18*
X679677Y415705D1*
X678693D2*
D19*
G03X680661Y415705I984J0D01*
G01*
G03X678693Y415705I-984J0D01*
G01*
X679677D2*
D18*
X678504Y415894D1*
X677520D2*
D19*
G03X679488Y415894I984J0D01*
G01*
G03X677520Y415894I-984J0D01*
G01*
X678504D2*
D18*
X670417Y418539D1*
X669433D2*
D19*
G03X671402Y418539I984J0D01*
G01*
G03X669433Y418539I-984J0D01*
G01*
X670417D2*
D18*
X667276Y419602D1*
X666291D2*
D19*
G03X668260Y419602I984J0D01*
G01*
G03X666291Y419602I-984J0D01*
G01*
X667276D2*
D18*
X659591Y423535D1*
X658606D2*
D19*
G03X660575Y423535I984J0D01*
G01*
G03X658606Y423535I-984J0D01*
G01*
X659591D2*
D18*
X658630Y424236D1*
X657646D2*
D19*
G03X659614Y424236I984J0D01*
G01*
G03X657646Y424236I-984J0D01*
G01*
X658630D2*
D18*
X651094Y431689D1*
X650110D2*
D19*
G03X652079Y431689I984J0D01*
G01*
G03X650110Y431689I-984J0D01*
G01*
X651094D2*
D18*
X650394Y432646D1*
X649409D2*
D19*
G03X651378Y432646I984J0D01*
G01*
G03X649409Y432646I-984J0D01*
G01*
X650394D2*
D18*
X648291Y436815D1*
X647307D2*
D19*
G03X649276Y436815I984J0D01*
G01*
G03X647307Y436815I-984J0D01*
G01*
X648291D2*
D18*
X646469Y440559D1*
X645484D2*
D19*
G03X647453Y440559I984J0D01*
G01*
G03X645484Y440559I-984J0D01*
G01*
X646469D2*
D18*
X646114Y441693D1*
X645130D2*
D19*
G03X647098Y441693I984J0D01*
G01*
G03X645130Y441693I-984J0D01*
G01*
X646114D2*
D18*
X645945Y442870D1*
X644961D2*
D19*
G03X646929Y442870I984J0D01*
G01*
G03X644961Y442870I-984J0D01*
G01*
X645945D2*
D18*
X645949Y457350D1*
X644965D2*
D19*
G03X646933Y457350I984J0D01*
G01*
G03X644965Y457350I-984J0D01*
G01*
X645949D2*
D18*
X646138Y458524D1*
X645154D2*
D19*
G03X647122Y458524I984J0D01*
G01*
G03X645154Y458524I-984J0D01*
G01*
X646138D2*
D18*
X646504Y459654D1*
X645520D2*
D19*
G03X647488Y459654I984J0D01*
G01*
G03X645520Y459654I-984J0D01*
G01*
X646504D2*
D18*
X650339Y467315D1*
X649354D2*
D19*
G03X651323Y467315I984J0D01*
G01*
G03X649354Y467315I-984J0D01*
G01*
X650339D2*
D18*
X651031Y468280D1*
X650047D2*
D19*
G03X652016Y468280I984J0D01*
G01*
G03X650047Y468280I-984J0D01*
G01*
X651031D2*
D18*
X657039Y474331D1*
X656055D2*
D19*
G03X658024Y474331I984J0D01*
G01*
G03X656055Y474331I-984J0D01*
G01*
X657039D2*
D18*
X658638Y475898D1*
X657654D2*
D19*
G03X659622Y475898I984J0D01*
G01*
G03X657654Y475898I-984J0D01*
G01*
X658638D2*
D18*
X659598Y476594D1*
X658614D2*
D19*
G03X660583Y476594I984J0D01*
G01*
G03X658614Y476594I-984J0D01*
G01*
X659598D2*
D18*
X666831Y480240D1*
X665846D2*
D19*
G03X667815Y480240I984J0D01*
G01*
G03X665846Y480240I-984J0D01*
G01*
X666831D2*
D18*
X667957Y480693D1*
X666972D2*
D19*
G03X668941Y480693I984J0D01*
G01*
G03X666972Y480693I-984J0D01*
G01*
X667957D2*
D18*
X669287Y480984D1*
X668303D2*
D19*
G03X670272Y480984I984J0D01*
G01*
G03X668303Y480984I-984J0D01*
G01*
X669287D2*
D18*
X670276Y481039D1*
X669291D2*
D19*
G03X671260Y481039I984J0D01*
G01*
G03X669291Y481039I-984J0D01*
G01*
X670276D2*
D18*
X671504Y480925D1*
X670520D2*
D19*
G03X672488Y480925I984J0D01*
G01*
G03X670520Y480925I-984J0D01*
G01*
X671504D2*
D18*
X672728Y480602D1*
X671744D2*
D19*
G03X673713Y480602I984J0D01*
G01*
G03X671744Y480602I-984J0D01*
G01*
X672728D2*
D18*
X673701Y480185D1*
X672717D2*
D19*
G03X674685Y480185I984J0D01*
G01*
G03X672717Y480185I-984J0D01*
G01*
X673701D2*
D18*
X674870Y479433D1*
X673886D2*
D19*
G03X675854Y479433I984J0D01*
G01*
G03X673886Y479433I-984J0D01*
G01*
X674870D2*
D18*
X675610Y478776D1*
X674626D2*
D19*
G03X676594Y478776I984J0D01*
G01*
G03X674626Y478776I-984J0D01*
G01*
X675610D2*
D18*
X676370Y477870D1*
X675386D2*
D19*
G03X677354Y477870I984J0D01*
G01*
G03X675386Y477870I-984J0D01*
G01*
X676370D2*
D18*
X677047Y476705D1*
X676063D2*
D19*
G03X678031Y476705I984J0D01*
G01*
G03X676063Y476705I-984J0D01*
G01*
X677047D2*
D18*
X677429Y475752D1*
X676445D2*
D19*
G03X678413Y475752I984J0D01*
G01*
G03X676445Y475752I-984J0D01*
G01*
X677429D2*
D18*
X677697Y474594D1*
X676713D2*
D19*
G03X678681Y474594I984J0D01*
G01*
G03X676713Y474594I-984J0D01*
G01*
X677697D2*
D18*
X677780Y473409D1*
X676795D2*
D19*
G03X678764Y473409I984J0D01*
G01*
G03X676795Y473409I-984J0D01*
G01*
X677780D2*
D18*
X677677Y472224D1*
X676693D2*
D19*
G03X678661Y472224I984J0D01*
G01*
G03X676693Y472224I-984J0D01*
G01*
X677677D2*
D18*
X677335Y470925D1*
X676350D2*
D19*
G03X678319Y470925I984J0D01*
G01*
G03X676350Y470925I-984J0D01*
G01*
X677335D2*
D18*
X676929Y469980D1*
X675945D2*
D19*
G03X677913Y469980I984J0D01*
G01*
G03X675945Y469980I-984J0D01*
G01*
X676929D2*
D18*
X676299Y468972D1*
X675315D2*
D19*
G03X677283Y468972I984J0D01*
G01*
G03X675315Y468972I-984J0D01*
G01*
X676299D2*
D18*
X675516Y468071D1*
X674531D2*
D19*
G03X676500Y468071I984J0D01*
G01*
G03X674531Y468071I-984J0D01*
G01*
X675516D2*
D18*
X674500Y467236D1*
X673516D2*
D19*
G03X675484Y467236I984J0D01*
G01*
G03X673516Y467236I-984J0D01*
G01*
X674500D2*
D18*
X673594Y466697D1*
X672610D2*
D19*
G03X674579Y466697I984J0D01*
G01*
G03X672610Y466697I-984J0D01*
G01*
X673594D2*
D18*
X671835Y465819D1*
X653642Y549547D2*
X724142Y549539D1*
X652657Y549547D2*
D19*
G03X654626Y549547I984J0D01*
G01*
G03X652657Y549547I-984J0D01*
G01*
X723157Y549539D2*
G03X725126Y549539I984J0D01*
G01*
G03X723157Y549539I-984J0D01*
G01*
X724142D2*
D18*
X725319Y549398D1*
X724335D2*
D19*
G03X726303Y549398I984J0D01*
G01*
G03X724335Y549398I-984J0D01*
G01*
X725319D2*
D18*
X726461Y549075D1*
X725476D2*
D19*
G03X727445Y549075I984J0D01*
G01*
G03X725476Y549075I-984J0D01*
G01*
X726461D2*
D18*
X727539Y548575D1*
X726555D2*
D19*
G03X728524Y548575I984J0D01*
G01*
G03X726555Y548575I-984J0D01*
G01*
X727539D2*
D18*
X728528Y547917D1*
X727543D2*
D19*
G03X729512Y547917I984J0D01*
G01*
G03X727543Y547917I-984J0D01*
G01*
X728528D2*
D18*
X729398Y547106D1*
X728413D2*
D19*
G03X730382Y547106I984J0D01*
G01*
G03X728413Y547106I-984J0D01*
G01*
X729398D2*
D18*
X730134Y546173D1*
X729150D2*
D19*
G03X731118Y546173I984J0D01*
G01*
G03X729150Y546173I-984J0D01*
G01*
X730134D2*
D18*
X730713Y545138D1*
X729728D2*
D19*
G03X731697Y545138I984J0D01*
G01*
G03X729728Y545138I-984J0D01*
G01*
X730713D2*
D18*
X731122Y544024D1*
X730138D2*
D19*
G03X732106Y544024I984J0D01*
G01*
G03X730138Y544024I-984J0D01*
G01*
X731122D2*
D18*
X731350Y542858D1*
X730366D2*
D19*
G03X732335Y542858I984J0D01*
G01*
G03X730366Y542858I-984J0D01*
G01*
X731350D2*
D18*
X731398Y541669D1*
X730413D2*
D19*
G03X732382Y541669I984J0D01*
G01*
G03X730413Y541669I-984J0D01*
G01*
X731398D2*
D18*
X731256Y540492D1*
X730272D2*
D19*
G03X732240Y540492I984J0D01*
G01*
G03X730272Y540492I-984J0D01*
G01*
X731256D2*
D18*
X730933Y539350D1*
X729949D2*
D19*
G03X731917Y539350I984J0D01*
G01*
G03X729949Y539350I-984J0D01*
G01*
X730933D2*
D18*
X730433Y538272D1*
X729449D2*
D19*
G03X731417Y538272I984J0D01*
G01*
G03X729449Y538272I-984J0D01*
G01*
X730433D2*
D18*
X729776Y537283D1*
X728791D2*
D19*
G03X730760Y537283I984J0D01*
G01*
G03X728791Y537283I-984J0D01*
G01*
X729776D2*
D18*
X728965Y536413D1*
X727980D2*
D19*
G03X729949Y536413I984J0D01*
G01*
G03X727980Y536413I-984J0D01*
G01*
X728965D2*
D18*
X728031Y535677D1*
X727047D2*
D19*
G03X729016Y535677I984J0D01*
G01*
G03X727047Y535677I-984J0D01*
G01*
X728031D2*
D18*
X678492Y502654D1*
X677508D2*
D19*
G03X679476Y502654I984J0D01*
G01*
G03X677508Y502654I-984J0D01*
G01*
X678492D2*
D18*
X724492Y502626D1*
X723508D2*
D19*
G03X725476Y502626I984J0D01*
G01*
G03X723508Y502626I-984J0D01*
G01*
X724492D2*
D18*
X725854Y502382D1*
X724870D2*
D19*
G03X726839Y502382I984J0D01*
G01*
G03X724870Y502382I-984J0D01*
G01*
X725854D2*
D18*
X726791Y502055D1*
X725807D2*
D19*
G03X727776Y502055I984J0D01*
G01*
G03X725807Y502055I-984J0D01*
G01*
X726791D2*
D18*
X727791Y501539D1*
X726807D2*
D19*
G03X728776Y501539I984J0D01*
G01*
G03X726807Y501539I-984J0D01*
G01*
X727791D2*
D18*
X728878Y500724D1*
X727894D2*
D19*
G03X729862Y500724I984J0D01*
G01*
G03X727894Y500724I-984J0D01*
G01*
X728878D2*
D18*
X729591Y500004D1*
X728606D2*
D19*
G03X730575Y500004I984J0D01*
G01*
G03X728606Y500004I-984J0D01*
G01*
X729591D2*
D18*
X730287Y499043D1*
X729303D2*
D19*
G03X731272Y499043I984J0D01*
G01*
G03X729303Y499043I-984J0D01*
G01*
X730287D2*
D18*
X730421Y498815D1*
X729437D2*
D19*
G03X731406Y498815I984J0D01*
G01*
G03X729437Y498815I-984J0D01*
G01*
X730421D2*
D18*
X731031Y497425D1*
X730047D2*
D19*
G03X732016Y497425I984J0D01*
G01*
G03X730047Y497425I-984J0D01*
G01*
X731031D2*
D18*
X731311Y496272D1*
X730327D2*
D19*
G03X732295Y496272I984J0D01*
G01*
G03X730327Y496272I-984J0D01*
G01*
X731311D2*
D18*
X731406Y495087D1*
X730421D2*
D19*
G03X732390Y495087I984J0D01*
G01*
G03X730421Y495087I-984J0D01*
G01*
X731406D2*
D18*
X731311Y493902D1*
X730327D2*
D19*
G03X732295Y493902I984J0D01*
G01*
G03X730327Y493902I-984J0D01*
G01*
X731311D2*
D18*
X730969Y492571D1*
X729984D2*
D19*
G03X731953Y492571I984J0D01*
G01*
G03X729984Y492571I-984J0D01*
G01*
X730969D2*
D18*
X730579Y491650D1*
X729594D2*
D19*
G03X731563Y491650I984J0D01*
G01*
G03X729594Y491650I-984J0D01*
G01*
X730579D2*
D18*
X729957Y490638D1*
X728972D2*
D19*
G03X730941Y490638I984J0D01*
G01*
G03X728972Y490638I-984J0D01*
G01*
X729957D2*
D18*
X729138Y489689D1*
X728154D2*
D19*
G03X730122Y489689I984J0D01*
G01*
G03X728154Y489689I-984J0D01*
G01*
X729138D2*
D18*
X728283Y488965D1*
X727299D2*
D19*
G03X729268Y488965I984J0D01*
G01*
G03X727299Y488965I-984J0D01*
G01*
X728283D2*
D18*
X727130Y488276D1*
X726146D2*
D19*
G03X728114Y488276I984J0D01*
G01*
G03X726146Y488276I-984J0D01*
G01*
X727130D2*
D18*
X726102Y487870D1*
X725118D2*
D19*
G03X727087Y487870I984J0D01*
G01*
G03X725118Y487870I-984J0D01*
G01*
X726102D2*
D18*
X724756Y487571D1*
X723772D2*
D19*
G03X725740Y487571I984J0D01*
G01*
G03X723772Y487571I-984J0D01*
G01*
X724756D2*
D18*
X723768Y487516D1*
X722783D2*
D19*
G03X724752Y487516I984J0D01*
G01*
G03X722783Y487516I-984J0D01*
G01*
X723768D2*
D18*
X652902Y487539D1*
X651917D2*
D19*
G03X653886Y487539I984J0D01*
G01*
G03X651917Y487539I-984J0D01*
G01*
X652902D2*
D18*
X651728Y487728D1*
X650744D2*
D19*
G03X652713Y487728I984J0D01*
G01*
G03X650744Y487728I-984J0D01*
G01*
X651728D2*
D18*
X650598Y488094D1*
X649614D2*
D19*
G03X651583Y488094I984J0D01*
G01*
G03X649614Y488094I-984J0D01*
G01*
X650598D2*
D18*
X649539Y488634D1*
X648555D2*
D19*
G03X650524Y488634I984J0D01*
G01*
G03X648555Y488634I-984J0D01*
G01*
X649539D2*
D18*
X648579Y489331D1*
X647594D2*
D19*
G03X649563Y489331I984J0D01*
G01*
G03X647594Y489331I-984J0D01*
G01*
X648579D2*
D18*
X647740Y490169D1*
X646756D2*
D19*
G03X648724Y490169I984J0D01*
G01*
G03X646756Y490169I-984J0D01*
G01*
X647740D2*
D18*
X647043Y491130D1*
X646059D2*
D19*
G03X648028Y491130I984J0D01*
G01*
G03X646059Y491130I-984J0D01*
G01*
X647043D2*
D18*
X646504Y492189D1*
X645520D2*
D19*
G03X647488Y492189I984J0D01*
G01*
G03X645520Y492189I-984J0D01*
G01*
X646504D2*
D18*
X646138Y493319D1*
X645154D2*
D19*
G03X647122Y493319I984J0D01*
G01*
G03X645154Y493319I-984J0D01*
G01*
X646138D2*
D18*
X645949Y494492D1*
X644965D2*
D19*
G03X646933Y494492I984J0D01*
G01*
G03X644965Y494492I-984J0D01*
G01*
X645949D2*
D18*
Y495681D1*
X644965D2*
D19*
G03X646933Y495681I984J0D01*
G01*
G03X644965Y495681I-984J0D01*
G01*
X645949D2*
D18*
X646138Y496854D1*
X645154D2*
D19*
G03X647122Y496854I984J0D01*
G01*
G03X645154Y496854I-984J0D01*
G01*
X646138D2*
D18*
X646504Y497984D1*
X645520D2*
D19*
G03X647488Y497984I984J0D01*
G01*
G03X645520Y497984I-984J0D01*
G01*
X646504D2*
D18*
X647043Y499043D1*
X646059D2*
D19*
G03X648028Y499043I984J0D01*
G01*
G03X646059Y499043I-984J0D01*
G01*
X647043D2*
D18*
X647740Y500004D1*
X646756D2*
D19*
G03X648724Y500004I984J0D01*
G01*
G03X646756Y500004I-984J0D01*
G01*
X647740D2*
D18*
X648579Y500843D1*
X647594D2*
D19*
G03X649563Y500843I984J0D01*
G01*
G03X647594Y500843I-984J0D01*
G01*
X648579D2*
D18*
X650937Y502476D1*
X649953D2*
D19*
G03X651921Y502476I984J0D01*
G01*
G03X649953Y502476I-984J0D01*
G01*
X650937D2*
D18*
X698839Y534409D1*
X697854D2*
D19*
G03X699823Y534409I984J0D01*
G01*
G03X697854Y534409I-984J0D01*
G01*
X698839D2*
D18*
X652839Y534437D1*
X651854D2*
D19*
G03X653823Y534437I984J0D01*
G01*
G03X651854Y534437I-984J0D01*
G01*
X652839D2*
D18*
X651476Y534681D1*
X650492D2*
D19*
G03X652461Y534681I984J0D01*
G01*
G03X650492Y534681I-984J0D01*
G01*
X651476D2*
D18*
X650539Y535008D1*
X649555D2*
D19*
G03X651524Y535008I984J0D01*
G01*
G03X649555Y535008I-984J0D01*
G01*
X650539D2*
D18*
X649539Y535524D1*
X648555D2*
D19*
G03X650524Y535524I984J0D01*
G01*
G03X648555Y535524I-984J0D01*
G01*
X649539D2*
D18*
X648457Y536335D1*
X647472D2*
D19*
G03X649441Y536335I984J0D01*
G01*
G03X647472Y536335I-984J0D01*
G01*
X648457D2*
D18*
X647740Y537059D1*
X646756D2*
D19*
G03X648724Y537059I984J0D01*
G01*
G03X646756Y537059I-984J0D01*
G01*
X647740D2*
D18*
X647043Y538020D1*
X646059D2*
D19*
G03X648028Y538020I984J0D01*
G01*
G03X646059Y538020I-984J0D01*
G01*
X647043D2*
D18*
X646480Y539138D1*
X645496D2*
D19*
G03X647465Y539138I984J0D01*
G01*
G03X645496Y539138I-984J0D01*
G01*
X646480D2*
D18*
X646138Y540209D1*
X645154D2*
D19*
G03X647122Y540209I984J0D01*
G01*
G03X645154Y540209I-984J0D01*
G01*
X646138D2*
D18*
X645941Y541579D1*
X644957D2*
D19*
G03X646925Y541579I984J0D01*
G01*
G03X644957Y541579I-984J0D01*
G01*
X645941D2*
D18*
X646020Y543161D1*
X645035D2*
D19*
G03X647004Y543161I984J0D01*
G01*
G03X645035Y543161I-984J0D01*
G01*
X646020D2*
D18*
X646366Y544496D1*
X645382D2*
D19*
G03X647350Y544496I984J0D01*
G01*
G03X645382Y544496I-984J0D01*
G01*
X646366D2*
D18*
X646752Y545413D1*
X645768D2*
D19*
G03X647736Y545413I984J0D01*
G01*
G03X645768Y545413I-984J0D01*
G01*
X646752D2*
D18*
X647374Y546425D1*
X646390D2*
D19*
G03X648358Y546425I984J0D01*
G01*
G03X646390Y546425I-984J0D01*
G01*
X647374D2*
D18*
X648193Y547374D1*
X647209D2*
D19*
G03X649177Y547374I984J0D01*
G01*
G03X647209Y547374I-984J0D01*
G01*
X648193D2*
D18*
X649047Y548098D1*
X648063D2*
D19*
G03X650031Y548098I984J0D01*
G01*
G03X648063Y548098I-984J0D01*
G01*
X649047D2*
D18*
X650201Y548787D1*
X649217D2*
D19*
G03X651185Y548787I984J0D01*
G01*
G03X649217Y548787I-984J0D01*
G01*
X650201D2*
D18*
X651228Y549193D1*
X650244D2*
D19*
G03X652213Y549193I984J0D01*
G01*
G03X650244Y549193I-984J0D01*
G01*
X651228D2*
D18*
X652575Y549492D1*
X651591D2*
D19*
G03X653559Y549492I984J0D01*
G01*
G03X651591Y549492I-984J0D01*
G01*
X652575D2*
D18*
X653563Y549547D1*
X652579D2*
D19*
G03X654547Y549547I984J0D01*
G01*
G03X652579Y549547I-984J0D01*
G01*
X661071Y571161D2*
D18*
X716264D1*
X660087D2*
D19*
G03X662055Y571161I984J0D01*
G01*
G03X660087Y571161I-984J0D01*
G01*
X715280D2*
G03X717248Y571161I984J0D01*
G01*
G03X715280Y571161I-984J0D01*
G01*
X716264D2*
D18*
Y585783D1*
X715280D2*
D19*
G03X717248Y585783I984J0D01*
G01*
G03X715280Y585783I-984J0D01*
G01*
X716264D2*
D18*
X713819Y593020D1*
X712835D2*
D19*
G03X714803Y593020I984J0D01*
G01*
G03X712835Y593020I-984J0D01*
G01*
X713819D2*
D18*
X709287Y597598D1*
X708303D2*
D19*
G03X710272Y597598I984J0D01*
G01*
G03X708303Y597598I-984J0D01*
G01*
X709287D2*
D18*
X704157Y600138D1*
X703173D2*
D19*
G03X705142Y600138I984J0D01*
G01*
G03X703173Y600138I-984J0D01*
G01*
X704157D2*
D18*
X695831Y602913D1*
X694846D2*
D19*
G03X696815Y602913I984J0D01*
G01*
G03X694846Y602913I-984J0D01*
G01*
X695831D2*
D18*
X681488Y602909D1*
X680504D2*
D19*
G03X682472Y602909I984J0D01*
G01*
G03X680504Y602909I-984J0D01*
G01*
X681488D2*
D18*
X673106Y600138D1*
X672122D2*
D19*
G03X674091Y600138I984J0D01*
G01*
G03X672122Y600138I-984J0D01*
G01*
X673106D2*
D18*
X668039Y597606D1*
X667055D2*
D19*
G03X669024Y597606I984J0D01*
G01*
G03X667055Y597606I-984J0D01*
G01*
X668039D2*
D18*
X663441Y593012D1*
X662457D2*
D19*
G03X664425Y593012I984J0D01*
G01*
G03X662457Y593012I-984J0D01*
G01*
X663441D2*
D18*
X661067Y585819D1*
X660083D2*
D19*
G03X662051Y585819I984J0D01*
G01*
G03X660083Y585819I-984J0D01*
G01*
X661067D2*
D18*
Y571157D1*
X660083D2*
D19*
G03X662051Y571157I984J0D01*
G01*
G03X660083Y571157I-984J0D01*
G01*
X646311Y589421D2*
D18*
X649846Y600028D1*
X645327Y589421D2*
D19*
G03X647295Y589421I984J0D01*
G01*
G03X645327Y589421I-984J0D01*
G01*
X648862Y600028D2*
G03X650831Y600028I984J0D01*
G01*
G03X648862Y600028I-984J0D01*
G01*
X649846D2*
D18*
X650390Y601083D1*
X649406D2*
D19*
G03X651374Y601083I984J0D01*
G01*
G03X649406Y601083I-984J0D01*
G01*
X650390D2*
D18*
X651094Y602043D1*
X650110D2*
D19*
G03X652079Y602043I984J0D01*
G01*
G03X650110Y602043I-984J0D01*
G01*
X651094D2*
D18*
X658205Y609177D1*
X657220D2*
D19*
G03X659189Y609177I984J0D01*
G01*
G03X657220Y609177I-984J0D01*
G01*
X658205D2*
D18*
X659106Y609949D1*
X658122D2*
D19*
G03X660091Y609949I984J0D01*
G01*
G03X658122Y609949I-984J0D01*
G01*
X659106D2*
D18*
X660177Y610602D1*
X659193D2*
D19*
G03X661161Y610602I984J0D01*
G01*
G03X659193Y610602I-984J0D01*
G01*
X660177D2*
D18*
X667374Y614169D1*
X666390D2*
D19*
G03X668358Y614169I984J0D01*
G01*
G03X666390Y614169I-984J0D01*
G01*
X667374D2*
D18*
X677894Y617665D1*
X676909D2*
D19*
G03X678878Y617665I984J0D01*
G01*
G03X676909Y617665I-984J0D01*
G01*
X677894D2*
D18*
X679047Y617949D1*
X678063D2*
D19*
G03X680031Y617949I984J0D01*
G01*
G03X678063Y617949I-984J0D01*
G01*
X679047D2*
D18*
X680280Y618051D1*
X679295D2*
D19*
G03X681264Y618051I984J0D01*
G01*
G03X679295Y618051I-984J0D01*
G01*
X680280D2*
D18*
X697654Y618028D1*
X696669D2*
D19*
G03X698638Y618028I984J0D01*
G01*
G03X696669Y618028I-984J0D01*
G01*
X697654D2*
D18*
X698827Y617839D1*
X697843D2*
D19*
G03X699811Y617839I984J0D01*
G01*
G03X697843Y617839I-984J0D01*
G01*
X698827D2*
D18*
X705055Y615795D1*
X704071D2*
D19*
G03X706039Y615795I984J0D01*
G01*
G03X704071Y615795I-984J0D01*
G01*
X705055D2*
D18*
X709996Y614122D1*
X709012D2*
D19*
G03X710980Y614122I984J0D01*
G01*
G03X709012Y614122I-984J0D01*
G01*
X709996D2*
D18*
X717650Y610327D1*
X716665D2*
D19*
G03X718634Y610327I984J0D01*
G01*
G03X716665Y610327I-984J0D01*
G01*
X717650D2*
D18*
X718622Y609642D1*
X717638D2*
D19*
G03X719606Y609642I984J0D01*
G01*
G03X717638Y609642I-984J0D01*
G01*
X718622D2*
D18*
X721925Y606346D1*
X720941D2*
D19*
G03X722909Y606346I984J0D01*
G01*
G03X720941Y606346I-984J0D01*
G01*
X721925D2*
D18*
X726213Y601976D1*
X725228D2*
D19*
G03X727197Y601976I984J0D01*
G01*
G03X725228Y601976I-984J0D01*
G01*
X726213D2*
D18*
X726906Y601012D1*
X725921D2*
D19*
G03X727890Y601012I984J0D01*
G01*
G03X725921Y601012I-984J0D01*
G01*
X726906D2*
D18*
X727441Y599949D1*
X726457D2*
D19*
G03X728425Y599949I984J0D01*
G01*
G03X726457Y599949I-984J0D01*
G01*
X727441D2*
D18*
X731004Y589461D1*
X730020D2*
D19*
G03X731988Y589461I984J0D01*
G01*
G03X730020Y589461I-984J0D01*
G01*
X731004D2*
D18*
X731295Y588311D1*
X730311D2*
D19*
G03X732280Y588311I984J0D01*
G01*
G03X730311Y588311I-984J0D01*
G01*
X731295D2*
D18*
X731406Y587028D1*
X730421D2*
D19*
G03X732390Y587028I984J0D01*
G01*
G03X730421Y587028I-984J0D01*
G01*
X731406D2*
D18*
X731382Y562996D1*
X730398D2*
D19*
G03X732366Y562996I984J0D01*
G01*
G03X730398Y562996I-984J0D01*
G01*
X731382D2*
D18*
X731193Y561823D1*
X730209D2*
D19*
G03X732177Y561823I984J0D01*
G01*
G03X730209Y561823I-984J0D01*
G01*
X731193D2*
D18*
X730827Y560693D1*
X729843D2*
D19*
G03X731811Y560693I984J0D01*
G01*
G03X729843Y560693I-984J0D01*
G01*
X730827D2*
D18*
X730287Y559634D1*
X729303D2*
D19*
G03X731272Y559634I984J0D01*
G01*
G03X729303Y559634I-984J0D01*
G01*
X730287D2*
D18*
X729591Y558673D1*
X728606D2*
D19*
G03X730575Y558673I984J0D01*
G01*
G03X728606Y558673I-984J0D01*
G01*
X729591D2*
D18*
X728752Y557835D1*
X727768D2*
D19*
G03X729736Y557835I984J0D01*
G01*
G03X727768Y557835I-984J0D01*
G01*
X728752D2*
D18*
X727791Y557138D1*
X726807D2*
D19*
G03X728776Y557138I984J0D01*
G01*
G03X726807Y557138I-984J0D01*
G01*
X727791D2*
D18*
X726732Y556598D1*
X725748D2*
D19*
G03X727717Y556598I984J0D01*
G01*
G03X725748Y556598I-984J0D01*
G01*
X726732D2*
D18*
X725602Y556232D1*
X724618D2*
D19*
G03X726587Y556232I984J0D01*
G01*
G03X724618Y556232I-984J0D01*
G01*
X725602D2*
D18*
X724429Y556043D1*
X723445D2*
D19*
G03X725413Y556043I984J0D01*
G01*
G03X723445Y556043I-984J0D01*
G01*
X724429D2*
D18*
X712024Y556020D1*
X711039D2*
D19*
G03X713008Y556020I984J0D01*
G01*
G03X711039Y556020I-984J0D01*
G01*
X712024D2*
D18*
X652902Y556043D1*
X651917D2*
D19*
G03X653886Y556043I984J0D01*
G01*
G03X651917Y556043I-984J0D01*
G01*
X652902D2*
D18*
X651476Y556295D1*
X650492D2*
D19*
G03X652461Y556295I984J0D01*
G01*
G03X650492Y556295I-984J0D01*
G01*
X651476D2*
D18*
X650059Y556846D1*
X649075D2*
D19*
G03X651043Y556846I984J0D01*
G01*
G03X649075Y556846I-984J0D01*
G01*
X650059D2*
D18*
X649047Y557469D1*
X648063D2*
D19*
G03X650031Y557469I984J0D01*
G01*
G03X648063Y557469I-984J0D01*
G01*
X649047D2*
D18*
X648098Y558283D1*
X647114D2*
D19*
G03X649083Y558283I984J0D01*
G01*
G03X647114Y558283I-984J0D01*
G01*
X648098D2*
D18*
X647374Y559142D1*
X646390D2*
D19*
G03X648358Y559142I984J0D01*
G01*
G03X646390Y559142I-984J0D01*
G01*
X647374D2*
D18*
X646752Y560157D1*
X645768D2*
D19*
G03X647736Y560157I984J0D01*
G01*
G03X645768Y560157I-984J0D01*
G01*
X646752D2*
D18*
X646299Y561252D1*
X645315D2*
D19*
G03X647283Y561252I984J0D01*
G01*
G03X645315Y561252I-984J0D01*
G01*
X646299D2*
D18*
X646020Y562406D1*
X645035D2*
D19*
G03X647004Y562406I984J0D01*
G01*
G03X645035Y562406I-984J0D01*
G01*
X646020D2*
D18*
X645925Y563598D1*
X644941D2*
D19*
G03X646909Y563598I984J0D01*
G01*
G03X644941Y563598I-984J0D01*
G01*
X645925D2*
D18*
X645949Y587630D1*
X644965D2*
D19*
G03X646933Y587630I984J0D01*
G01*
G03X644965Y587630I-984J0D01*
G01*
X645949D2*
D18*
X646138Y588803D1*
X645154D2*
D19*
G03X647122Y588803I984J0D01*
G01*
G03X645154Y588803I-984J0D01*
G01*
X646138D2*
D18*
X646299Y589378D1*
X645315D2*
D19*
G03X647283Y589378I984J0D01*
G01*
G03X645315Y589378I-984J0D01*
G01*
X552701Y627476D2*
D18*
X561358Y624500D1*
X551717Y627476D2*
D19*
G03X553685Y627476I984J0D01*
G01*
G03X551717Y627476I-984J0D01*
G01*
X560374Y624500D2*
G03X562343Y624500I984J0D01*
G01*
G03X560374Y624500I-984J0D01*
G01*
X561358D2*
D18*
X564996Y622980D1*
X564012D2*
D19*
G03X565980Y622980I984J0D01*
G01*
G03X564012Y622980I-984J0D01*
G01*
X564996D2*
D18*
X572894Y619110D1*
X571909D2*
D19*
G03X573878Y619110I984J0D01*
G01*
G03X571909Y619110I-984J0D01*
G01*
X572894D2*
D18*
X576362Y617248D1*
X575378D2*
D19*
G03X577346Y617248I984J0D01*
G01*
G03X575378Y617248I-984J0D01*
G01*
X576362D2*
D18*
X579402Y615350D1*
X578417D2*
D19*
G03X580386Y615350I984J0D01*
G01*
G03X578417Y615350I-984J0D01*
G01*
X579402D2*
D18*
X586996Y610236D1*
X586012D2*
D19*
G03X587980Y610236I984J0D01*
G01*
G03X586012Y610236I-984J0D01*
G01*
X586996D2*
D18*
X590118Y607823D1*
X589134D2*
D19*
G03X591102Y607823I984J0D01*
G01*
G03X589134Y607823I-984J0D01*
G01*
X590118D2*
D18*
X596744Y602043D1*
X595760D2*
D19*
G03X597728Y602043I984J0D01*
G01*
G03X595760Y602043I-984J0D01*
G01*
X596744D2*
D18*
X599614Y599346D1*
X598630D2*
D19*
G03X600598Y599346I984J0D01*
G01*
G03X598630Y599346I-984J0D01*
G01*
X599614D2*
D18*
X602059Y596728D1*
X601075D2*
D19*
G03X603043Y596728I984J0D01*
G01*
G03X601075Y596728I-984J0D01*
G01*
X602059D2*
D18*
X608067Y589823D1*
X607083D2*
D19*
G03X609051Y589823I984J0D01*
G01*
G03X607083Y589823I-984J0D01*
G01*
X608067D2*
D18*
X610461Y586685D1*
X609476D2*
D19*
G03X611445Y586685I984J0D01*
G01*
G03X609476Y586685I-984J0D01*
G01*
X610461D2*
D18*
X615362Y579386D1*
X614378D2*
D19*
G03X616346Y579386I984J0D01*
G01*
G03X614378Y579386I-984J0D01*
G01*
X615362D2*
D18*
X617437Y576039D1*
X616453D2*
D19*
G03X618421Y576039I984J0D01*
G01*
G03X616453Y576039I-984J0D01*
G01*
X617437D2*
D18*
X619118Y572874D1*
X618134D2*
D19*
G03X620102Y572874I984J0D01*
G01*
G03X618134Y572874I-984J0D01*
G01*
X619118D2*
D18*
X623138Y564650D1*
X622154D2*
D19*
G03X624122Y564650I984J0D01*
G01*
G03X622154Y564650I-984J0D01*
G01*
X623138D2*
D18*
X624634Y561000D1*
X623650D2*
D19*
G03X625618Y561000I984J0D01*
G01*
G03X623650Y561000I-984J0D01*
G01*
X624634D2*
D18*
X627484Y552677D1*
X626500D2*
D19*
G03X628469Y552677I984J0D01*
G01*
G03X626500Y552677I-984J0D01*
G01*
X627484D2*
D18*
X628618Y548909D1*
X627634D2*
D19*
G03X629602Y548909I984J0D01*
G01*
G03X627634Y548909I-984J0D01*
G01*
X628618D2*
D18*
X629429Y545417D1*
X628445D2*
D19*
G03X630413Y545417I984J0D01*
G01*
G03X628445Y545417I-984J0D01*
G01*
X629429D2*
D18*
X631181Y536433D1*
X630197D2*
D19*
G03X632165Y536433I984J0D01*
G01*
G03X630197Y536433I-984J0D01*
G01*
X631181D2*
D18*
X631681Y532520D1*
X630697D2*
D19*
G03X632665Y532520I984J0D01*
G01*
G03X630697Y532520I-984J0D01*
G01*
X631681D2*
D18*
X632323Y522984D1*
X631339D2*
D19*
G03X633307Y522984I984J0D01*
G01*
G03X631339Y522984I-984J0D01*
G01*
X632323D2*
D18*
X632394Y519047D1*
X631409D2*
D19*
G03X633378Y519047I984J0D01*
G01*
G03X631409Y519047I-984J0D01*
G01*
X632394D2*
D18*
X632150Y514287D1*
X631165D2*
D19*
G03X633134Y514287I984J0D01*
G01*
G03X631165Y514287I-984J0D01*
G01*
X632150D2*
D18*
X631646Y507098D1*
X630661D2*
D19*
G03X632630Y507098I984J0D01*
G01*
G03X630661Y507098I-984J0D01*
G01*
X631646D2*
D18*
X631118Y503189D1*
X630134D2*
D19*
G03X632102Y503189I984J0D01*
G01*
G03X630134Y503189I-984J0D01*
G01*
X631118D2*
D18*
X629421Y494559D1*
X628437D2*
D19*
G03X630406Y494559I984J0D01*
G01*
G03X628437Y494559I-984J0D01*
G01*
X629421D2*
D18*
X628524Y490728D1*
X627539D2*
D19*
G03X629508Y490728I984J0D01*
G01*
G03X627539Y490728I-984J0D01*
G01*
X628524D2*
D18*
X627476Y487299D1*
X626492D2*
D19*
G03X628461Y487299I984J0D01*
G01*
G03X626492Y487299I-984J0D01*
G01*
X627476D2*
D18*
X624500Y478642D1*
X623516D2*
D19*
G03X625484Y478642I984J0D01*
G01*
G03X623516Y478642I-984J0D01*
G01*
X624500D2*
D18*
X622980Y475004D1*
X621996D2*
D19*
G03X623965Y475004I984J0D01*
G01*
G03X621996Y475004I-984J0D01*
G01*
X622980D2*
D18*
X619110Y467106D1*
X618126D2*
D19*
G03X620094Y467106I984J0D01*
G01*
G03X618126Y467106I-984J0D01*
G01*
X619110D2*
D18*
X617248Y463638D1*
X616264D2*
D19*
G03X618232Y463638I984J0D01*
G01*
G03X616264Y463638I-984J0D01*
G01*
X617248D2*
D18*
X615350Y460598D1*
X614366D2*
D19*
G03X616335Y460598I984J0D01*
G01*
G03X614366Y460598I-984J0D01*
G01*
X615350D2*
D18*
X610236Y453004D1*
X609252D2*
D19*
G03X611220Y453004I984J0D01*
G01*
G03X609252Y453004I-984J0D01*
G01*
X610236D2*
D18*
X607823Y449882D1*
X606839D2*
D19*
G03X608807Y449882I984J0D01*
G01*
G03X606839Y449882I-984J0D01*
G01*
X607823D2*
D18*
X602043Y443256D1*
X601059D2*
D19*
G03X603028Y443256I984J0D01*
G01*
G03X601059Y443256I-984J0D01*
G01*
X602043D2*
D18*
X599346Y440386D1*
X598362D2*
D19*
G03X600331Y440386I984J0D01*
G01*
G03X598362Y440386I-984J0D01*
G01*
X599346D2*
D18*
X596728Y437941D1*
X595744D2*
D19*
G03X597713Y437941I984J0D01*
G01*
G03X595744Y437941I-984J0D01*
G01*
X596728D2*
D18*
X589823Y431933D1*
X588839D2*
D19*
G03X590807Y431933I984J0D01*
G01*
G03X588839Y431933I-984J0D01*
G01*
X589823D2*
D18*
X586685Y429539D1*
X585701D2*
D19*
G03X587669Y429539I984J0D01*
G01*
G03X585701Y429539I-984J0D01*
G01*
X586685D2*
D18*
X578744Y424217D1*
X577760D2*
D19*
G03X579728Y424217I984J0D01*
G01*
G03X577760Y424217I-984J0D01*
G01*
X578744D2*
D18*
X575370Y422189D1*
X574386D2*
D19*
G03X576354Y422189I984J0D01*
G01*
G03X574386Y422189I-984J0D01*
G01*
X575370D2*
D18*
X571130Y420020D1*
X570146D2*
D19*
G03X572114Y420020I984J0D01*
G01*
G03X570146Y420020I-984J0D01*
G01*
X571130D2*
D18*
X564650Y416862D1*
X563665D2*
D19*
G03X565634Y416862I984J0D01*
G01*
G03X563665Y416862I-984J0D01*
G01*
X564650D2*
D18*
X561000Y415366D1*
X560016D2*
D19*
G03X561984Y415366I984J0D01*
G01*
G03X560016Y415366I-984J0D01*
G01*
X561000D2*
D18*
X552677Y412516D1*
X551693D2*
D19*
G03X553661Y412516I984J0D01*
G01*
G03X551693Y412516I-984J0D01*
G01*
X552677D2*
D18*
X550795Y411913D1*
X549811D2*
D19*
G03X551780Y411913I984J0D01*
G01*
G03X549811Y411913I-984J0D01*
G01*
X550795D2*
D18*
X551496Y411732D1*
X550512D2*
D19*
G03X552480Y411732I984J0D01*
G01*
G03X550512Y411732I-984J0D01*
G01*
X551496D2*
D18*
X746370D1*
X745386D2*
D19*
G03X747354Y411732I984J0D01*
G01*
G03X745386Y411732I-984J0D01*
G01*
X746370D2*
D18*
X746378Y628260D1*
X745394D2*
D19*
G03X747362Y628260I984J0D01*
G01*
G03X745394Y628260I-984J0D01*
G01*
X746378D2*
D18*
X551496Y628268D1*
X550512D2*
D19*
G03X552480Y628268I984J0D01*
G01*
G03X550512Y628268I-984J0D01*
G01*
X551496D2*
D18*
X551169Y627972D1*
X550185D2*
D19*
G03X552154Y627972I984J0D01*
G01*
G03X550185Y627972I-984J0D01*
G01*
X551169D2*
D18*
X551496Y628268D1*
X550181D1*
X549197D2*
D19*
G03X551165Y628268I984J0D01*
G01*
G03X549197Y628268I-984J0D01*
G01*
X405827Y520000D2*
D14*
G02X405827Y520000I114173J0D01*
G01*
X1413701Y2000315D2*
G02X1413701Y2000315I114173J0D01*
G01*
X405827D2*
G02X405827Y2000315I114173J0D01*
G01*
X1083298Y1975757D2*
D12*
X1104243D1*
X1077543Y1972765D2*
X1109997D1*
X1072844Y1969773D2*
X1114696D1*
X1069088Y1966781D2*
X1118441D1*
X1066103Y1963789D2*
X1121333D1*
X1063788Y1960797D2*
X1123371D1*
X1062002Y1957804D2*
X1124822D1*
X1060725Y1954812D2*
X1126048D1*
X1059985Y1951820D2*
X1127022D1*
X1059633Y1948828D2*
X1127525D1*
X1059579Y1945836D2*
X1127453D1*
X1059896Y1942844D2*
X1126863D1*
X1060601Y1939852D2*
X1070879D1*
X1085690D2*
X1101839D1*
X1116662D2*
X1126048D1*
X1061464Y1936860D2*
X1070242D1*
X1087678D2*
X1100100D1*
X1117299D2*
X1125154D1*
X1062376Y1933867D2*
X1069634D1*
X1088294D2*
X1098931D1*
X1117907D2*
X1124063D1*
X1063474Y1930875D2*
X1070072D1*
X1087713D2*
X1099085D1*
X1117469D2*
X1122790D1*
X1064749Y1927883D2*
X1072138D1*
X1085552D2*
X1101485D1*
X1115402D2*
X1121500D1*
X1066052Y1924891D2*
X1077228D1*
X1080421D2*
X1108220D1*
X1110312D2*
X1120424D1*
X1067245Y1921899D2*
X1119639D1*
X1068517Y1918907D2*
X1089832D1*
X1097708D2*
X1118692D1*
X1070137Y1915915D2*
X1087890D1*
X1099651D2*
X1117293D1*
X1073555Y1912923D2*
X1086290D1*
X1101251D2*
X1113812D1*
X1077248Y1909930D2*
X1109685D1*
X1080498Y1906938D2*
X1105424D1*
X1074322Y1903946D2*
X1077314D1*
X1083298D2*
X1101251D1*
X1107235Y1900954D2*
X1110227D1*
X1077314Y1897962D2*
X1080306D1*
X1103492D2*
X1109639D1*
X1078822Y1894970D2*
X1091713D1*
X1094257D2*
X1108397D1*
X1080683Y1891978D2*
X1106407D1*
X1082960Y1888986D2*
X1103901D1*
X1085884Y1885993D2*
X1101127D1*
X1050385Y1883001D2*
X1053377D1*
X1089282D2*
X1098259D1*
X1134164D2*
X1137156D1*
X1048992Y1880009D2*
X1057876D1*
X1129665D2*
X1137270D1*
X1048027Y1877017D2*
X1062227D1*
X1125313D2*
X1137665D1*
X1047211Y1874025D2*
X1066870D1*
X1120671D2*
X1138497D1*
X1046301Y1871033D2*
X1072060D1*
X1115480D2*
X1139734D1*
X1045448Y1868041D2*
X1077862D1*
X1109678D2*
X1141324D1*
X1044851Y1865049D2*
X1084590D1*
X1102951D2*
X1143140D1*
X1044400Y1862056D2*
X1050385D1*
X1067787D2*
X1092545D1*
X1094996D2*
X1116457D1*
X1134164D2*
X1140148D1*
X1075714Y1859064D2*
X1111402D1*
X1083298Y1856072D2*
X1107464D1*
X1079706Y1853080D2*
X1104243D1*
X1075355Y1850088D2*
X1109993D1*
X1069898Y1847096D2*
X1086866D1*
X1101713D2*
X1115990D1*
X1063430Y1844104D2*
X1082019D1*
X1105447D2*
X1122517D1*
X1056787Y1841112D2*
X1077655D1*
X1109214D2*
X1129015D1*
X1051323Y1838119D2*
X1073578D1*
X1112718D2*
X1134564D1*
X1047173Y1835127D2*
X1070095D1*
X1115883D2*
X1139089D1*
X1045241Y1832135D2*
X1067598D1*
X1118619D2*
X1143140D1*
X1046953Y1829143D2*
X1065812D1*
X1120922D2*
X1138048D1*
X1051292Y1826151D2*
X1064135D1*
X1123044D2*
X1133022D1*
X1056369Y1823159D2*
X1062353D1*
X1125188D2*
X1128180D1*
X1083298Y1975757D2*
X1077543Y1972765D1*
X1072844Y1969773D1*
X1069088Y1966781D1*
X1066103Y1963789D1*
X1063788Y1960797D1*
X1062002Y1957804D1*
X1060725Y1954812D1*
X1059985Y1951820D1*
X1059633Y1948828D1*
X1059579Y1945836D1*
X1059896Y1942844D1*
X1060601Y1939852D1*
X1061464Y1936860D1*
X1062376Y1933867D1*
X1063474Y1930875D1*
X1064749Y1927883D1*
X1066052Y1924891D1*
X1067245Y1921899D1*
X1068517Y1918907D1*
X1070137Y1915915D1*
X1073555Y1912923D1*
X1077248Y1909930D1*
X1080498Y1906938D1*
X1083298Y1903946D1*
X1104243Y1975757D2*
X1109997Y1972765D1*
X1114696Y1969773D1*
X1118441Y1966781D1*
X1121333Y1963789D1*
X1123371Y1960797D1*
X1124822Y1957804D1*
X1126048Y1954812D1*
X1127022Y1951820D1*
X1127525Y1948828D1*
X1127453Y1945836D1*
X1126863Y1942844D1*
X1126048Y1939852D1*
X1125154Y1936860D1*
X1124063Y1933867D1*
X1122790Y1930875D1*
X1121500Y1927883D1*
X1120424Y1924891D1*
X1119639Y1921899D1*
X1118692Y1918907D1*
X1117293Y1915915D1*
X1113812Y1912923D1*
X1109685Y1909930D1*
X1105424Y1906938D1*
X1101251Y1903946D1*
X1071329Y1942844D2*
X1070879Y1939852D1*
X1070242Y1936860D1*
X1069634Y1933867D1*
X1070072Y1930875D1*
X1072138Y1927883D1*
X1077228Y1924891D1*
X1083298Y1921899D1*
Y1942844D2*
X1085690Y1939852D1*
X1087678Y1936860D1*
X1088294Y1933867D1*
X1087713Y1930875D1*
X1085552Y1927883D1*
X1080421Y1924891D1*
X1074322Y1921899D1*
X1104243Y1942844D2*
X1101839Y1939852D1*
X1100100Y1936860D1*
X1098931Y1933867D1*
X1099085Y1930875D1*
X1101485Y1927883D1*
X1108220Y1924891D1*
X1116211Y1921899D1*
Y1942844D2*
X1116662Y1939852D1*
X1117299Y1936860D1*
X1117907Y1933867D1*
X1117469Y1930875D1*
X1115402Y1927883D1*
X1110312Y1924891D1*
X1104243Y1921899D1*
X1092274D2*
X1089832Y1918907D1*
X1087890Y1915915D1*
X1086290Y1912923D1*
X1098259Y1909930D1*
X1095266Y1921899D2*
X1097708Y1918907D1*
X1099651Y1915915D1*
X1101251Y1912923D1*
X1089282Y1909930D1*
X1074322Y1903946D2*
X1077314D2*
X1107235Y1900954D2*
X1103492Y1897962D1*
X1094257Y1894970D1*
X1083298Y1891978D1*
X1110227Y1900954D2*
X1109639Y1897962D1*
X1108397Y1894970D1*
X1106407Y1891978D1*
X1103901Y1888986D1*
X1101127Y1885993D1*
X1098259Y1883001D1*
X1077314Y1897962D2*
X1078822Y1894970D1*
X1080683Y1891978D1*
X1082960Y1888986D1*
X1085884Y1885993D1*
X1089282Y1883001D1*
X1080306Y1897962D2*
X1091713Y1894970D1*
X1104243Y1891978D1*
X1050385Y1883001D2*
X1048992Y1880009D1*
X1048027Y1877017D1*
X1047211Y1874025D1*
X1046301Y1871033D1*
X1045448Y1868041D1*
X1044851Y1865049D1*
X1044400Y1862056D1*
X1053377Y1883001D2*
X1057876Y1880009D1*
X1062227Y1877017D1*
X1066870Y1874025D1*
X1072060Y1871033D1*
X1077862Y1868041D1*
X1084590Y1865049D1*
X1092545Y1862056D1*
X1101251Y1859064D1*
X1134164Y1883001D2*
X1129665Y1880009D1*
X1125313Y1877017D1*
X1120671Y1874025D1*
X1115480Y1871033D1*
X1109678Y1868041D1*
X1102951Y1865049D1*
X1094996Y1862056D1*
X1086290Y1859064D1*
X1137156Y1883001D2*
X1137270Y1880009D1*
X1137665Y1877017D1*
X1138497Y1874025D1*
X1139734Y1871033D1*
X1141324Y1868041D1*
X1143140Y1865049D1*
X1140148Y1862056D1*
X1053377Y1865049D2*
X1050385Y1862056D1*
X1059361Y1865049D2*
X1067787Y1862056D1*
X1075714Y1859064D1*
X1083298Y1856072D1*
X1079706Y1853080D1*
X1075355Y1850088D1*
X1069898Y1847096D1*
X1063430Y1844104D1*
X1056787Y1841112D1*
X1051323Y1838119D1*
X1047173Y1835127D1*
X1045241Y1832135D1*
X1046953Y1829143D1*
X1051292Y1826151D1*
X1056369Y1823159D1*
X1122196Y1865049D2*
X1116457Y1862056D1*
X1111402Y1859064D1*
X1107464Y1856072D1*
X1104243Y1853080D1*
X1109993Y1850088D1*
X1115990Y1847096D1*
X1122517Y1844104D1*
X1129015Y1841112D1*
X1134564Y1838119D1*
X1139089Y1835127D1*
X1143140Y1832135D1*
X1138048Y1829143D1*
X1133022Y1826151D1*
X1128180Y1823159D1*
X1131172Y1865049D2*
X1134164Y1862056D1*
X1092274Y1850088D2*
X1086866Y1847096D1*
X1082019Y1844104D1*
X1077655Y1841112D1*
X1073578Y1838119D1*
X1070095Y1835127D1*
X1067598Y1832135D1*
X1065812Y1829143D1*
X1064135Y1826151D1*
X1062353Y1823159D1*
X1098259Y1850088D2*
X1101713Y1847096D1*
X1105447Y1844104D1*
X1109214Y1841112D1*
X1112718Y1838119D1*
X1115883Y1835127D1*
X1118619Y1832135D1*
X1120922Y1829143D1*
X1123044Y1826151D1*
X1125188Y1823159D1*
X469382Y728031D2*
D73*
X467956Y730883D1*
X465071Y733768D1*
X462219Y735194D1*
X456482D1*
X453597Y733768D1*
X450745Y730883D1*
X449286Y728031D1*
X447860Y723720D1*
Y716524D1*
X449286Y712246D1*
X450745Y709361D1*
X453597Y706509D1*
X456482Y705050D1*
X462219D1*
X465071Y706509D1*
X467956Y709361D1*
X469382Y712246D1*
X478645Y729424D2*
X481530Y730883D1*
X485841Y735161D1*
Y705050D1*
X694819Y1327105D2*
X691967Y1325679D1*
X689082Y1322794D1*
X687656Y1319942D1*
Y1314205D1*
X689082Y1311320D1*
X691967Y1308468D1*
X694818Y1307009D1*
X699129Y1305583D1*
X706326D1*
X710603Y1307009D1*
X713489Y1308468D1*
X716340Y1311320D1*
X717800Y1314205D1*
Y1319942D1*
X716340Y1322794D1*
X713489Y1325679D1*
X710604Y1327105D1*
X694852Y1337828D2*
X693426D1*
X690541Y1339254D1*
X689115Y1340679D1*
X687689Y1343565D1*
Y1349302D1*
X689115Y1352153D1*
X690541Y1353579D1*
X693426Y1355038D1*
X696278D1*
X699163Y1353579D1*
X703441Y1350727D1*
X717800Y1336368D1*
Y1356464D1*
X694819Y1449152D2*
X691967Y1447726D1*
X689082Y1444841D1*
X687656Y1441989D1*
Y1436252D1*
X689082Y1433367D1*
X691967Y1430515D1*
X694818Y1429056D1*
X699129Y1427630D1*
X706326D1*
X710603Y1429056D1*
X713489Y1430515D1*
X716340Y1433367D1*
X717800Y1436252D1*
Y1441989D1*
X716340Y1444841D1*
X713489Y1447726D1*
X710604Y1449152D1*
X687689Y1461301D2*
Y1477053D1*
X699163Y1468464D1*
Y1472775D1*
X700589Y1475627D1*
X702015Y1477053D1*
X706326Y1478512D1*
X709178D1*
X713489Y1477053D1*
X716374Y1474201D1*
X717800Y1469890D1*
Y1465579D1*
X716374Y1461301D1*
X714915Y1459875D1*
X712063Y1458416D1*
X694819Y1570486D2*
X691967Y1569060D1*
X689082Y1566175D1*
X687656Y1563324D1*
Y1557587D1*
X689082Y1554701D1*
X691967Y1551850D1*
X694818Y1550390D1*
X699129Y1548965D1*
X706326D1*
X710603Y1550390D1*
X713489Y1551850D1*
X716340Y1554701D1*
X717800Y1557587D1*
Y1563323D1*
X716340Y1566175D1*
X713489Y1569060D1*
X710604Y1570486D1*
X717800Y1594109D2*
X687689D1*
X707752Y1579750D1*
Y1601272D1*
X694819Y1693247D2*
X691967Y1691821D1*
X689082Y1688936D1*
X687656Y1686084D1*
Y1680347D1*
X689082Y1677462D1*
X691967Y1674610D1*
X694818Y1673151D1*
X699129Y1671725D1*
X706326D1*
X710603Y1673151D1*
X713489Y1674610D1*
X716340Y1677462D1*
X717800Y1680347D1*
Y1686084D1*
X716340Y1688936D1*
X713489Y1691821D1*
X710604Y1693247D1*
X687689Y1719721D2*
Y1705395D1*
X700589Y1703969D1*
X699163Y1705395D1*
X697704Y1709706D1*
Y1713984D1*
X699163Y1718295D1*
X702015Y1721180D1*
X706326Y1722606D1*
X709178D1*
X713489Y1721180D1*
X716374Y1718295D1*
X717800Y1713984D1*
Y1709706D1*
X716374Y1705395D1*
X714915Y1703969D1*
X712063Y1702510D1*
X1335708Y2102047D2*
X1334282Y2104898D1*
X1331397Y2107783D1*
X1328545Y2109209D1*
X1322808D1*
X1319923Y2107783D1*
X1317072Y2104898D1*
X1315612Y2102047D1*
X1314186Y2097735D1*
Y2090539D1*
X1315612Y2086262D1*
X1317072Y2083376D1*
X1319923Y2080525D1*
X1322808Y2079065D1*
X1328545D1*
X1331397Y2080525D1*
X1334282Y2083376D1*
X1335708Y2086262D1*
X1362183Y2104898D2*
X1360757Y2107750D1*
X1356446Y2109176D1*
X1353594D1*
X1349283Y2107750D1*
X1346398Y2103439D1*
X1344972Y2096276D1*
Y2089113D1*
X1346398Y2083376D1*
X1349283Y2080491D1*
X1353594Y2079065D1*
X1355020D1*
X1359298Y2080491D1*
X1362183Y2083376D1*
X1363609Y2087687D1*
Y2089113D1*
X1362183Y2093424D1*
X1359298Y2096276D1*
X1355020Y2097702D1*
X1353594D1*
X1349283Y2096276D1*
X1346398Y2093424D1*
X1344972Y2089113D1*
X1252302Y2102047D2*
X1250876Y2104898D1*
X1247991Y2107783D1*
X1245139Y2109209D1*
X1239402D1*
X1236517Y2107783D1*
X1233665Y2104898D1*
X1232206Y2102047D1*
X1230780Y2097735D1*
Y2090539D1*
X1232206Y2086262D1*
X1233665Y2083376D1*
X1236517Y2080525D1*
X1239402Y2079065D1*
X1245139D1*
X1247991Y2080525D1*
X1250876Y2083376D1*
X1252302Y2086262D1*
X1267302Y2079065D2*
X1281661Y2109176D1*
X1261565D1*
X781846Y575496D2*
X780420Y578348D1*
X777535Y581233D1*
X774683Y582659D1*
X768946D1*
X766061Y581233D1*
X763209Y578348D1*
X761750Y575496D1*
X760324Y571185D1*
Y563989D1*
X761750Y559712D1*
X763209Y556826D1*
X766061Y553975D1*
X768946Y552515D1*
X774683D1*
X777535Y553975D1*
X780420Y556826D1*
X781846Y559712D1*
X798272Y582626D2*
X793994Y581200D1*
X792535Y578348D1*
Y575463D1*
X793994Y572611D1*
X796846Y571152D1*
X802583Y569726D1*
X806894Y568300D1*
X809746Y565415D1*
X811172Y562563D1*
Y558252D1*
X809746Y555400D1*
X808320Y553941D1*
X804009Y552515D1*
X798272D1*
X793994Y553941D1*
X792535Y555400D1*
X791109Y558252D1*
Y562563D1*
X792535Y565415D1*
X795420Y568300D1*
X799698Y569726D1*
X805435Y571152D1*
X808320Y572611D1*
X809746Y575463D1*
Y578348D1*
X808320Y581200D1*
X804009Y582626D1*
X798272D1*
X463645Y842204D2*
X462219Y845056D1*
X459334Y847941D1*
X456482Y849367D1*
X450745D1*
X447860Y847941D1*
X445008Y845056D1*
X443549Y842204D1*
X442123Y837893D1*
Y830697D1*
X443549Y826419D1*
X445008Y823534D1*
X447860Y820682D1*
X450745Y819223D1*
X456482D1*
X459334Y820682D1*
X462219Y823534D1*
X463645Y826419D1*
X491578Y839319D2*
X490119Y835008D1*
X487267Y832123D1*
X482956Y830697D1*
X481530D1*
X477219Y832123D1*
X474367Y835008D1*
X472908Y839319D1*
Y840745D1*
X474367Y845056D1*
X477219Y847908D1*
X481530Y849334D1*
X482956D1*
X487267Y847908D1*
X490119Y845056D1*
X491578Y839319D1*
Y832123D1*
X490119Y824960D1*
X487267Y820649D1*
X482956Y819223D1*
X480104D1*
X475793Y820649D1*
X474367Y823534D1*
X446828Y897322D2*
X445402Y900174D1*
X442517Y903059D1*
X439665Y904485D1*
X433928D1*
X431043Y903059D1*
X428191Y900174D1*
X426732Y897322D1*
X425306Y893011D1*
Y885815D1*
X426732Y881537D1*
X428191Y878652D1*
X431043Y875800D1*
X433928Y874341D1*
X439665D1*
X442517Y875800D1*
X445402Y878652D1*
X446828Y881537D1*
X456091Y898715D2*
X458976Y900174D1*
X463287Y904452D1*
Y874341D1*
X481173Y904452D2*
X476862Y903026D1*
X473977Y898715D1*
X472551Y891552D1*
Y887241D1*
X473977Y880078D1*
X476862Y875767D1*
X481173Y874341D1*
X484025D1*
X488336Y875767D1*
X491188Y880078D1*
X492647Y887241D1*
Y891552D1*
X491188Y898715D1*
X488336Y903026D1*
X484025Y904452D1*
X481173D1*
X491188Y898715D2*
X473977Y880078D1*
X1053086Y783986D2*
X1050234Y782561D1*
X1047349Y779675D1*
X1045923Y776824D1*
Y771087D1*
X1047349Y768202D1*
X1050234Y765350D1*
X1053086Y763891D1*
X1057397Y762465D1*
X1064593D1*
X1068871Y763891D1*
X1071756Y765350D1*
X1074608Y768202D1*
X1076067Y771087D1*
Y776823D1*
X1074608Y779675D1*
X1071756Y782560D1*
X1068871Y783986D1*
X1051693Y793250D2*
X1050234Y796135D1*
X1045956Y800446D1*
X1076067D1*
X1051693Y809710D2*
X1050234Y812595D1*
X1045956Y816906D1*
X1076067D1*
X842208Y1895423D2*
X872352D1*
Y1905471D1*
X870893Y1909782D1*
X868041Y1912667D1*
X865156Y1914093D1*
X860878Y1915519D1*
X853682D1*
X849371Y1914093D1*
X846519Y1912667D1*
X843634Y1909782D1*
X842208Y1905471D1*
Y1895423D1*
X847978Y1924783D2*
X846519Y1927668D1*
X842241Y1931979D1*
X872352D1*
X1201629Y1364997D2*
Y1334853D1*
X1218840D1*
X1228104Y1359227D2*
X1230989Y1360686D1*
X1235300Y1364964D1*
Y1334853D1*
X1204346Y444248D2*
Y474392D1*
X1192873Y444248D1*
X1181399Y474392D1*
Y444248D1*
X1213610Y468622D2*
X1216495Y470081D1*
X1220806Y474359D1*
Y444248D1*
X448573Y669654D2*
X461472D1*
X465784Y671113D1*
X467243Y672539D1*
X468669Y675391D1*
Y678276D1*
X467243Y681128D1*
X465784Y682587D1*
X461472Y684013D1*
X448573D1*
Y653869D1*
X458621Y669654D2*
X468669Y653869D1*
X477932Y678242D2*
X480817Y679702D1*
X485128Y683979D1*
Y653869D1*
X669559Y2003146D2*
Y2016046D1*
X668100Y2020357D1*
X666674Y2021816D1*
X663822Y2023242D1*
X660937D1*
X658085Y2021816D1*
X656626Y2020357D1*
X655200Y2016046D1*
Y2003146D1*
X685344D1*
X669559Y2013194D2*
X685344Y2023242D1*
X662396Y2033965D2*
X660970D1*
X658085Y2035391D1*
X656659Y2036817D1*
X655233Y2039702D1*
Y2045439D1*
X656659Y2048291D1*
X658085Y2049717D1*
X660970Y2051176D1*
X663822D1*
X666707Y2049717D1*
X670985Y2046865D1*
X685344Y2032506D1*
Y2052602D1*
X438186Y779890D2*
X451086D1*
X455397Y781349D1*
X456856Y782775D1*
X458282Y785627D1*
Y788512D1*
X456856Y791364D1*
X455397Y792823D1*
X451086Y794249D1*
X438186D1*
Y764105D1*
X448234Y779890D2*
X458282Y764105D1*
X470430Y794216D2*
X486182D1*
X477593Y782742D1*
X481904D1*
X484756Y781316D1*
X486182Y779890D1*
X487641Y775579D1*
Y772727D1*
X486182Y768416D1*
X483330Y765531D1*
X479019Y764105D1*
X474708D1*
X470430Y765531D1*
X469004Y766990D1*
X467545Y769842D1*
X1003196Y439441D2*
Y452341D1*
X1001737Y456652D1*
X1000311Y458111D1*
X997459Y459537D1*
X994574D1*
X991722Y458111D1*
X990263Y456652D1*
X988837Y452341D1*
Y439441D1*
X1018981D1*
X1003196Y449489D2*
X1018981Y459537D1*
Y483160D2*
X988870D1*
X1008933Y468801D1*
Y490323D1*
X995322Y560233D2*
Y573133D1*
X993863Y577444D1*
X992437Y578903D1*
X989585Y580329D1*
X986700D1*
X983848Y578903D1*
X982389Y577444D1*
X980963Y573133D1*
Y560233D1*
X1011107D1*
X995322Y570281D2*
X1011107Y580329D1*
X980996Y606803D2*
Y592478D1*
X993896Y591052D1*
X992470Y592478D1*
X991011Y596789D1*
Y601066D1*
X992470Y605377D1*
X995322Y608262D1*
X999633Y609688D1*
X1002485D1*
X1006796Y608262D1*
X1009681Y605377D1*
X1011107Y601066D1*
Y596789D1*
X1009681Y592477D1*
X1008222Y591052D1*
X1005370Y589592D1*
X719731Y820805D2*
Y833705D1*
X718272Y838016D1*
X716846Y839475D1*
X713994Y840901D1*
X711109D1*
X708257Y839475D1*
X706798Y838016D1*
X705372Y833705D1*
Y820805D1*
X735516D1*
X719731Y830853D2*
X735516Y840901D1*
X709683Y867375D2*
X706831Y865950D1*
X705405Y861639D1*
Y858787D1*
X706831Y854476D1*
X711142Y851591D1*
X718305Y850165D1*
X725468D1*
X731205Y851590D1*
X734090Y854476D1*
X735516Y858787D1*
Y860212D1*
X734090Y864490D1*
X731205Y867375D1*
X726894Y868801D1*
X725468D1*
X721157Y867375D1*
X718305Y864490D1*
X716879Y860213D1*
Y858787D1*
X718305Y854476D1*
X721157Y851590D1*
X725468Y850165D1*
X669559Y1906690D2*
Y1919590D1*
X668100Y1923901D1*
X666674Y1925360D1*
X663822Y1926786D1*
X660937D1*
X658085Y1925360D1*
X656626Y1923901D1*
X655200Y1919590D1*
Y1906690D1*
X685344D1*
X669559Y1916738D2*
X685344Y1926786D1*
Y1941786D2*
X655233Y1956145D1*
Y1936049D1*
X859462Y950190D2*
X872362D1*
X876673Y951649D1*
X878132Y953075D1*
X879558Y955927D1*
Y958812D1*
X878132Y961664D1*
X876673Y963123D1*
X872362Y964549D1*
X859462D1*
Y934405D1*
X869510Y950190D2*
X879558Y934405D1*
X895985Y964516D2*
X891707Y963090D1*
X890248Y960238D1*
Y957353D1*
X891707Y954501D1*
X894559Y953042D1*
X900296Y951616D1*
X904607Y950190D1*
X907458Y947305D1*
X908884Y944453D1*
Y940142D1*
X907458Y937290D1*
X906033Y935831D1*
X901721Y934405D1*
X895985D1*
X891707Y935831D1*
X890248Y937290D1*
X888822Y940142D1*
Y944453D1*
X890248Y947305D1*
X893133Y950190D1*
X897410Y951616D1*
X903147Y953042D1*
X906033Y954501D1*
X907458Y957353D1*
Y960238D1*
X906033Y963090D1*
X901721Y964516D1*
X895985D1*
X804872Y835590D2*
Y814068D1*
X806298Y809757D1*
X809183Y806905D1*
X813494Y805446D1*
X816346D1*
X820657Y806905D1*
X823542Y809757D1*
X824968Y814068D1*
Y835590D1*
X834231Y829820D2*
X837116Y831279D1*
X841427Y835557D1*
Y805446D1*
X645319Y1219783D2*
D74*
X664442Y1169543D1*
X683566Y1219783D1*
X699005D2*
Y1169543D1*
X747937Y1219783D2*
Y1169543D1*
X714444Y1219783D1*
Y1169543D1*
X681379Y1109229D2*
X679003Y1113982D1*
X674194Y1118791D1*
X669441Y1121167D1*
X659879D1*
X655071Y1118791D1*
X650318Y1113982D1*
X647886Y1109229D1*
X645509Y1102044D1*
Y1090051D1*
X647886Y1082921D1*
X650318Y1078112D1*
X655071Y1073359D1*
X659879Y1070927D1*
X669441D1*
X674194Y1073359D1*
X679003Y1078112D1*
X681379Y1082921D1*
Y1090051D1*
X669441D1*
X730312Y1121167D2*
Y1070927D1*
X696819Y1121167D1*
Y1070927D1*
X745751Y1121167D2*
Y1070927D1*
X762498D1*
X769683Y1073359D1*
X774491Y1078112D1*
X776868Y1082921D1*
X779245Y1090051D1*
Y1102044D1*
X776868Y1109229D1*
X774491Y1113982D1*
X769683Y1118791D1*
X762498Y1121167D1*
X745751D1*
X801493Y1264992D2*
X799061Y1269801D1*
X791931Y1276986D1*
X842116D1*
Y1301987D2*
X791931Y1325919D1*
Y1292425D1*
Y1355728D2*
X794308Y1348543D1*
X801493Y1343734D1*
X813431Y1341358D1*
X820616D1*
X832554Y1343734D1*
X839739Y1348543D1*
X842116Y1355728D1*
Y1360481D1*
X839739Y1367666D1*
X832554Y1372419D1*
X820616Y1374851D1*
X813431D1*
X801493Y1372419D1*
X794308Y1367666D1*
X791931Y1360481D1*
Y1355728D1*
X801493Y1372419D2*
X832554Y1343734D1*
X791876Y1390290D2*
X842116Y1409414D1*
X791876Y1428537D1*
Y1526070D2*
X842116D1*
X791876Y1492577D1*
X842116D1*
X791876Y1541510D2*
X794253Y1543886D1*
X791876Y1546318D1*
X789444Y1543886D1*
X791876Y1541510D1*
X808623Y1543886D2*
X842116D1*
X808623Y1561757D2*
X842116Y1588066D1*
X808623D2*
X842116Y1561757D1*
X791876Y1603505D2*
X794253Y1605881D1*
X791876Y1608313D1*
X789444Y1605881D1*
X791876Y1603505D1*
X808623Y1605881D2*
X842116D1*
X822993Y1623753D2*
Y1652437D1*
X818184D1*
X813376Y1650061D1*
X810999Y1647684D1*
X808623Y1642876D1*
Y1635691D1*
X810999Y1630938D1*
X815808Y1626129D1*
X822993Y1623753D1*
X827746D1*
X834931Y1626129D1*
X839684Y1630938D1*
X842116Y1635691D1*
Y1642876D1*
X839684Y1647684D1*
X834931Y1652437D1*
X818184Y1716478D2*
Y1738033D1*
X815808Y1745163D1*
X813376Y1747594D1*
X808623Y1749971D1*
X801438D1*
X796684Y1747594D1*
X794253Y1745163D1*
X791876Y1738033D1*
Y1716478D1*
X842116D1*
X799061Y1798904D2*
X794253Y1794150D1*
X791876Y1786965D1*
Y1777404D1*
X794253Y1770219D1*
X799061Y1765410D1*
X803814D1*
X808623Y1767842D1*
X810999Y1770219D1*
X813376Y1774972D1*
X818184Y1789342D1*
X820561Y1794150D1*
X822993Y1796527D1*
X827746Y1798904D1*
X834931D1*
X839684Y1794150D1*
X842116Y1786965D1*
Y1777404D1*
X839684Y1770219D1*
X834931Y1765410D1*
X791876Y1814343D2*
X827746D1*
X834931Y1816719D1*
X839684Y1821528D1*
X842116Y1828713D1*
Y1833466D1*
X839684Y1840651D1*
X834931Y1845460D1*
X827746Y1847836D1*
X791876D1*
X1346296Y837703D2*
X1348672Y835326D1*
X1351104Y837703D1*
X1348672Y840135D1*
X1346296Y837703D1*
X1348672Y820956D2*
Y787463D1*
X1395228Y837703D2*
Y787463D1*
Y813771D2*
X1390475Y818579D1*
X1385666Y820956D1*
X1378481D1*
X1373728Y818579D1*
X1368920Y813771D1*
X1366543Y806586D1*
Y801833D1*
X1368920Y794648D1*
X1373728Y789895D1*
X1378481Y787463D1*
X1385666D1*
X1390475Y789895D1*
X1395228Y794648D1*
X1413099Y820956D2*
X1427414Y787463D1*
X1422661Y777901D1*
X1417852Y773093D1*
X1413099Y770716D1*
X1410667D1*
X1441784Y820956D2*
X1427414Y787463D1*
X1457223Y837703D2*
Y787463D1*
X1475039Y792271D2*
X1472663Y789839D1*
X1475039Y787463D1*
X1477471Y789839D1*
X1475039Y792271D1*
X1492910Y837703D2*
X1495287Y835326D1*
X1497719Y837703D1*
X1495287Y840135D1*
X1492910Y837703D1*
X1495287Y820956D2*
Y787463D1*
X1525096Y820956D2*
X1520343Y818579D1*
X1515535Y813771D1*
X1513158Y806586D1*
Y801833D1*
X1515535Y794648D1*
X1520343Y789895D1*
X1525096Y787463D1*
X1532281D1*
X1537090Y789895D1*
X1541843Y794648D1*
X1544275Y801833D1*
Y806586D1*
X1541843Y813771D1*
X1537090Y818579D1*
X1532281Y820956D1*
X1525096D1*
X1432910Y711409D2*
X1454410D1*
X1461595Y713841D1*
X1464026Y716217D1*
X1466403Y720970D1*
Y725779D1*
X1464026Y730532D1*
X1461595Y732964D1*
X1454410Y735341D1*
X1432910D1*
Y685101D1*
X1449656Y711409D2*
X1466403Y685101D1*
X1481842Y704224D2*
X1510527D1*
Y709032D1*
X1508151Y713841D1*
X1505774Y716217D1*
X1500966Y718594D1*
X1493780D1*
X1489027Y716217D1*
X1484219Y711409D1*
X1481842Y704224D1*
Y699471D1*
X1484219Y692286D1*
X1489027Y687532D1*
X1493780Y685101D1*
X1500966D1*
X1505774Y687532D1*
X1510527Y692286D1*
X1525966Y718594D2*
X1540336Y685101D1*
X1554651Y718594D1*
X1572467Y689909D2*
X1570091Y687477D1*
X1572467Y685101D1*
X1574899Y687477D1*
X1572467Y689909D1*
X1626208Y723402D2*
X1623832Y728155D1*
X1619023Y732964D1*
X1614270Y735341D1*
X1604708D1*
X1599900Y732964D1*
X1595147Y728155D1*
X1592715Y723402D1*
X1590338Y716217D1*
Y704224D1*
X1592715Y697094D1*
X1595147Y692286D1*
X1599900Y687532D1*
X1604708Y685101D1*
X1614270D1*
X1619023Y687532D1*
X1623832Y692286D1*
X1626208Y697094D1*
X679003Y1007683D2*
X674250Y1012491D1*
X667065Y1014868D1*
X657503D1*
X650318Y1012491D1*
X645509Y1007683D1*
Y1002930D1*
X647941Y998121D1*
X650318Y995745D1*
X655071Y993368D1*
X669441Y988560D1*
X674250Y986183D1*
X676626Y983751D1*
X679003Y978998D1*
Y971813D1*
X674250Y967060D1*
X667065Y964628D1*
X657503D1*
X650318Y967060D1*
X645509Y971813D1*
X694442Y1014868D2*
Y964628D1*
X727935Y1014868D2*
Y964628D1*
X694442Y990936D2*
X727935D1*
X743375Y1014868D2*
Y964628D1*
X760121D1*
X767306Y967060D1*
X772115Y971813D1*
X774491Y976622D1*
X776868Y983751D1*
Y995745D1*
X774491Y1002930D1*
X772115Y1007683D1*
X767306Y1012491D1*
X760121Y1014868D1*
X743375D1*
X825801D2*
Y964628D1*
X792307Y1014868D1*
Y964628D1*
X645509Y1027967D2*
X841240D1*
M02*
