M48
INCH
T01C0.0118
T02C0.0157
T03C0.034
T04C0.1102
%
T01
X+008074Y+007523
X+008074Y+007247
X+008074Y+006972
X+008389Y+006972
X+008389Y+007247
X+008389Y+007523
T02
X+007247Y+017917
X+005830Y+019609
X+005200Y+019255
X+004570Y+019609
X+004570Y+020397
X+005200Y+020751
X+005830Y+020397
X+004728Y+017365
X+004728Y+016972
X+004728Y+016578
X+004728Y+016184
X+004728Y+015791
X+004728Y+015397
X+004728Y+015003
X+004728Y+014609
X+004728Y+014216
X+004728Y+013822
X+004728Y+013428
X+004728Y+013035
X+008192Y+011932
X+009255Y+010436
X+009649Y+010436
X+009570Y+010043
X+009570Y+009649
X+009570Y+009255
X+009570Y+008861
X+009964Y+008861
X+009964Y+009255
X+009964Y+009649
X+009964Y+010043
X+009649Y+008468
X+010082Y+007680
X+008192Y+009334
X+006578Y+007759
X+007365Y+006539
X+007798Y+006224
X+008231Y+005712
X+008428Y+005239
X+008035Y+005239
X+007759Y+004924
X+007759Y+004531
X+005830Y+004806
X+005200Y+004452
X+004570Y+004806
X+004570Y+005594
X+005200Y+005948
X+004964Y+006617
X+004964Y+007011
X+004964Y+007405
X+004964Y+007798
X+004964Y+008192
X+004964Y+008586
X+004964Y+008980
X+005830Y+005594
X+014649Y+005594
X+015279Y+005948
X+015909Y+005594
X+015909Y+004806
X+015279Y+004452
X+014649Y+004806
X+013546Y+018743
X+013153Y+018743
X+012759Y+018743
X+012365Y+018743
X+011972Y+018743
X+011972Y+019137
X+014649Y+019609
X+015279Y+019255
X+015909Y+019609
X+015909Y+020397
X+015279Y+020751
X+014649Y+020397
T03
X+011460Y+020397
X+010460Y+020397
X+005712Y+011948
X+005712Y+010948
X+005712Y+009948
T04
X+005200Y+020003
X+015279Y+020003
X+015279Y+005200
X+005200Y+005200
T00
M30
